<svg width="1000" height="1000" viewBox="0 0 1000 1000" fill="none" xmlns="http://www.w3.org/2000/svg">
<path d="M214.176 171.088C283.664 170.032 360.912 170.048 430.432 171.088C360.896 172.128 283.68 172.16 214.176 171.088Z" fill="#EBEBEB"/>
<path d="M189.695 200.399C261.279 199.327 340.879 199.359 412.511 200.399C340.863 201.439 261.295 201.455 189.695 200.399Z" fill="#EBEBEB"/>
<path d="M236.56 171.088C237.664 180.827 237.664 190.66 236.56 200.4C235.464 190.66 235.464 180.828 236.56 171.088Z" fill="#EBEBEB"/>
<path d="M345.648 171.088C346.744 180.828 346.744 190.66 345.648 200.4C344.544 190.66 344.544 180.827 345.648 171.088Z" fill="#EBEBEB"/>
<path d="M291.103 200.271C292.199 210.011 292.199 219.844 291.103 229.583C290.007 219.844 290.007 210.011 291.103 200.271Z" fill="#EBEBEB"/>
<path d="M690.047 171.088C724.767 170.016 759.743 170.016 794.479 171.088C759.727 172.16 724.783 172.16 690.047 171.088Z" fill="#EBEBEB"/>
<path d="M654.145 200.399C704.689 199.327 760.881 199.359 811.457 200.399C760.865 201.439 704.689 201.455 654.145 200.399Z" fill="#EBEBEB"/>
<path d="M744.576 171.088C745.68 180.827 745.68 190.66 744.576 200.4C743.48 190.66 743.48 180.828 744.576 171.088Z" fill="#EBEBEB"/>
<path d="M690.047 200.271C691.143 210.011 691.143 219.844 690.047 229.583C688.943 219.844 688.943 210.011 690.047 200.271Z" fill="#EBEBEB"/>
<path d="M289.793 722.399C359.265 721.327 436.513 721.359 506.049 722.399C436.497 723.439 359.281 723.455 289.793 722.399Z" fill="#EBEBEB"/>
<path d="M237.934 751.744C309.518 750.688 389.118 750.704 460.75 751.744C389.102 752.784 309.534 752.816 237.934 751.744Z" fill="#EBEBEB"/>
<path d="M497.375 693.344C542.031 692.288 591.455 692.288 636.127 693.344C591.455 694.4 542.047 694.4 497.375 693.344Z" fill="#EBEBEB"/>
<path d="M546.48 722.399C591.136 721.343 640.545 721.343 685.217 722.399C640.545 723.455 591.136 723.439 546.48 722.399Z" fill="#EBEBEB"/>
<path d="M345.695 722.399C346.791 732.134 346.791 741.961 345.695 751.695C344.591 741.961 344.591 732.134 345.695 722.399Z" fill="#EBEBEB"/>
<path d="M454.816 722.399C455.912 732.134 455.912 741.961 454.816 751.695C453.712 741.961 453.712 732.134 454.816 722.399Z" fill="#EBEBEB"/>
<path d="M564 722.399C565.096 732.134 565.096 741.961 564 751.695C562.896 741.961 562.896 732.134 564 722.399Z" fill="#EBEBEB"/>
<path d="M673.055 722.399C674.151 732.134 674.151 741.961 673.055 751.695C671.951 741.961 671.951 732.134 673.055 722.399Z" fill="#EBEBEB"/>
<path d="M291.103 751.616C292.199 761.356 292.199 771.188 291.103 780.928C290.007 771.188 290.007 761.356 291.103 751.616Z" fill="#EBEBEB"/>
<path d="M400.4 751.616C401.504 761.356 401.504 771.189 400.4 780.928C399.304 771.188 399.304 761.356 400.4 751.616Z" fill="#EBEBEB"/>
<path d="M619.006 692.527C620.102 702.262 620.102 712.089 619.006 721.823C617.894 712.09 617.894 702.261 619.006 692.527Z" fill="#EBEBEB"/>
<path d="M497.375 440.912C542.031 439.856 591.455 439.856 636.127 440.912C591.455 441.968 542.047 441.968 497.375 440.912Z" fill="#EBEBEB"/>
<path d="M546.48 470.016C591.136 468.96 640.545 468.96 685.217 470.016C640.545 471.072 591.136 471.072 546.48 470.016Z" fill="#EBEBEB"/>
<path d="M564 470.016C565.096 479.756 565.096 489.588 564 499.328C562.896 489.588 562.896 479.755 564 470.016Z" fill="#EBEBEB"/>
<path d="M673.055 470.016C674.15 479.756 674.15 489.588 673.055 499.328C671.951 489.588 671.951 479.755 673.055 470.016Z" fill="#EBEBEB"/>
<path d="M619.006 440.096C620.102 449.836 620.102 459.668 619.006 469.408C617.894 459.669 617.894 449.835 619.006 440.096Z" fill="#EBEBEB"/>
<path d="M298.992 326.767C370.592 325.711 450.176 325.727 521.808 326.767C450.16 327.807 370.608 327.823 298.992 326.767Z" fill="#EBEBEB"/>
<path d="M376.129 356C424.241 354.944 477.745 354.976 525.889 356C477.729 357.04 424.257 357.072 376.129 356Z" fill="#EBEBEB"/>
<path d="M454.945 297.472C456.041 307.206 456.041 317.033 454.945 326.768C453.841 317.034 453.841 307.206 454.945 297.472Z" fill="#EBEBEB"/>
<path d="M400.4 326.768C401.504 336.502 401.504 346.329 400.4 356.064C399.304 346.329 399.304 336.502 400.4 326.768Z" fill="#EBEBEB"/>
<path d="M653.504 326.767C704.464 325.711 761.104 325.727 812.096 326.767C761.088 327.807 704.464 327.823 653.504 326.767Z" fill="#EBEBEB"/>
<path d="M666.398 355.999C703.726 354.927 741.294 354.927 778.638 355.999C741.294 357.087 703.726 357.087 666.398 355.999Z" fill="#EBEBEB"/>
<path d="M745.215 355.744C746.311 365.479 746.311 375.306 745.215 385.04C744.111 375.306 744.111 365.478 745.215 355.744Z" fill="#EBEBEB"/>
<path d="M690.67 326.768C691.774 336.502 691.774 346.329 690.67 356.064C689.574 346.329 689.574 336.502 690.67 326.768Z" fill="#EBEBEB"/>
<path d="M509.47 326.768C510.574 336.502 510.574 346.329 509.47 356.064C508.374 346.329 508.374 336.502 509.47 326.768Z" fill="#EBEBEB"/>
<path d="M265.344 440.88C296.16 439.808 327.2 439.808 358.032 440.88C327.2 441.968 296.16 441.968 265.344 440.88Z" fill="#EBEBEB"/>
<path d="M243.664 470.191C291.776 469.119 345.264 469.151 393.408 470.191C345.248 471.231 291.776 471.247 243.664 470.191Z" fill="#EBEBEB"/>
<path d="M291.15 411.584C292.246 421.319 292.246 431.145 291.15 440.88C290.054 431.145 290.054 421.319 291.15 411.584Z" fill="#EBEBEB"/>
<path d="M345.695 440.88C346.791 450.62 346.791 460.452 345.695 470.192C344.591 460.452 344.591 450.619 345.695 440.88Z" fill="#EBEBEB"/>
<path opacity="0.19" d="M314.344 250.905C333.862 236.714 338.181 209.386 323.989 189.867C309.798 170.349 282.47 166.03 262.951 180.222C243.432 194.413 239.114 221.741 253.306 241.26C267.497 260.779 294.825 265.097 314.344 250.905Z" fill="#EBEBEB"/>
<path opacity="0.19" d="M288.638 255.152C306.532 255.152 321.038 240.646 321.038 222.752C321.038 204.858 306.532 190.352 288.638 190.352C270.744 190.352 256.238 204.858 256.238 222.752C256.238 240.646 270.744 255.152 288.638 255.152Z" fill="#EBEBEB"/>
<path opacity="0.19" d="M542.019 227.527C548.631 204.318 535.175 180.143 511.966 173.532C488.757 166.92 464.582 180.376 457.971 203.585C451.36 226.794 464.815 250.969 488.024 257.58C511.234 264.192 535.408 250.736 542.019 227.527Z" fill="#EBEBEB"/>
<path opacity="0.19" d="M499.998 255.152C517.892 255.152 532.398 240.646 532.398 222.752C532.398 204.858 517.892 190.352 499.998 190.352C482.104 190.352 467.598 204.858 467.598 222.752C467.598 240.646 482.104 255.152 499.998 255.152Z" fill="#EBEBEB"/>
<path opacity="0.19" d="M751.777 232.205C760.962 209.889 750.316 184.352 728 175.167C705.683 165.983 680.147 176.628 670.962 198.945C661.778 221.261 672.423 246.798 694.74 255.983C717.056 265.167 742.593 254.522 751.777 232.205Z" fill="#EBEBEB"/>
<path d="M441.634 289.776C440.539 300.339 436.529 310.389 430.051 318.804C423.572 327.219 414.882 333.667 404.95 337.426C395.018 341.186 384.236 342.11 373.81 340.095C363.383 338.08 353.722 333.205 345.906 326.016L317.234 330.224L331.634 305.44C328.045 296.716 326.692 287.235 327.698 277.856C329.279 262.74 336.8 248.872 348.605 239.302C360.411 229.732 375.535 225.243 390.65 226.824C405.766 228.404 419.634 235.925 429.204 247.731C438.775 259.536 443.263 274.66 441.682 289.776H441.634Z" fill="white"/>
<path d="M441.634 289.776C440.528 300.337 436.525 310.387 430.066 318.816C428.463 320.916 426.732 322.914 424.882 324.8C422.967 326.622 420.947 328.332 418.834 329.92C414.609 333.12 409.955 335.711 405.01 337.616C400.063 339.55 394.872 340.788 389.586 341.296C386.926 341.537 384.252 341.585 381.586 341.44C378.928 341.384 376.279 341.111 373.666 340.624C363.099 338.678 353.282 333.83 345.314 326.624L345.986 326.832L317.346 331.232L315.266 331.552L316.322 329.712L330.578 304.88V305.872C327.229 297.732 325.781 288.936 326.344 280.152C326.907 271.368 329.466 262.829 333.826 255.183C338.187 247.538 344.234 240.987 351.507 236.031C358.78 231.074 367.088 227.842 375.799 226.58C384.509 225.317 393.393 226.059 401.774 228.747C410.155 231.436 417.813 236 424.164 242.094C430.515 248.187 435.392 255.649 438.425 263.912C441.458 272.175 442.566 281.02 441.666 289.776H441.634ZM441.634 289.776C442.554 281.146 441.479 272.421 438.493 264.272C435.506 256.124 430.688 248.771 424.409 242.779C418.13 236.788 410.559 232.32 402.28 229.718C394.001 227.117 385.235 226.452 376.658 227.776C368.16 229.043 360.065 232.24 352.994 237.12C345.995 242.039 340.144 248.414 335.842 255.808C331.618 263.24 329.135 271.533 328.578 280.064C328.041 288.58 329.419 297.109 332.61 305.024L332.818 305.536L332.546 306L318.146 330.736L317.122 329.136L345.81 325.12H346.21L346.498 325.376C354.15 332.543 363.645 337.44 373.922 339.52C376.486 340.033 379.085 340.348 381.698 340.464C389.569 341.011 397.466 339.854 404.85 337.072C409.8 335.289 414.459 332.782 418.674 329.632C422.942 326.562 426.718 322.861 429.874 318.656C436.371 310.291 440.439 300.299 441.634 289.776Z" fill="#263238"/>
<path d="M355.137 283.776C355.137 284.821 355.447 285.843 356.028 286.711C356.609 287.58 357.434 288.257 358.4 288.656C359.366 289.055 360.428 289.158 361.453 288.953C362.477 288.748 363.418 288.244 364.156 287.504C364.894 286.764 365.395 285.822 365.597 284.796C365.799 283.771 365.692 282.709 365.29 281.744C364.888 280.78 364.209 279.956 363.339 279.378C362.468 278.8 361.446 278.493 360.401 278.496C359.708 278.496 359.022 278.633 358.383 278.898C357.743 279.164 357.162 279.553 356.673 280.044C356.184 280.534 355.796 281.116 355.533 281.757C355.269 282.397 355.135 283.083 355.137 283.776Z" fill="#263238"/>
<path d="M380.434 283.776C380.434 284.821 380.744 285.843 381.325 286.711C381.905 287.58 382.731 288.257 383.697 288.656C384.662 289.055 385.725 289.158 386.75 288.953C387.774 288.748 388.715 288.244 389.453 287.504C390.191 286.764 390.692 285.822 390.894 284.796C391.096 283.771 390.989 282.709 390.587 281.744C390.185 280.78 389.506 279.956 388.635 279.378C387.765 278.8 386.743 278.493 385.698 278.496C385.005 278.496 384.319 278.633 383.679 278.898C383.04 279.164 382.459 279.553 381.97 280.044C381.481 280.534 381.093 281.116 380.83 281.757C380.566 282.397 380.432 283.083 380.434 283.776Z" fill="#263238"/>
<path d="M405.73 283.776C405.73 284.821 406.041 285.843 406.621 286.711C407.202 287.58 408.028 288.257 408.994 288.656C409.959 289.055 411.022 289.158 412.046 288.953C413.071 288.748 414.012 288.244 414.75 287.504C415.487 286.764 415.989 285.822 416.191 284.796C416.393 283.771 416.286 282.709 415.884 281.744C415.482 280.78 414.803 279.956 413.932 279.378C413.062 278.8 412.039 278.493 410.994 278.496C410.302 278.496 409.616 278.633 408.976 278.898C408.337 279.164 407.756 279.553 407.267 280.044C406.778 280.534 406.39 281.116 406.127 281.757C405.863 282.397 405.728 283.083 405.73 283.776Z" fill="#263238"/>
<path d="M710.064 274.288C708.969 284.851 704.958 294.902 698.48 303.317C692.002 311.731 683.311 318.179 673.379 321.939C663.447 325.699 652.666 326.623 642.239 324.608C631.812 322.593 622.151 317.718 614.336 310.528L585.68 314.736L600.08 289.952C596.794 281.886 595.39 273.177 595.975 264.488C596.56 255.798 599.118 247.356 603.456 239.803C607.793 232.25 613.795 225.786 621.005 220.901C628.216 216.016 636.445 212.839 645.068 211.612C653.69 210.384 662.479 211.139 670.766 213.818C679.053 216.497 686.621 221.03 692.893 227.073C699.166 233.115 703.978 240.508 706.964 248.69C709.951 256.871 711.032 265.626 710.128 274.288H710.064Z" fill="white"/>
<path d="M710.066 274.288C708.971 284.849 704.973 294.9 698.514 303.328C696.911 305.432 695.174 307.431 693.314 309.312C691.385 311.134 689.344 312.833 687.202 314.4C682.98 317.603 678.326 320.194 673.378 322.096C668.432 324.032 663.241 325.27 657.954 325.776C655.294 326.018 652.621 326.066 649.954 325.92C647.27 325.868 644.594 325.595 641.954 325.104C631.461 323.151 621.711 318.34 613.778 311.2L614.466 311.408L585.826 315.808L583.746 316.128L584.802 314.288L599.058 289.472V290.448C595.693 282.234 594.261 273.357 594.871 264.502C595.481 255.647 598.118 247.05 602.578 239.376C607.042 231.733 613.18 225.202 620.53 220.272C627.864 215.407 636.205 212.269 644.927 211.094C653.648 209.919 662.523 210.738 670.882 213.488C679.176 216.29 686.733 220.922 692.994 227.04C699.224 233.114 703.996 240.521 706.953 248.704C709.909 256.888 710.974 265.634 710.066 274.288ZM710.066 274.288C710.986 265.658 709.911 256.933 706.925 248.784C703.939 240.636 699.12 233.283 692.842 227.292C686.563 221.301 678.992 216.832 670.713 214.231C662.433 211.629 653.667 210.964 645.09 212.288C636.595 213.546 628.5 216.731 621.426 221.6C614.424 226.517 608.577 232.899 604.29 240.304C600.06 247.729 597.571 256.017 597.01 264.544C596.482 273.06 597.859 281.587 601.042 289.504L601.25 290.016L600.978 290.48L586.578 315.216L585.554 313.696L614.258 309.68H614.642L614.93 309.936C622.605 317.083 632.117 321.952 642.402 324C644.966 324.515 647.566 324.83 650.178 324.944C658.044 325.492 665.936 324.335 673.314 321.552C678.266 319.773 682.925 317.265 687.138 314.112C691.406 311.042 695.183 307.341 698.338 303.136C704.827 294.782 708.885 284.8 710.066 274.288Z" fill="#263238"/>
<path d="M623.57 268.288C623.57 269.332 623.88 270.353 624.46 271.221C625.04 272.09 625.865 272.766 626.83 273.166C627.795 273.566 628.856 273.67 629.88 273.466C630.905 273.263 631.845 272.76 632.584 272.021C633.322 271.283 633.825 270.342 634.029 269.318C634.233 268.294 634.128 267.232 633.728 266.267C633.329 265.302 632.652 264.478 631.784 263.898C630.915 263.318 629.895 263.008 628.85 263.008C628.156 263.006 627.469 263.141 626.827 263.405C626.186 263.67 625.603 264.059 625.112 264.55C624.621 265.04 624.233 265.623 623.968 266.265C623.703 266.906 623.568 267.594 623.57 268.288Z" fill="#263238"/>
<path d="M648.801 268.288C648.801 269.332 649.11 270.353 649.691 271.221C650.271 272.09 651.095 272.766 652.06 273.166C653.025 273.566 654.087 273.67 655.111 273.466C656.135 273.263 657.076 272.76 657.814 272.021C658.553 271.283 659.056 270.342 659.259 269.318C659.463 268.294 659.359 267.232 658.959 266.267C658.559 265.302 657.883 264.478 657.014 263.898C656.146 263.318 655.125 263.008 654.081 263.008C653.387 263.006 652.699 263.141 652.058 263.405C651.416 263.67 650.833 264.059 650.343 264.55C649.852 265.04 649.463 265.623 649.198 266.265C648.934 266.906 648.799 267.594 648.801 268.288Z" fill="#263238"/>
<path d="M674.16 268.288C674.16 269.332 674.47 270.353 675.05 271.221C675.63 272.09 676.455 272.766 677.42 273.166C678.384 273.566 679.446 273.67 680.47 273.466C681.494 273.263 682.435 272.76 683.174 272.021C683.912 271.283 684.415 270.342 684.619 269.318C684.822 268.294 684.718 267.232 684.318 266.267C683.919 265.302 683.242 264.478 682.374 263.898C681.505 263.318 680.484 263.008 679.44 263.008C678.746 263.006 678.059 263.141 677.417 263.405C676.776 263.67 676.193 264.059 675.702 264.55C675.211 265.04 674.822 265.623 674.558 266.265C674.293 266.906 674.158 267.594 674.16 268.288Z" fill="#263238"/>
<path d="M588.257 580.288C588.257 580.288 588.097 580.864 587.825 581.888L587.665 582.528C587.665 582.528 587.665 582.64 587.665 582.72C587.665 582.8 587.569 583.072 587.521 583.28L586.977 585.312C586.881 585.68 586.769 586.096 586.673 586.528C585.729 590.144 584.385 595.232 582.753 601.536C582.561 602.272 582.385 603.04 582.177 603.808C582.12 603.97 582.072 604.136 582.033 604.304C580.753 609.264 579.281 614.88 577.665 621.056C577.329 622.32 576.993 623.632 576.657 624.944C575.281 630.277 573.815 635.92 572.257 641.872C572.161 642.224 572.049 642.592 571.969 642.976C569.153 653.84 566.081 665.712 562.833 678.176C553.233 714.976 542.353 757.248 532.433 795.936C532.081 797.232 531.761 798.544 531.409 799.84C531.281 800.304 531.153 800.784 531.057 801.28C530.769 802.4 530.465 803.536 530.193 804.656C530.017 805.296 529.873 805.92 529.697 806.56L528.929 809.552C527.889 813.536 526.897 817.552 525.905 821.376C525.681 822.224 525.473 823.072 525.249 823.92C524.481 826.928 523.649 829.872 522.961 832.8H399.281C412.785 784.704 430.657 725.248 445.681 676.128C462.257 621.888 475.393 580.128 475.393 580.128L588.257 580.288Z" fill="#263238"/>
<path d="M571.553 580.304C551.073 664.784 528.273 749.68 503.633 833.104C524.113 748.608 546.945 663.728 571.553 580.304Z" fill="#455A64"/>
<path opacity="0.1" d="M478.145 580.304C485.969 640.896 514.305 741.584 525.201 824.016C550.641 724.128 588.257 580.304 588.257 580.304H478.145Z" fill="black"/>
<path d="M652.623 832.896H526.911L514.239 693.2C507.471 690.08 496.415 684.88 496.415 684.88C496.415 684.88 488.703 644.176 483.999 615.792C481.071 598.192 478.671 583.552 478.207 580.8C478.207 580.608 478.207 580.496 478.207 580.4H624.223C624.223 580.4 638.415 642.176 639.647 663.184C640.047 669.92 637.839 690.144 637.839 690.144L652.623 832.896Z" fill="#263238"/>
<path d="M486.482 680.304C502.754 685.552 518.482 693.104 533.602 701.104C533.731 701.16 533.833 701.264 533.886 701.394C533.938 701.525 533.937 701.671 533.882 701.8C533.827 701.93 533.722 702.032 533.592 702.084C533.461 702.137 533.315 702.135 533.186 702.08C517.33 695.68 501.186 689.472 485.666 682.176C485.467 682.039 485.321 681.838 485.255 681.605C485.189 681.373 485.205 681.125 485.301 680.904C485.398 680.682 485.569 680.501 485.784 680.392C485.999 680.283 486.246 680.252 486.482 680.304Z" fill="#455A64"/>
<path d="M609.729 650.032C608.321 649.44 583.089 649.488 571.905 638.208C561.665 627.888 558.497 598.848 558.273 598.8C558.194 598.776 558.109 598.779 558.031 598.808C557.953 598.837 557.886 598.89 557.841 598.96C557.441 599.568 556.369 622.272 568.305 638.96C576.721 650.768 606.481 651.456 609.713 650.944C610.289 650.912 610.129 650.208 609.729 650.032Z" fill="#455A64"/>
<path d="M461.2 637.2C462.4 636.224 468.096 635.36 473.632 624.528C475.738 620.245 477.313 615.721 478.32 611.056C478.944 608.288 481.024 594.72 481.184 594.656C481.344 594.592 481.328 594.656 481.36 594.832C481.552 595.776 480.272 608.192 479.76 611.36C479.005 616.758 477.384 621.998 474.96 626.88C469.632 636.32 462.416 638.736 461.184 638.08C460.928 637.984 461.024 637.344 461.2 637.2Z" fill="#455A64"/>
<path d="M494.112 596C494.112 595.584 494.912 595.568 494.864 596C493.44 610.08 493.264 622.56 493.12 635.84C493.12 642.016 494.848 676.272 505.68 674.8C507.504 674.56 508.56 672.896 509.104 670.24C509.728 667.04 508.896 662.992 508.656 659.744C508.144 652.56 507.872 645.344 507.936 638.176C507.947 624.733 509.352 611.328 512.128 598.176C512.141 598.087 512.188 598.006 512.26 597.952C512.332 597.898 512.423 597.875 512.512 597.888C512.601 597.9 512.681 597.948 512.735 598.02C512.789 598.092 512.813 598.183 512.8 598.272C511.056 616.736 509.808 635.216 510.848 653.76C511.344 662.688 514.528 676.336 505.216 676.816C495.904 677.296 491.744 654.576 491.168 648.416C489.568 631.28 491.168 613.008 494.112 596Z" fill="#455A64"/>
<path d="M505.312 675.712C506.046 678.082 506.623 680.498 507.04 682.944C507.554 684.85 507.706 686.837 507.488 688.8C507.408 689.168 506.912 689.152 506.736 688.88C505.803 687.046 505.151 685.083 504.8 683.056C504.208 680.816 503.552 678.576 503.008 676.32C502.967 676.029 503.034 675.734 503.197 675.489C503.36 675.245 503.606 675.069 503.89 674.994C504.174 674.919 504.475 674.951 504.737 675.083C504.999 675.215 505.203 675.439 505.312 675.712Z" fill="#455A64"/>
<path d="M613.359 585.68C618.159 610.032 622.623 634.432 626.159 658.992C626.959 663.296 626.591 688.48 626.719 692.784C631.231 737.76 635.791 787.728 638.815 832.784C633.103 787.984 627.935 738.016 623.679 693.008C623.567 688.096 624.191 663.728 623.455 659.312C620.799 637.136 616.351 607.92 613.407 585.712L613.359 585.68Z" fill="#455A64"/>
<path d="M527.2 465.376C498.816 521.088 474.624 578.48 442.048 587.392C411.056 595.872 352.768 529.344 333.424 507.392C326.896 500 381.424 448.976 389.776 455.392C405.568 467.504 435.728 502.4 440.592 501.36C445.456 500.32 474.864 465.664 511.92 434.16C534.336 415.072 546.8 426.8 527.2 465.376Z" fill="#FFCFA4"/>
<path d="M337.888 510.16C330.24 505.952 296.96 483.568 289.088 475.264C281.216 466.96 260.288 441.44 266.048 434.768C271.808 428.096 278.512 435.072 278.512 435.072C278.512 435.072 271.392 422.896 277.776 416.704C284.16 410.512 294.272 421.728 294.272 421.728C294.272 421.728 287.872 408.688 294.688 402.96C301.504 397.232 309.776 410.224 309.776 410.224C309.776 410.224 303.376 398.56 310.96 396.224C320.112 393.392 329.504 416.208 338.88 424.72C341.008 426.656 384.832 460.832 384.832 460.832L337.888 510.16Z" fill="#FFCFA4"/>
<path d="M309.042 409.12C316.002 425.888 321.938 432.016 336.53 442.32C336.594 442.356 336.64 442.416 336.66 442.486C336.679 442.557 336.67 442.632 336.634 442.696C336.598 442.759 336.538 442.806 336.468 442.826C336.397 442.845 336.322 442.836 336.258 442.8C321.058 434.016 312.498 427.392 308.226 409.408C308.002 408.528 308.722 408.32 309.042 409.12Z" fill="#263238"/>
<path d="M293.743 420.384C302.479 437.168 308.863 443.872 323.359 455.776C323.567 455.952 323.359 456.32 323.071 456.16C307.887 445.664 299.503 438.864 292.975 420.96C292.671 420.144 293.343 419.616 293.743 420.384Z" fill="#263238"/>
<path d="M279.202 435.648C288.802 451.296 295.522 458.944 311.074 468.704C311.152 468.746 311.211 468.818 311.236 468.904C311.262 468.989 311.252 469.081 311.21 469.16C311.168 469.238 311.096 469.297 311.01 469.322C310.925 469.348 310.832 469.338 310.754 469.296C293.922 460.88 285.506 451.392 278.754 436C278.37 434.944 278.658 434.672 279.202 435.648Z" fill="#263238"/>
<path d="M397.151 462.496C397.151 462.496 390.335 440.8 385.247 431.936C380.159 423.072 348.991 397.008 342.991 403.408C335.231 411.68 350.239 430.272 358.783 438.416C358.783 438.416 340.815 457.616 348.719 473.216C356.623 488.816 397.151 462.496 397.151 462.496Z" fill="#FFCFA4"/>
<path d="M341.6 406.384C340 419.04 351.872 428.992 359.568 437.52C359.681 437.645 359.763 437.795 359.806 437.957C359.849 438.12 359.853 438.29 359.817 438.455C359.781 438.619 359.706 438.773 359.599 438.902C359.492 439.032 359.355 439.134 359.2 439.2C352.192 447.712 344.8 461.776 348 472.976C348.024 473.042 348.02 473.114 347.99 473.177C347.975 473.208 347.954 473.236 347.928 473.259C347.903 473.283 347.873 473.3 347.84 473.312C347.774 473.335 347.702 473.332 347.639 473.302C347.576 473.272 347.528 473.218 347.504 473.152C342.48 461.6 348.624 447.2 356.88 438.368C348.88 429.76 337.344 419.168 341.44 406.368C341.504 406.288 341.6 406.304 341.6 406.384Z" fill="#263238"/>
<path d="M406.72 460.864L346.512 526.304C346.512 526.304 411.84 597.76 442 589.824C472.16 581.888 516.72 502.128 534.416 449.904C546.656 413.776 526.704 419.808 505.904 437.696C485.104 455.584 442.32 497.216 439.904 496.608C437.488 496 406.72 460.864 406.72 460.864Z" fill="#455A64"/>
<path d="M366.449 536.8C375.169 527.76 409.521 489.504 416.385 480.8C416.865 480.192 416.593 479.744 416.017 480.32C389.217 506.736 374.209 527.2 366.097 536.496C365.889 536.704 366.225 537.056 366.449 536.8Z" fill="#263238"/>
<path opacity="0.1" d="M537.809 436.704C537.713 437.344 537.601 438.016 537.473 438.72C537.329 439.424 537.185 440.16 537.009 440.912C536.296 443.951 535.431 446.952 534.417 449.904C534.001 451.152 533.553 452.416 533.089 453.696C532.625 454.976 532.145 456.352 531.649 457.712C531.153 459.072 530.641 460.4 530.049 461.76C514.865 501.184 487.361 551.36 463.137 575.472L462.881 575.824C455.521 583.12 448.401 588.112 441.953 589.808C436.737 591.184 430.449 590.176 423.633 587.568C448.481 547.696 499.233 464.88 527.041 424.976C528.062 424.396 529.133 423.909 530.241 423.52C531.231 423.341 532.249 423.385 533.22 423.648C534.191 423.911 535.092 424.386 535.857 425.04C536.017 425.2 536.161 425.36 536.321 425.552C536.624 425.926 536.882 426.334 537.089 426.768C537.45 427.536 537.709 428.349 537.857 429.184C538.25 431.677 538.234 434.217 537.809 436.704Z" fill="#000102"/>
<path d="M457.839 630.864L635.439 630.24C635.855 629.824 635.183 622.928 634.879 620.176C634.879 619.664 643.935 612 642.479 604.048C633.967 557.488 600.879 462.288 575.695 428.752C563.023 411.92 528.911 413.152 516.143 434.848C498.543 464.816 465.199 558.816 455.007 606.048C453.823 611.552 459.807 621.44 459.807 623.168L457.839 630.864Z" fill="#455A64"/>
<path d="M594.833 445.088C639.025 505.728 687.393 590.688 671.809 611.344C654.465 634.4 597.601 577.552 596.001 573.488C594.193 568.928 574.017 512.256 565.761 459.536C556.689 401.696 583.921 430.096 594.833 445.088Z" fill="#FFCFA4"/>
<path d="M594.833 445.088C639.025 505.728 687.393 590.688 671.809 611.344C654.465 634.4 597.601 577.552 596.001 573.488C594.193 568.928 574.017 512.256 565.761 459.536C556.689 401.696 583.921 430.096 594.833 445.088Z" fill="#455A64"/>
<path d="M595.999 573.488C589.009 556.08 582.973 538.304 577.919 520.24C572.927 502.176 568.319 483.856 566.719 465.136C574.959 501.04 586.831 537.792 596.047 573.488H595.999Z" fill="#263238"/>
<path d="M565.168 472.672C567.585 477.719 569.411 483.029 570.608 488.496C567.363 483.827 565.48 478.349 565.168 472.672Z" fill="#263238"/>
<path d="M533.28 490.4C533.28 490.4 559.728 469.52 565.728 463.776C571.728 458.032 575.024 426.336 568.464 420.576C561.904 414.816 536.352 416.8 528.32 423.04C520.288 429.28 514.176 449.2 513.552 453.2C512.928 457.2 522.8 488.4 522.8 488.4L528.32 480.928C528.32 480.928 522.592 456.24 522.8 452.24C523.008 448.24 527.232 428.24 529.2 425.216C531.168 422.192 560.72 422.592 562.976 423.904C565.232 425.216 561.376 450.56 560.08 454.848C558.784 459.136 532.24 483.968 532.24 483.968L533.28 490.4Z" fill="#2466FF"/>
<path opacity="0.1" d="M537.17 479.328L532.258 484L533.282 490.4C533.282 490.4 536.482 487.872 540.93 484.304L537.17 479.328Z" fill="black"/>
<path opacity="0.1" d="M520.449 480.8C521.809 485.296 522.801 488.464 522.801 488.464L528.321 481.008C528.321 481.008 527.825 478.928 527.169 475.888L520.449 480.8Z" fill="black"/>
<path d="M536.976 487.52L528.32 480.944L521.168 483.152L523.52 496.448L533.104 497.184L536.976 487.52Z" fill="#2466FF"/>
<path d="M533.104 497.184L543.696 602.096L516.912 632.416L508.688 595.408L523.52 496.448L533.104 497.184Z" fill="#2466FF"/>
<path opacity="0.1" d="M533.102 497.184L523.519 496.448L523.23 498.384L533.519 501.36L533.102 497.184Z" fill="black"/>
<path d="M530.303 446.512C539.903 452.032 559.103 439.296 566.927 426.848C567.455 426 568.207 390.96 568.623 383.888C568.719 382.432 523.695 392.064 523.695 392.064C523.695 392.064 527.183 407.12 526.383 419.44C526.312 420.413 526.151 421.377 525.903 422.32C525.903 422.448 525.903 422.608 525.823 422.8C524.591 428.256 525.423 443.696 530.303 446.512Z" fill="#FFCFA4"/>
<path d="M525.823 422.8C527.316 423.091 528.83 423.257 530.351 423.296C553.631 424.144 563.631 396.192 566.927 383.824C558.735 384.576 523.727 392.048 523.727 392.048C523.727 392.048 527.231 407.12 526.415 419.456C526.353 420.423 526.204 421.381 525.967 422.32C525.904 422.476 525.856 422.636 525.823 422.8Z" fill="#263238"/>
<path d="M575.841 329.152C580.833 344.832 573.073 390.4 562.001 400.672C546.001 415.568 519.409 417.28 506.689 397.936C494.353 379.168 505.521 319.968 517.889 310.608C536.161 296.8 568.465 306 575.841 329.152Z" fill="#FFCFA4"/>
<path d="M535.327 357.456C535.327 357.344 535.535 357.632 535.519 357.76C534.911 360.816 534.735 364.416 537.343 365.904C537.423 365.904 537.343 366.096 537.343 366.064C533.983 365.024 534.255 360.256 535.327 357.456Z" fill="#263238"/>
<path d="M538.592 354.704C543.6 355.136 542.352 365.104 537.712 364.704C533.072 364.304 534.4 354.4 538.592 354.704Z" fill="#263238"/>
<path d="M517.375 355.76C517.375 355.648 517.119 355.888 517.103 356.016C516.815 359.104 515.967 362.608 513.039 363.28C513.039 363.28 512.943 363.472 513.039 363.456C516.511 363.408 517.599 358.752 517.375 355.76Z" fill="#263238"/>
<path d="M515.025 352.192C510.113 351.2 508.465 361.104 513.025 362.032C517.585 362.96 519.201 353.04 515.025 352.192Z" fill="#263238"/>
<path d="M543.521 350.432C542.168 350.178 540.832 349.841 539.521 349.424C538.063 349.272 536.696 348.642 535.633 347.632C535.358 347.251 535.218 346.789 535.236 346.32C535.253 345.851 535.427 345.4 535.729 345.04C536.432 344.417 537.289 343.992 538.212 343.809C539.134 343.626 540.088 343.692 540.977 344C542.887 344.341 544.6 345.386 545.777 346.928C546.03 347.295 546.17 347.729 546.177 348.175C546.185 348.621 546.06 349.059 545.818 349.434C545.577 349.809 545.23 350.104 544.821 350.281C544.412 350.459 543.959 350.512 543.521 350.432Z" fill="#263238"/>
<path d="M512.062 347.201C513.436 347.102 514.803 346.931 516.158 346.689C517.622 346.705 519.051 346.238 520.222 345.361C520.542 345.018 520.738 344.578 520.779 344.111C520.82 343.644 520.703 343.177 520.446 342.785C519.818 342.093 519.018 341.58 518.127 341.299C517.236 341.018 516.286 340.979 515.374 341.185C513.453 341.296 511.644 342.124 510.302 343.505C510.034 343.838 509.866 344.24 509.816 344.664C509.766 345.089 509.838 345.519 510.022 345.905C510.205 346.291 510.494 346.618 510.855 346.847C511.216 347.076 511.635 347.199 512.062 347.201Z" fill="#263238"/>
<path d="M535.327 386.88C534.511 387.504 533.647 388.48 532.511 388.368C531.372 388.195 530.282 387.787 529.311 387.168C529.291 387.16 529.269 387.159 529.248 387.163C529.227 387.168 529.208 387.178 529.193 387.194C529.178 387.209 529.167 387.228 529.163 387.249C529.158 387.27 529.16 387.292 529.167 387.312C529.534 387.974 530.072 388.525 530.725 388.908C531.378 389.291 532.122 389.491 532.879 389.488C533.528 389.398 534.136 389.12 534.628 388.687C535.12 388.255 535.475 387.688 535.647 387.056C535.679 386.88 535.455 386.784 535.327 386.88Z" fill="#263238"/>
<path d="M532.655 376.8C531.719 377.924 530.561 378.843 529.253 379.498C527.945 380.154 526.516 380.531 525.055 380.608C523.778 380.682 522.496 380.58 521.247 380.304C521.008 380.264 520.772 380.205 520.543 380.128L519.871 379.936C519.711 379.883 519.572 379.78 519.477 379.641C519.382 379.502 519.335 379.336 519.343 379.168C519.335 379.061 519.335 378.954 519.343 378.848V378.576C519.583 376.192 520.255 372.592 520.255 372.592C519.343 372.928 514.655 374.368 514.879 373.12C516.783 362.912 518.911 351.568 522.959 341.808C523.071 341.488 523.583 341.632 523.503 341.952C522.063 351.84 518.895 361.408 517.295 371.312C518.959 370.766 520.696 370.469 522.447 370.432C522.767 370.56 520.991 377.344 520.975 378.432C520.971 378.469 520.971 378.506 520.975 378.544C524.895 379.568 528.063 378.736 532.271 376.528C532.655 376.368 532.879 376.608 532.655 376.8Z" fill="#263238"/>
<path d="M523.105 380.16C524.384 381.927 526.099 383.332 528.081 384.24C529.173 384.701 530.38 384.812 531.537 384.56C534.065 383.968 534.193 381.664 533.793 379.76C533.563 378.705 533.214 377.68 532.753 376.704C529.986 378.851 526.607 380.062 523.105 380.16Z" fill="#263238"/>
<path d="M528.082 384.24C529.173 384.7 530.381 384.812 531.538 384.56C534.066 383.968 534.194 381.664 533.794 379.76C531.09 379.888 528.386 381.6 528.082 384.24Z" fill="#FFCFA4"/>
<path d="M575.537 369.184C568.753 370.784 563.729 362.624 562.161 358.368C560.593 354.112 564.481 330.944 561.441 324.544C558.401 318.144 551.553 314.416 545.969 315.84C540.385 317.264 532.961 324.272 528.897 323.744C524.833 323.216 524.177 314.352 521.345 314.256C515.089 314.016 507.489 328.848 506.113 335.664C506.113 335.664 507.185 304.816 537.217 303.232C566.513 301.632 576.897 319.776 579.121 328.672C583.377 345.712 575.537 369.184 575.537 369.184Z" fill="#263238"/>
<path d="M563.183 364.592C563.183 364.592 573.295 349.76 579.999 353.392C586.703 357.024 579.231 378.368 571.439 381.376C570.464 381.825 569.41 382.073 568.337 382.106C567.265 382.139 566.197 381.956 565.197 381.568C564.197 381.18 563.285 380.595 562.516 379.847C561.746 379.099 561.135 378.205 560.719 377.216L563.183 364.592Z" fill="#FFCFA4"/>
<path d="M577.711 359.44C577.839 359.44 577.855 359.6 577.711 359.648C572.255 361.936 569.423 367.056 567.455 372.352C569.055 370.304 571.279 369.152 574.031 371.088C574.175 371.184 574.031 371.408 573.871 371.376C572.904 371.08 571.868 371.092 570.908 371.41C569.948 371.729 569.11 372.337 568.511 373.152C567.51 374.519 566.657 375.989 565.967 377.536C565.727 378.032 564.831 377.776 565.007 377.216V377.088C564.863 370.08 570.191 360.224 577.711 359.44Z" fill="#263238"/>
<path d="M525.377 419.744L536.321 444.416L567.489 414.416L576.673 424.272C576.673 424.272 546.833 472.896 546.561 470.672L535.473 449.472L521.073 465.008L520.945 427.28L525.377 419.744Z" fill="#EBEBEB"/>
<path d="M520 446.304C520.192 440.08 520.208 433.808 520.672 427.584C520.672 427.36 521.04 427.264 521.104 427.584C522.56 433.536 521.712 457.36 521.936 463.056V462.976C522.544 462.32 535.28 449.28 535.408 449.488C537.776 452.832 545.904 468.272 546.464 469.68C550.992 461.52 571.488 432.048 576.864 424.288C576.878 424.264 576.896 424.243 576.918 424.226C576.94 424.208 576.965 424.196 576.992 424.188C577.018 424.181 577.046 424.179 577.074 424.182C577.101 424.186 577.128 424.194 577.152 424.208C577.176 424.222 577.198 424.24 577.215 424.262C577.232 424.284 577.244 424.309 577.252 424.335C577.259 424.362 577.261 424.39 577.258 424.418C577.255 424.445 577.246 424.472 577.232 424.496C573.296 433.088 547.184 472.832 546.832 472.736C542.588 465.471 538.716 457.995 535.232 450.336C533.104 453.152 520.304 467.808 520.224 466.88C519.786 460.03 519.711 453.162 520 446.304Z" fill="#263238"/>
<path d="M664.657 614.576C644.705 620.08 598.305 609.616 526.305 570.416C516.337 564.992 562.545 498.416 573.473 503.616C587.249 510.224 639.281 538.816 642.833 541.424C672.689 563.136 678.177 610.832 664.657 614.576Z" fill="#FFCFA4"/>
<path d="M591.056 518.752C591.056 518.752 587.088 515.872 568.656 497.216C555.856 484.416 516.528 461.088 469.712 481.312C451.76 489.056 449.36 505.04 469.44 500.288C483.568 496.96 493.072 493.424 498 493.632C498 493.632 484.24 511.104 487.888 523.456C491.078 534.261 495.03 544.826 499.712 555.072C501.783 554.639 503.824 554.078 505.824 553.392C507.697 558.144 510.874 562.269 514.991 565.293C519.107 568.316 523.994 570.114 529.088 570.48L591.056 518.752Z" fill="#FFCFA4"/>
<path d="M554.401 486.864C544.913 486.176 524.769 485.056 508.001 489.872C489.361 495.216 454.881 510.528 458.961 524.256C461.969 534.32 475.633 529.632 475.633 529.632C475.633 529.632 462.721 538.96 467.425 547.456C471.697 555.2 482.065 550.944 482.065 550.944C482.065 550.944 475.201 557.952 480.753 564.624C487.441 572.624 500.721 556.624 514.513 558.896C517.601 559.408 554.401 486.864 554.401 486.864Z" fill="#FFCFA4"/>
<path d="M516.978 508.624C507.954 509.44 487.922 516.624 475.778 529.232C475.506 529.52 475.57 529.888 475.874 529.68C488.7 521.079 502.524 514.067 517.042 508.8C517.138 508.768 517.09 508.624 516.978 508.624Z" fill="#263238"/>
<path d="M521.826 527.6C514.114 529.12 493.794 537.376 481.922 550.64C481.666 550.928 481.762 551.296 482.05 551.072C494.409 541.828 507.774 534.013 521.89 527.776C521.986 527.744 521.938 527.584 521.826 527.6Z" fill="#263238"/>
<path d="M589.599 510.064L543.199 586.976C543.199 586.976 653.247 629.312 667.999 614.288C682.751 599.264 663.199 553.744 646.031 542.192C628.863 530.64 589.599 510.064 589.599 510.064Z" fill="#455A64"/>
<path d="M653.503 554.992C651.247 552.032 646.303 542.576 635.183 534.976C625.487 528.368 596.783 512.752 589.439 510.256C589.247 510.256 589.151 510.368 589.327 510.464C595.631 513.824 623.055 529.232 633.455 536.192C640.978 541.46 647.666 547.83 653.295 555.088C653.407 555.232 653.599 555.136 653.503 554.992Z" fill="#263238"/>
<path d="M567.391 586.176C569.841 581.032 572.554 576.017 575.519 571.152C578.415 566.016 581.487 560.992 584.511 555.936C587.535 550.88 600.367 531.088 603.567 526.16C603.581 526.138 603.599 526.119 603.62 526.104C603.641 526.088 603.664 526.078 603.69 526.072C603.715 526.066 603.741 526.065 603.767 526.069C603.792 526.073 603.817 526.082 603.839 526.096C603.861 526.11 603.88 526.128 603.895 526.149C603.911 526.17 603.921 526.193 603.927 526.219C603.933 526.244 603.934 526.27 603.93 526.296C603.926 526.321 603.917 526.346 603.903 526.368C601.023 531.52 589.503 551.888 586.559 556.768C583.615 561.648 580.591 566.688 577.455 571.536C574.428 576.597 571.143 581.499 567.615 586.224C567.535 586.4 567.327 586.4 567.391 586.176Z" fill="#263238"/>
<path d="M546.67 581.088C545.63 583.136 544.59 585.168 543.47 587.184L543.262 586.608C578.462 597.808 613.278 610.464 649.678 617.248C640.409 616.799 631.193 615.579 622.126 613.6C594.946 607.534 568.441 598.765 543.006 587.424L542.574 587.232C543.902 585.184 545.278 583.184 546.67 581.168V581.088Z" fill="#263238"/>
<path d="M627.762 832.865H734.706L774.306 604.721H664.866L627.762 832.865Z" fill="#37474F"/>
<path d="M664.801 604.528V604.848C665.505 609.648 671.201 653.984 685.601 695.104C686.507 697.728 687.441 700.278 688.401 702.752C692.227 703.927 695.969 705.359 699.601 707.04L702.193 708.224C706.705 710.304 712.289 713.12 718.849 716.864C718.849 716.864 718.849 717.296 718.849 718.128C718.849 718.47 718.849 718.87 718.849 719.328C719.009 722.944 725.521 814.384 726.417 832.768H838.417C836.689 815.408 834.945 798.352 833.265 782.32C830.929 759.92 828.721 739.568 826.785 723.12C826.785 723.12 846.129 675.888 809.937 604.544L664.801 604.528Z" fill="#FFCFA4"/>
<path d="M723.633 832.896L841.393 832.784L828.993 723.104C828.993 723.104 835.265 705.584 835.265 696.064C835.265 673.664 825.457 634.88 812.465 604.528H664.801C664.801 604.528 664.081 654.704 682.193 702.608L704.801 711.888L723.633 832.896Z" fill="#37474F"/>
<path d="M704.802 711.888C704.642 711.152 703.202 711.136 703.298 711.888C707.906 751.248 722.578 831.264 723.25 832.864C723.263 832.911 723.291 832.953 723.33 832.983C723.369 833.013 723.417 833.029 723.466 833.029C723.515 833.029 723.562 833.013 723.601 832.983C723.64 832.953 723.669 832.911 723.682 832.864C724.162 831.2 710.946 742.608 704.802 711.888Z" fill="#263238"/>
<path d="M682.833 701.041C695.938 705.962 708.58 712.039 720.609 719.201C721.089 719.473 720.769 720.225 720.257 720.001C707.457 714.369 694.561 708.977 682.145 702.625C681.943 702.528 681.786 702.357 681.707 702.147C681.629 701.938 681.635 701.706 681.724 701.5C681.813 701.295 681.979 701.132 682.185 701.046C682.392 700.961 682.624 700.958 682.833 701.041Z" fill="#263238"/>
<path d="M804.003 666.48C793.827 665.44 783.347 665.568 773.907 660.912C764.467 656.256 758.211 646.864 753.315 637.504C750.305 631.692 748.032 625.527 746.547 619.152C746.533 619.097 746.501 619.049 746.456 619.014C746.411 618.979 746.356 618.96 746.299 618.96C746.242 618.96 746.187 618.979 746.142 619.014C746.097 619.049 746.065 619.097 746.051 619.152C746.443 625.118 747.849 630.972 750.211 636.464C752.294 641.863 754.977 647.01 758.211 651.808C761.206 656.361 765.18 660.187 769.843 663.008C774.554 665.61 779.749 667.216 785.107 667.728C791.374 668.395 797.696 668.358 803.955 667.616C804.072 667.578 804.174 667.504 804.249 667.406C804.323 667.307 804.366 667.188 804.371 667.065C804.376 666.942 804.344 666.82 804.278 666.715C804.212 666.611 804.116 666.529 804.003 666.48Z" fill="#263238"/>
<path d="M656.802 660.432C658.002 659.424 663.698 658.528 669.25 647.36C671.353 642.938 672.921 638.281 673.922 633.488C674.562 630.624 676.626 616.64 676.802 616.576C676.978 616.512 676.93 616.576 676.962 616.752C677.17 617.728 675.874 630.512 675.362 633.792C674.61 639.344 672.99 644.743 670.562 649.792C665.234 659.504 658.034 662 656.802 661.344C656.562 661.232 656.658 660.56 656.802 660.432Z" fill="#263238"/>
<path d="M688.322 613.6C688.322 613.184 689.122 613.168 689.074 613.6C687.65 628.128 687.378 640.992 687.33 654.688C687.33 661.088 689.058 696.288 699.89 694.848C701.698 694.592 702.77 692.88 703.298 690.144C703.938 686.864 703.106 682.672 702.866 679.328C702.354 671.92 702.082 664.512 702.146 657.088C702.178 643.273 703.604 629.497 706.402 615.968C706.408 615.924 706.423 615.882 706.446 615.843C706.468 615.805 706.499 615.771 706.534 615.745C706.57 615.718 706.61 615.699 706.654 615.687C706.697 615.676 706.742 615.674 706.786 615.68C706.83 615.687 706.872 615.701 706.911 615.724C706.949 615.747 706.983 615.777 707.009 615.813C707.036 615.848 707.056 615.889 707.067 615.932C707.078 615.975 707.08 616.02 707.074 616.064C705.33 635.104 704.082 654.144 705.122 673.28C705.618 682.464 708.802 696.528 699.49 697.04C690.178 697.552 686.018 674.112 685.442 667.744C683.778 650 685.378 631.2 688.322 613.6Z" fill="#263238"/>
<path d="M699.523 695.808C700.259 698.248 700.836 700.734 701.251 703.248C701.757 705.216 701.909 707.259 701.699 709.28C701.676 709.357 701.631 709.425 701.569 709.476C701.508 709.528 701.433 709.561 701.354 709.571C701.275 709.581 701.194 709.568 701.122 709.534C701.05 709.499 700.989 709.444 700.947 709.376C700.014 707.475 699.362 705.449 699.011 703.36C698.403 701.056 697.763 698.752 697.219 696.416C697.138 696.111 697.183 695.786 697.342 695.513C697.501 695.24 697.762 695.041 698.067 694.96C698.373 694.88 698.698 694.924 698.971 695.083C699.244 695.242 699.443 695.503 699.523 695.808Z" fill="#263238"/>
<path d="M746.771 327.713C775.283 340.513 781.443 380.753 779.555 437.953C779.283 446.641 705.699 461.761 670.115 434.929C664.371 430.593 672.531 360.625 686.643 340.529C704.163 315.457 729.107 319.761 746.771 327.713Z" fill="#263238"/>
<path d="M747.536 328.288C762.464 335.872 772.048 350.96 776.336 366.8C779.536 378.352 780.912 390.72 782.256 402.592C783.536 413.984 784.352 425.728 782.8 437.136C782.8 437.221 782.766 437.302 782.706 437.362C782.646 437.422 782.565 437.456 782.48 437.456C782.395 437.456 782.314 437.422 782.254 437.362C782.194 437.302 782.16 437.221 782.16 437.136C782.285 415.467 780.032 393.849 775.44 372.672C771.728 354.896 762.64 339.072 746.944 329.472C746.4 329.024 746.896 327.968 747.536 328.288Z" fill="#263238"/>
<path d="M675.795 360.112C681.027 341.92 692.739 328.912 710.323 323.04C710.435 323.04 710.499 323.2 710.323 323.248C691.299 330.736 680.579 345.792 675.715 365.728C670.419 387.424 668.243 409.44 666.451 431.648C666.451 431.746 666.412 431.839 666.343 431.908C666.274 431.977 666.18 432.016 666.083 432.016C665.985 432.016 665.892 431.977 665.823 431.908C665.754 431.839 665.715 431.746 665.715 431.648C665.941 407.465 669.33 383.416 675.795 360.112Z" fill="#263238"/>
<path d="M676.322 563.152L671.394 594.224L806.722 593.952C806.722 593.952 802.834 494.08 764.978 455.36C746.05 436 724.546 438.128 711.234 452.464C707.874 456.08 669.634 509.856 665.922 530.864C662.674 549.472 676.322 563.152 676.322 563.152Z" fill="#EBEBEB"/>
<path d="M699.04 553.232C706.248 553.939 713.393 555.179 720.416 556.944C723.904 557.872 727.312 558.944 730.72 560.144C732.416 560.72 734.128 561.248 735.856 561.744C737.642 562.322 739.489 562.687 741.36 562.832C741.52 562.832 741.52 563.072 741.36 563.088C737.864 563.295 734.358 562.905 730.992 561.936C727.456 561.04 723.968 559.968 720.432 559.024C713.312 557.136 706.192 555.232 698.96 553.856C698.608 553.76 698.704 553.2 699.04 553.232Z" fill="#263238"/>
<path d="M681.155 559.472C687.104 558.894 693.082 558.659 699.059 558.768C702.051 558.768 705.011 559.056 707.987 559.376C709.395 559.52 710.819 559.696 712.227 559.888C713.635 560.08 715.315 560.528 716.883 560.72C717.043 560.72 717.043 560.992 716.883 560.976C715.411 560.832 713.907 560.976 712.435 560.896L708.003 560.8C705.011 560.704 702.035 560.64 699.059 560.512C693.107 560.256 687.155 560.064 681.187 560.016C680.803 559.952 680.803 559.488 681.155 559.472Z" fill="#263238"/>
<path d="M665.777 605.504H810.673L808.417 592.8H668.033L665.777 605.504Z" fill="#263238"/>
<path d="M714.066 608.352H683.41V590.528H714.066V608.352ZM686.61 605.152H710.866V593.728H686.61V605.152Z" fill="#2466FF"/>
<path d="M740.64 441.265C740.64 441.265 731.84 529.265 731.84 534.065C731.84 538.865 740.432 699.345 740.432 699.345L841.392 672.801L808.208 580.129C808.208 580.129 805.568 513.713 773.104 465.041C763.2 450.193 751.584 442.177 740.64 441.265Z" fill="#2466FF"/>
<path opacity="0.3" d="M740.64 441.265C740.64 441.265 731.84 529.265 731.84 534.065C731.84 538.865 740.432 699.345 740.432 699.345L841.392 672.801L808.208 580.129C808.208 580.129 805.568 513.713 773.104 465.041C763.2 450.193 751.584 442.177 740.64 441.265Z" fill="black"/>
<path opacity="0.3" d="M731.84 534.016C731.84 536.112 733.536 569.216 735.456 605.248L737.248 534.496L756.448 501.52L738.848 486.608L751.84 477.504L740.64 441.28C740.64 441.28 731.84 529.344 731.84 534.016Z" fill="black"/>
<path d="M712.385 447.473C712.385 447.473 673.345 515.025 673.057 529.265C672.609 550.977 678.673 563.681 678.673 563.681L652.273 686.369L640.305 675.521L673.905 563.681C667.484 554.999 664.211 544.39 664.625 533.601C665.473 510.049 712.385 447.473 712.385 447.473Z" fill="#2466FF"/>
<path opacity="0.3" d="M712.385 447.473C712.385 447.473 673.345 515.025 673.057 529.265C672.609 550.977 678.673 563.681 678.673 563.681L652.273 686.369L640.305 675.521L673.905 563.681C667.484 554.999 664.211 544.39 664.625 533.601C665.473 510.049 712.385 447.473 712.385 447.473Z" fill="black"/>
<path d="M678.673 563.681C678.673 563.681 672.273 537.521 674.753 525.393C677.233 513.265 712.385 447.473 712.385 447.473L686.673 480.417L688.945 483.809L672.801 501.873C672.801 501.873 672.577 515.649 672.577 534.305C672.577 551.905 677.745 563.233 677.745 563.233L670.465 602.017L678.673 563.681Z" fill="#2466FF"/>
<path opacity="0.5" d="M678.673 563.681C678.673 563.681 672.273 537.521 674.753 525.393C677.233 513.265 712.385 447.473 712.385 447.473L686.673 480.417L688.945 483.809L672.801 501.873C672.801 501.873 672.577 515.649 672.577 534.305C672.577 551.905 677.745 563.233 677.745 563.233L670.465 602.017L678.673 563.681Z" fill="black"/>
<path d="M773.008 466.88C802.8 517.072 831.04 608.208 817.44 623.088C802.304 639.68 761.696 575.52 762.736 572.272C763.504 569.824 756.784 513.44 751.296 472.288C745.808 431.136 765.6 454.464 773.008 466.88Z" fill="#FFCFA4"/>
<path d="M762.402 572.24C762.082 566.32 752.402 491.776 750.146 468.4C748.13 447.424 753.666 440.4 766.738 456.32C790.738 485.664 826.85 568.32 826.418 603.12C826.05 632.976 808.258 637.264 789.266 616.096C773.602 598.784 762.402 572.24 762.402 572.24Z" fill="#2466FF"/>
<g opacity="0.3">
<path d="M762.402 572.24C762.082 566.32 752.402 491.776 750.146 468.4C748.13 447.424 753.666 440.4 766.738 456.32C790.738 485.664 826.85 568.32 826.418 603.12C826.05 632.976 808.258 637.264 789.266 616.096C773.602 598.784 762.402 572.24 762.402 572.24Z" fill="black"/>
</g>
<path d="M763.553 581.872C758.545 554.195 755.169 526.249 753.441 498.176C758.449 525.852 761.826 553.799 763.553 581.872Z" fill="#263238"/>
<path d="M755.123 514.4C753.051 511.27 751.812 507.663 751.523 503.92C753.378 507.153 754.6 510.71 755.123 514.4Z" fill="#263238"/>
<path d="M812.385 622.945C799.681 634.145 773.362 630.513 706.226 627.537C696.946 627.121 682.225 560.801 692.145 560.721C704.673 560.625 753.282 562.993 756.818 563.617C786.626 568.801 821.009 615.329 812.385 622.945Z" fill="#FFCFA4"/>
<path d="M702.306 564.001C702.306 564.001 677.81 554.305 663.346 553.185C644.002 551.697 626.674 558.385 619.586 561.617C604.786 568.385 573.682 594.945 579.778 605.249C585.282 614.561 615.714 585.793 615.714 585.793C615.714 585.793 579.858 610.017 588.514 620.017C597.17 630.017 630.642 594.609 630.642 594.609C630.642 594.609 594.402 620.273 604.994 629.169C612.994 635.889 645.074 605.537 645.074 605.537C645.074 605.537 614.034 627.841 621.986 635.105C630.77 643.105 662.13 616.961 662.13 616.961C685.426 632.033 702.69 629.681 714.77 626.561C717.698 625.793 702.306 564.001 702.306 564.001Z" fill="#FFCFA4"/>
<path d="M627.584 576.592C623.264 579.28 618.88 581.984 614.784 585.056C610.688 588.128 606.784 591.328 603.008 594.752C598.014 599.145 593.532 604.088 589.648 609.488C597.232 600.4 611.6 589.2 615.664 586.128C619.728 583.056 623.664 579.808 627.664 576.752C627.808 576.672 627.68 576.528 627.584 576.592Z" fill="#263238"/>
<path d="M638.915 591.057C633.555 594.737 628.099 598.193 622.915 602.097C617.731 606.001 613.171 610.097 608.275 614.385C607.907 614.705 608.195 614.801 608.595 614.497C613.651 610.449 618.643 607.105 623.747 603.121C628.851 599.137 633.811 594.961 639.027 591.185C639.107 591.201 638.995 591.009 638.915 591.057Z" fill="#263238"/>
<path d="M650.882 601.729C642.525 607.166 634.751 613.45 627.682 620.481C627.314 620.817 627.682 620.897 628.114 620.577C635.698 614.177 641.618 609.137 651.058 602.017C651.218 601.905 651.058 601.617 650.882 601.729Z" fill="#263238"/>
<path d="M704.801 554L733.201 635.6C733.201 635.6 811.441 636.576 820.817 623.712C827.505 614.528 790.865 570.208 758.049 563.328L704.801 554Z" fill="#2466FF"/>
<path opacity="0.3" d="M704.801 554L733.201 635.6C733.201 635.6 811.441 636.576 820.817 623.712C827.505 614.528 790.865 570.208 758.049 563.328L704.801 554Z" fill="black"/>
<path d="M751.201 628.865C748.673 619.905 745.697 611.137 742.689 602.385C739.681 593.633 736.705 584.785 733.505 576.177C731.681 571.281 729.905 566.369 727.937 561.569C727.937 561.441 727.665 561.569 727.713 561.569C730.225 570.529 733.169 579.313 736.113 588.081C739.057 596.849 742.097 605.681 745.217 614.337C746.961 619.265 748.801 624.145 750.785 628.961C750.833 629.281 751.201 629.137 751.201 628.865Z" fill="#263238"/>
<path d="M707.264 561.04C706.262 558.576 705.28 556.102 704.32 553.616C713.504 554.704 722.624 556.144 731.76 557.536C744.016 559.856 756.672 561.04 768.448 565.36C773.669 567.719 778.647 570.58 783.312 573.904C790.672 579.168 798.048 584.784 803.584 592C797.376 585.456 789.856 580.288 782.352 575.376C774.848 570.464 766.864 566.16 758 564.752C749.184 562.912 740.272 561.264 731.392 559.568C722.512 557.872 713.632 556.176 704.8 554.4L705.152 553.968C705.888 556.352 706.608 558.768 707.296 561.12L707.264 561.04Z" fill="#263238"/>
<path d="M730.052 626.528C731.3 629.504 732.468 632.512 733.652 635.52L733.235 635.216C756.355 634.864 779.635 634.864 802.531 630.896C806.294 630.228 809.996 629.26 813.604 628C817.108 626.656 820.852 624.8 822.596 621.344C819.54 628.544 809.796 630.768 802.868 632.672C780.02 637.648 756.468 637.6 733.172 636.176H732.852C731.892 632.976 730.916 629.776 730.02 626.576L730.052 626.528Z" fill="#263238"/>
<path d="M739.729 446.529C739.009 449.521 724.466 468.929 710.722 468.129C706.258 467.873 706.577 446.593 706.577 446.593L706.194 444.065L700.77 418.689L730.706 399.873L735.026 397.393C735.026 397.393 736.05 404.433 737.25 413.217C737.25 413.617 737.362 414.033 737.41 414.465C737.458 414.897 737.569 415.425 737.633 415.889C737.825 417.201 738.017 418.545 738.177 419.873C738.305 420.897 738.433 421.889 738.529 422.961C738.625 424.033 738.753 425.073 738.881 426.161C739.686 432.918 739.97 439.728 739.729 446.529Z" fill="#FFCFA4"/>
<path d="M737.25 413.216C734.611 420.29 730.468 426.707 725.105 432.022C719.743 437.337 713.291 441.424 706.194 444L700.77 418.624L730.706 399.808L735.026 397.328C735.026 397.328 736.05 404.432 737.25 413.216Z" fill="#263238"/>
<path d="M739.33 447.473C737.106 456.705 698.85 521.777 696.322 519.137C693.794 516.497 706.994 455.889 706.994 455.889L739.33 447.473Z" fill="#FFCFA4"/>
<path d="M666.403 378.4C662.371 423.776 689.091 431.296 698.883 432.16C707.763 432.944 738.099 434.464 746.787 389.744C755.475 345.024 735.587 328.832 715.443 325.968C695.299 323.104 670.467 332.976 666.403 378.4Z" fill="#FFCFA4"/>
<path d="M674.513 368.8C675.585 368.8 676.577 368.544 677.633 368.4C678.75 368.415 679.841 368.061 680.737 367.392C680.979 367.129 681.127 366.792 681.156 366.436C681.185 366.079 681.094 365.723 680.897 365.424C680.422 364.887 679.813 364.487 679.133 364.265C678.452 364.042 677.724 364.006 677.025 364.16C675.563 364.25 674.187 364.884 673.169 365.936C672.948 366.189 672.806 366.5 672.759 366.832C672.712 367.164 672.763 367.503 672.906 367.807C673.048 368.11 673.276 368.366 673.561 368.542C673.847 368.719 674.177 368.808 674.513 368.8Z" fill="#263238"/>
<path d="M705.539 371.232C704.499 370.992 703.571 370.592 702.547 370.256C701.447 370.05 700.446 369.488 699.699 368.656C699.508 368.352 699.424 367.993 699.462 367.636C699.5 367.279 699.656 366.945 699.907 366.688C700.47 366.247 701.142 365.966 701.852 365.876C702.562 365.786 703.283 365.89 703.939 366.176C705.364 366.534 706.602 367.413 707.411 368.64C707.592 368.931 707.682 369.269 707.67 369.612C707.658 369.954 707.544 370.286 707.344 370.563C707.143 370.841 706.864 371.053 706.543 371.172C706.222 371.291 705.872 371.312 705.539 371.232Z" fill="#263238"/>
<path d="M698.099 381.344C698.099 381.232 698.323 381.504 698.307 381.632C697.875 384.704 697.907 388.304 700.595 389.632C700.675 389.632 700.595 389.84 700.595 389.808C697.187 388.944 697.203 384.176 698.099 381.344Z" fill="#263238"/>
<path d="M701.186 378.4C706.194 378.544 705.522 388.544 700.898 388.4C696.274 388.256 697.01 378.288 701.186 378.4Z" fill="#263238"/>
<path d="M703.2 379.072C704.032 379.696 704.8 380.752 705.872 380.928C706.944 381.104 708.064 380.144 708.928 379.184C709.008 379.088 709.088 379.184 709.088 379.312C708.992 381.232 708.128 383.152 706.048 383.296C703.968 383.44 702.848 381.696 702.576 379.696C702.432 379.328 702.784 378.816 703.2 379.072Z" fill="#263238"/>
<path d="M679.521 379.744C679.521 379.616 679.281 379.872 679.265 380C679.185 383.104 678.561 386.64 675.697 387.504C675.617 387.504 675.617 387.68 675.697 387.68C679.201 387.392 679.937 382.688 679.521 379.744Z" fill="#263238"/>
<path d="M676.946 376.352C672.002 375.68 671.01 385.632 675.602 386.256C680.194 386.88 681.106 376.912 676.946 376.352Z" fill="#263238"/>
<path d="M674.816 376.801C673.968 377.249 673.104 378.129 672.144 378.097C671.184 378.065 670.352 376.913 669.76 375.809C669.76 375.697 669.616 375.809 669.6 375.905C669.36 377.793 669.792 379.841 671.584 380.385C673.376 380.929 674.608 379.377 675.248 377.521C675.36 377.185 675.152 376.609 674.816 376.801Z" fill="#263238"/>
<path d="M695.873 408.288C695.153 409.04 694.449 410.064 693.329 410.192C692.174 410.211 691.028 409.982 689.969 409.52C689.948 409.515 689.926 409.515 689.905 409.522C689.884 409.529 689.866 409.542 689.853 409.559C689.839 409.576 689.831 409.596 689.829 409.618C689.827 409.639 689.831 409.661 689.841 409.68C690.295 410.285 690.907 410.754 691.609 411.037C692.312 411.319 693.078 411.403 693.825 411.28C694.451 411.095 695.008 410.729 695.426 410.228C695.845 409.727 696.106 409.113 696.177 408.464C696.209 408.24 695.969 408.176 695.873 408.288Z" fill="#263238"/>
<path d="M683.137 395.648C683.137 395.648 682.337 400.992 682.273 403.168C682.273 403.376 689.873 403.936 693.857 399.2C694.033 398.992 693.745 398.752 693.537 398.88C690.749 400.782 687.422 401.736 684.049 401.6C683.905 400.992 685.537 393.52 685.201 393.488C683.5 393.592 681.821 393.925 680.209 394.48C681.505 384.88 684.321 375.456 685.457 365.808C685.457 365.472 684.993 365.36 684.897 365.664C681.233 375.264 679.505 386.352 677.921 396.304C677.713 397.6 682.257 396 683.137 395.648Z" fill="#263238"/>
<path d="M684.098 402.593C685.377 404.359 687.091 405.765 689.074 406.673C690.171 407.133 691.383 407.245 692.546 406.993C695.074 406.401 695.202 404.097 694.786 402.113C694.564 401.056 694.215 400.03 693.746 399.057C690.988 401.232 687.608 402.471 684.098 402.593Z" fill="#263238"/>
<path d="M689.074 406.672C690.171 407.133 691.383 407.245 692.546 406.992C695.074 406.4 695.202 404.096 694.786 402.112C692.098 402.4 689.378 404 689.074 406.672Z" fill="#FFCFA4"/>
<path d="M745.106 390.848C737.586 391.168 736.418 375.376 736.418 375.376C736.418 375.376 721.17 374.88 716.898 352.784C717.099 359.372 719.224 365.757 723.01 371.152C723.01 371.152 696.242 367.36 685.698 344.464C685.698 344.464 689.81 356.08 693.906 360.304C693.906 360.304 682.706 356.768 677.57 347.424C677.57 347.424 672.402 360.224 668.658 363.696C668.658 363.696 667.458 306.096 721.81 324.16C721.81 324.16 744.498 326.256 753.538 348.16C762.578 370.064 745.106 390.848 745.106 390.848Z" fill="#263238"/>
<path d="M739.314 392.528C739.314 392.528 749.281 378.336 755.729 381.888C762.177 385.44 754.658 406.032 747.074 408.848C746.127 409.274 745.104 409.504 744.066 409.524C743.028 409.545 741.997 409.355 741.034 408.966C740.071 408.578 739.197 407.998 738.464 407.263C737.732 406.528 737.155 405.652 736.77 404.688L739.314 392.528Z" fill="#FFCFA4"/>
<path d="M753.426 387.744C753.451 387.744 753.475 387.754 753.493 387.772C753.511 387.79 753.522 387.815 753.522 387.84C753.522 387.866 753.511 387.89 753.493 387.908C753.475 387.926 753.451 387.936 753.426 387.936C748.098 390.08 745.298 394.992 743.33 400.096C744.93 398.144 747.074 397.072 749.73 398.944C749.874 399.056 749.73 399.264 749.586 399.232C748.657 398.938 747.66 398.933 746.728 399.219C745.796 399.505 744.974 400.067 744.37 400.832C743.386 402.142 742.544 403.553 741.858 405.04C741.618 405.52 740.754 405.264 740.946 404.72C740.938 404.678 740.938 404.635 740.946 404.592C740.882 397.872 746.162 388.4 753.426 387.744Z" fill="#263238"/>
<path d="M247.779 832.801H370.819L325.603 590.017H215.059C215.059 590.017 247.587 831.777 247.779 832.801Z" fill="#FFCFA4"/>
<path opacity="0.1" d="M318.243 590.017L287.859 832.913L247.779 832.785L215.059 590.017H318.243Z" fill="black"/>
<path d="M164.336 832.801H272.704L284.48 680.801C285.824 680.065 309.216 669.969 309.216 669.969C310.464 666.769 324.848 593.905 325.584 590.097C325.58 590.043 325.58 589.99 325.584 589.937L193.696 590.097C193.696 590.097 163.808 651.633 178.128 701.105C178.992 703.921 171.056 772.273 164.336 832.801Z" fill="#FFCFA4"/>
<path d="M193.728 590.017C193.728 590.017 172.72 636.497 172.368 665.569C172.016 694.641 174.496 702.161 174.496 702.161L164.336 816.689C164.336 816.689 247.92 821.649 282.32 819.889C316.72 818.129 368.88 810.673 368.88 810.673L325.6 590.017H193.728Z" fill="#263238"/>
<g opacity="0.1">
<path d="M277.68 714.176C282.27 701.191 288.531 688.858 296.304 677.488C302 669.84 309.936 664.08 318.24 659.616C311.84 665.264 305.248 670.816 300.048 677.552C291.952 689.296 285.312 702.08 277.648 714.176H277.68Z" fill="black"/>
<path d="M295.536 691.2C297.249 687.138 299.845 683.509 303.136 680.576C306.311 677.482 310.22 675.247 314.496 674.08C312.976 675.68 311.424 677.168 309.888 678.624C305.339 683.095 300.531 687.295 295.488 691.2H295.536Z" fill="black"/>
</g>
<path d="M204.64 470.736C204.548 471.972 204.797 473.21 205.362 474.313C205.926 475.417 206.784 476.344 207.84 476.992C209.686 478.215 211.61 479.316 213.6 480.288C213.575 473.343 213.906 466.4 214.592 459.488C215.216 451.488 216.368 443.744 217.696 435.904C217.696 435.879 217.706 435.855 217.724 435.837C217.742 435.819 217.766 435.808 217.792 435.808C217.817 435.808 217.842 435.819 217.86 435.837C217.878 435.855 217.888 435.879 217.888 435.904C217.12 443.904 216.64 451.904 216.096 459.904C215.616 466.896 215.68 474 215.152 480.992C217.184 481.92 219.264 482.768 221.344 483.536C221.344 481.088 221.344 478.64 221.344 476.192C221.472 468.816 222.24 461.568 222.752 454.224C222.752 454.19 222.765 454.158 222.789 454.134C222.813 454.11 222.846 454.096 222.88 454.096C222.914 454.096 222.946 454.11 222.97 454.134C222.994 454.158 223.008 454.19 223.008 454.224C222.608 461.36 222.832 468.624 222.8 475.776C222.8 478.528 222.8 481.296 222.8 484.048C224.24 484.544 225.664 485.008 227.088 485.44C228.032 485.728 228.976 486 229.92 486.24C230.064 481.44 230.464 476.56 230.72 471.84C231.136 464.208 232.032 456.608 232.576 448.976C232.576 448.72 232.976 448.72 232.96 448.976C232.48 456.592 232.496 464.256 232.176 471.872C231.984 476.768 232 481.776 231.76 486.752C244.506 489.786 257.675 490.63 270.704 489.248C278.244 488.499 285.727 487.254 293.104 485.52C294.88 485.12 299.504 483.92 303.936 482.688C303.936 480.384 304.16 478.08 304.208 475.84C304.32 470.752 304.72 465.632 304.704 460.544C304.704 460.519 304.714 460.495 304.732 460.477C304.75 460.459 304.774 460.448 304.8 460.448C304.825 460.448 304.85 460.459 304.868 460.477C304.886 460.495 304.896 460.519 304.896 460.544C305.104 465.664 305.6 470.736 305.632 475.856C305.632 477.92 305.632 480.048 305.632 482.256L310.144 480.96C309.776 471.36 310.544 461.552 310.736 451.968C310.728 451.944 310.726 451.919 310.73 451.894C310.734 451.869 310.743 451.845 310.758 451.825C310.773 451.804 310.793 451.787 310.815 451.776C310.838 451.764 310.862 451.758 310.888 451.758C310.913 451.758 310.938 451.764 310.961 451.776C310.983 451.787 311.003 451.804 311.017 451.825C311.032 451.845 311.042 451.869 311.046 451.894C311.05 451.919 311.048 451.944 311.04 451.968C311.296 461.392 312.112 470.944 311.856 480.416C312.886 480.145 313.888 479.775 314.848 479.312C317.088 477.6 316.144 439.52 316.144 430.64C316.144 414.096 317.488 361.84 312.784 345.84C310.912 338.736 307.461 332.145 302.688 326.56C297.914 320.975 291.942 316.54 285.216 313.584C278.688 310.672 270.992 310.992 263.984 311.104C256.701 311.285 249.583 313.311 243.296 316.992C237.232 320.368 231.536 324.352 227.456 330.432C223.582 336.786 220.539 343.609 218.4 350.736C215.877 358.3 213.888 366.031 212.448 373.872C209.376 389.952 207.376 441.36 205.872 457.664C205.408 462 204.768 466.4 204.64 470.736Z" fill="#263238"/>
<path d="M300.849 444.801C350.801 495.041 384.929 530.401 387.249 557.089C390.529 594.017 373.249 594.097 363.137 593.649C335.633 592.417 297.681 506.241 282.625 462.737C268.001 420.513 289.873 433.777 300.849 444.801Z" fill="#2466FF"/>
<path opacity="0.1" d="M279.728 426.128L406.288 588L329.488 616.128L284.496 556.608C284.496 556.608 249.088 494.768 248.432 492.848C247.776 490.928 279.728 426.128 279.728 426.128Z" fill="black"/>
<path d="M189.601 592.352L332.657 589.424L328.657 542.864C328.657 542.864 338.417 530.736 337.633 520C336.033 497.6 294.177 440.464 291.105 437.728C278.753 426.752 259.009 426.528 249.665 434.976C199.457 480.688 188.913 600.608 189.601 592.352Z" fill="#2466FF"/>
<path d="M283.297 535.632C290.304 535.555 297.304 536.117 304.209 537.312C307.665 537.968 311.089 538.832 314.513 539.776C316.225 540.24 317.937 540.64 319.649 541.04C321.413 541.501 323.236 541.695 325.057 541.616C325.217 541.616 325.249 541.904 325.057 541.936C323.384 542.251 321.687 542.423 319.985 542.448C318.319 542.409 316.66 542.227 315.025 541.904C311.521 541.28 308.017 540.448 304.513 539.792C297.441 538.432 290.369 537.088 283.265 536.368C282.977 536.336 282.961 535.632 283.297 535.632Z" fill="#263238"/>
<path d="M267.345 545.457C272.884 543.992 278.519 542.922 284.209 542.257C287.063 541.961 289.932 541.816 292.801 541.825C294.161 541.825 295.537 541.825 296.913 541.825C298.289 541.825 299.953 542.193 301.457 542.209C301.617 542.209 301.665 542.528 301.457 542.528C300.033 542.528 298.625 542.881 297.201 543.025L292.945 543.409C290.097 543.681 287.249 543.985 284.401 544.225C278.705 544.689 273.041 545.233 267.361 545.953C267.105 546.097 267.057 545.537 267.345 545.457Z" fill="#263238"/>
<path d="M242.401 441.232C195.553 486.032 154.689 554.56 158.049 593.088C161.441 631.2 174.321 626.16 178.049 625.552C200.801 621.824 242.225 515.856 254.673 471.2C266.017 430.432 254.049 430.16 242.401 441.232Z" fill="#2466FF"/>
<path d="M205.695 592.913C207.887 587.857 210.159 582.864 212.287 577.776L218.799 562.64C223.087 552.528 227.455 542.448 231.599 532.24C235.743 522.032 239.999 511.968 243.999 501.76C246.047 496.672 248.026 491.552 249.935 486.4C251.951 481.28 253.711 476.096 255.535 470.896C252.929 481.601 249.724 492.151 245.935 502.496C242.255 512.88 238.127 523.088 233.999 533.28C229.871 543.472 225.311 553.521 220.607 563.473C215.903 573.425 211.119 583.329 205.695 592.913Z" fill="#263238"/>
<path d="M251.473 484.16C252.248 482.347 253.135 480.584 254.129 478.88C254.625 478.048 255.089 477.2 255.617 476.384C256.145 475.568 256.641 474.784 257.217 473.904C256.955 475.902 256.285 477.825 255.249 479.552C254.282 481.306 253.002 482.867 251.473 484.16Z" fill="#263238"/>
<path d="M257.696 437.601C258.72 440.449 274.784 457.857 288.096 455.729C292.416 455.025 289.696 431.249 289.696 431.249L289.904 429.441L292.64 404.225L261.6 388.833L257.152 386.849C257.152 386.849 256.864 393.809 256.576 402.465C256.576 402.865 256.576 403.265 256.576 403.697C256.576 404.129 256.576 404.657 256.576 405.105C256.576 406.401 256.464 407.729 256.432 409.041C256.432 410.049 256.432 411.009 256.432 412.065C256.432 413.121 256.432 414.145 256.432 415.265C256.35 422.73 256.772 430.192 257.696 437.601Z" fill="#FFCFA4"/>
<path d="M256.562 402.401C259.821 409.035 264.487 414.88 270.234 419.527C275.982 424.175 282.673 427.514 289.843 429.313L292.579 404.097L261.603 388.833L257.155 386.849C257.155 386.849 256.803 393.809 256.562 402.401Z" fill="#263238"/>
<path d="M320.656 357.857C335.28 399.921 311.744 413.441 302.672 416.593C294.432 419.441 266.016 428.113 247.104 387.793C228.192 347.473 243.136 327.361 261.6 319.825C280.064 312.289 306.016 315.793 320.656 357.857Z" fill="#FFCFA4"/>
<path d="M311.2 352.209C310.144 352.369 309.136 352.337 308 352.401C306.916 352.618 305.792 352.471 304.8 351.985C304.511 351.772 304.302 351.469 304.207 351.124C304.111 350.779 304.134 350.411 304.272 350.081C304.643 349.47 305.168 348.967 305.794 348.622C306.42 348.276 307.125 348.101 307.84 348.113C309.295 347.929 310.767 348.294 311.968 349.137C312.234 349.342 312.434 349.62 312.544 349.938C312.655 350.255 312.67 350.598 312.588 350.924C312.507 351.25 312.332 351.545 312.086 351.773C311.839 352.001 311.531 352.153 311.2 352.209Z" fill="#263238"/>
<path d="M281.616 359.745C282.568 359.313 283.497 358.832 284.4 358.305C285.45 357.93 286.35 357.222 286.96 356.289C287.102 355.956 287.127 355.585 287.031 355.236C286.935 354.888 286.724 354.582 286.432 354.369C285.801 354.033 285.092 353.871 284.378 353.899C283.664 353.927 282.97 354.144 282.368 354.529C281.016 355.141 279.943 356.237 279.36 357.601C279.261 357.91 279.251 358.241 279.331 358.556C279.412 358.871 279.579 359.157 279.815 359.381C280.051 359.604 280.344 359.757 280.663 359.822C280.982 359.886 281.312 359.859 281.616 359.745Z" fill="#263238"/>
<path d="M298.943 393.648C299.756 394.375 300.798 394.794 301.887 394.832C303.007 394.555 304.054 394.043 304.959 393.328C304.978 393.315 304.999 393.307 305.022 393.307C305.044 393.306 305.067 393.312 305.086 393.324C305.105 393.336 305.119 393.354 305.128 393.374C305.137 393.395 305.14 393.418 305.135 393.44C304.84 394.135 304.364 394.738 303.756 395.186C303.148 395.634 302.431 395.909 301.679 395.984C301.026 395.966 300.392 395.754 299.86 395.375C299.327 394.996 298.919 394.468 298.687 393.856C298.591 393.696 298.815 393.568 298.943 393.648Z" fill="#263238"/>
<path d="M308.001 378.16C308.001 378.16 310.145 383.104 310.769 385.2C310.769 385.392 303.633 387.904 298.561 384.352C298.337 384.208 298.561 383.904 298.785 383.968C301.964 385.096 305.423 385.158 308.641 384.144C308.641 383.52 305.121 376.72 305.441 376.592C307.109 376.259 308.815 376.152 310.513 376.272C306.785 367.28 301.633 358.96 298.049 349.936C298.032 349.871 298.037 349.803 298.063 349.741C298.09 349.68 298.136 349.629 298.194 349.596C298.252 349.563 298.32 349.55 298.386 349.56C298.453 349.569 298.514 349.6 298.561 349.648C304.577 357.984 309.089 368.24 313.201 377.44C313.697 378.576 308.929 378.272 308.001 378.16Z" fill="#263238"/>
<path d="M308.848 385.12C308.061 387.156 306.767 388.957 305.088 390.352C304.166 391.062 303.05 391.475 301.888 391.536C299.296 391.632 298.576 389.44 298.448 387.408C298.4 386.336 298.475 385.263 298.672 384.208C301.881 385.586 305.445 385.905 308.848 385.12Z" fill="#263238"/>
<path d="M305.089 390.352C304.167 391.062 303.051 391.475 301.889 391.536C299.297 391.632 298.577 389.44 298.449 387.408C301.057 386.912 304.129 387.904 305.089 390.352Z" fill="#FFCFA4"/>
<path d="M285.795 371.121C285.682 371.455 285.514 371.769 285.299 372.049C285.137 372.282 284.926 372.477 284.679 372.618C284.433 372.759 284.158 372.843 283.875 372.865C282.115 373.041 281.011 371.409 280.547 369.665C280.547 369.537 280.547 369.441 280.643 369.521C281.555 370.273 282.579 371.025 283.539 370.657C284.195 370.417 284.595 369.713 285.027 369.057C285.195 369.774 285.453 370.468 285.795 371.121Z" fill="#263238"/>
<path d="M284.818 370.849C284.731 370.031 284.875 369.205 285.234 368.465C285.446 368.068 285.739 367.72 286.095 367.445C286.451 367.169 286.86 366.971 287.298 366.865C287.744 366.755 288.211 366.753 288.659 366.859C289.106 366.965 289.523 367.175 289.874 367.473C290.486 368.001 290.968 368.663 291.282 369.409C291.462 369.851 291.612 370.306 291.73 370.769C291.963 371.747 291.963 372.766 291.73 373.745C291.596 373.034 291.381 372.342 291.09 371.681C290.838 371.079 290.544 370.496 290.21 369.937C289.49 368.801 288.514 367.953 287.554 368.337C286.594 368.721 285.954 369.601 285.858 370.945C285.8 372.335 285.875 373.728 286.082 375.105C285.333 373.804 284.901 372.347 284.818 370.849Z" fill="#263238"/>
<path d="M313.731 362.048C313.986 362.293 314.285 362.488 314.611 362.624C314.862 362.739 315.135 362.799 315.411 362.799C315.687 362.799 315.96 362.739 316.211 362.624C317.811 361.936 318.003 359.968 317.587 358.224C317.587 358.096 317.475 358.048 317.427 358.224C316.995 359.312 316.451 360.464 315.443 360.608C314.702 360.602 313.981 360.367 313.379 359.936C313.579 360.624 313.697 361.333 313.731 362.048Z" fill="#263238"/>
<path d="M314.401 361.345C314.077 360.588 313.551 359.935 312.881 359.457C312.504 359.205 312.078 359.037 311.631 358.962C311.185 358.888 310.727 358.909 310.289 359.025C309.845 359.147 309.437 359.372 309.095 359.68C308.753 359.988 308.488 360.372 308.321 360.801C308.04 361.557 307.942 362.368 308.033 363.169C308.09 363.649 308.181 364.125 308.305 364.593C308.542 365.569 309.008 366.474 309.665 367.233C309.432 366.544 309.281 365.829 309.217 365.105C309.178 364.455 309.178 363.803 309.217 363.153C309.297 361.825 309.745 360.609 310.737 360.417C311.729 360.225 312.753 360.769 313.489 361.889C314.207 363.076 314.807 364.329 315.281 365.633C315.339 364.153 315.037 362.682 314.401 361.345Z" fill="#263238"/>
<path d="M249.793 385.472C258.753 383.024 253.777 362.32 253.777 362.32C253.777 362.32 268.177 355.52 271.841 343.536C271.841 343.536 269.969 353.584 264.977 358.816C264.129 359.696 294.209 348.528 290.945 324.096C290.945 324.096 301.585 346.272 316.913 347.376C317.649 347.376 309.297 326.576 303.457 322.832C300.093 320.627 296.458 318.868 292.641 317.6C281.555 313.071 269.134 313.071 258.049 317.6C239.809 325.312 232.593 348.48 233.297 357.024C234.657 373.856 245.601 386.64 249.793 385.472Z" fill="#263238"/>
<path d="M266.097 359.073C282.737 353.937 293.297 339.697 290.241 322.129C290.237 322.038 290.263 321.949 290.317 321.875C290.37 321.802 290.446 321.749 290.534 321.724C290.621 321.7 290.714 321.707 290.798 321.742C290.881 321.778 290.95 321.841 290.993 321.921C297.825 338.785 282.305 356.497 266.017 359.409C265.617 359.489 265.697 359.201 266.097 359.073Z" fill="#263238"/>
<path d="M249.567 384.512C257.471 377.44 256.527 367.888 254.783 358.4C254.783 358.128 255.199 358 255.279 358.272C257.807 367.376 259.055 379.072 250.095 385.184C250.005 385.235 249.9 385.253 249.798 385.233C249.697 385.213 249.606 385.157 249.542 385.076C249.478 384.994 249.445 384.893 249.45 384.789C249.454 384.686 249.496 384.587 249.567 384.512Z" fill="#263238"/>
<path d="M290.16 320.513C290.168 320.496 290.18 320.481 290.196 320.471C290.211 320.461 290.229 320.455 290.248 320.455C290.267 320.455 290.285 320.461 290.301 320.471C290.316 320.481 290.329 320.496 290.336 320.513C294.912 329.617 299.568 345.777 312.56 344.993C312.619 345.007 312.671 345.041 312.709 345.089C312.746 345.137 312.767 345.196 312.767 345.257C312.767 345.317 312.746 345.376 312.709 345.424C312.671 345.472 312.619 345.506 312.56 345.521C300.224 347.345 291.456 330.817 290.16 320.513Z" fill="#263238"/>
<path d="M256.946 385.76C256.946 385.76 244.146 374.672 238.85 379.584C233.554 384.496 245.602 402.24 253.474 403.088C254.474 403.268 255.501 403.244 256.492 403.016C257.483 402.789 258.417 402.364 259.239 401.766C260.061 401.168 260.754 400.41 261.276 399.537C261.797 398.665 262.137 397.696 262.274 396.688L256.946 385.76Z" fill="#FFCFA4"/>
<path d="M242.401 384.593C242.375 384.593 242.351 384.603 242.333 384.621C242.315 384.639 242.305 384.663 242.305 384.689C242.305 384.714 242.315 384.739 242.333 384.757C242.351 384.775 242.375 384.785 242.401 384.785C247.953 385.553 251.777 389.585 254.865 393.921C252.897 392.433 250.609 391.937 248.561 394.353C248.449 394.481 248.561 394.641 248.769 394.577C249.581 394.073 250.529 393.833 251.484 393.89C252.438 393.948 253.351 394.299 254.097 394.897C255.348 395.9 256.485 397.037 257.489 398.289C257.825 398.689 258.577 398.289 258.289 397.761V397.665C256.801 391.201 249.473 383.489 242.401 384.593Z" fill="#263238"/>
<path d="M289.825 431.312L281.537 450.912L256.545 427.696L249.441 435.584C249.441 435.584 273.633 473.504 273.825 471.712L282.273 454.848L293.793 466.896L293.377 437.152L289.825 431.312Z" fill="#EBEBEB"/>
<path d="M294.431 452.193C294.191 447.281 294.095 442.321 293.631 437.425C293.631 437.265 293.343 437.169 293.295 437.425C292.239 442.145 293.295 460.913 293.119 465.409C292.639 464.881 282.415 454.785 282.319 454.945C280.495 457.617 274.319 469.905 273.871 471.025C270.191 464.625 253.631 441.697 249.231 435.649C249.203 435.623 249.168 435.608 249.13 435.604C249.092 435.601 249.054 435.61 249.022 435.629C248.989 435.649 248.964 435.679 248.95 435.714C248.936 435.749 248.934 435.788 248.943 435.825C252.143 442.545 273.295 473.521 273.599 473.441C276.843 467.62 279.781 461.633 282.399 455.505C284.127 457.681 294.415 469.057 294.463 468.305C294.732 462.937 294.721 457.559 294.431 452.193Z" fill="#263238"/>
<path d="M349.298 585.009C337.01 571.649 350.146 539.329 368.162 485.521C371.362 476.081 440.962 463.889 440.434 474.513C439.778 487.905 418.29 547.713 409.634 561.697C392.594 589.249 363.634 600.609 349.298 585.009Z" fill="#FFCFA4"/>
<path d="M430.162 510.209C437.81 493.425 447.106 469.137 444.45 461.121C441.666 452.721 430.69 423.569 425.954 417.617C421.218 411.665 400.69 384.193 393.954 383.921C388.514 383.697 386.578 397.153 396.29 410.337C404.802 421.937 408.018 429.729 410.37 433.185C412.722 436.641 413.922 452.385 408.77 455.793C405.73 457.761 395.538 455.889 391.954 450.417C388.37 444.945 393.442 434.161 390.658 425.793C387.874 417.425 377.362 411.553 375.026 413.921C372.69 416.289 375.25 419.713 374.53 432.337C374.066 440.449 365.154 454.993 366.194 470.129C366.722 477.729 364.914 495.825 364.914 495.825L430.162 510.209Z" fill="#FFCFA4"/>
<path d="M387.906 418.129C386.216 416.673 384.968 414.771 384.306 412.641C384.095 411.716 384.15 410.751 384.466 409.857C384.661 409.383 384.926 408.941 385.25 408.545C385.554 408.193 386.034 407.665 386.53 407.633C386.541 407.633 386.551 407.631 386.561 407.627C386.571 407.623 386.579 407.617 386.587 407.609C386.594 407.602 386.6 407.593 386.604 407.583C386.608 407.574 386.61 407.563 386.61 407.553C386.61 407.542 386.608 407.532 386.604 407.522C386.6 407.512 386.594 407.504 386.587 407.496C386.579 407.489 386.571 407.483 386.561 407.479C386.551 407.475 386.541 407.473 386.53 407.473C386.257 407.603 385.973 407.71 385.682 407.793C385.444 407.891 385.223 408.026 385.026 408.193C384.613 408.494 384.265 408.874 384.002 409.313C383.44 410.279 383.22 411.406 383.378 412.513C383.631 413.751 384.165 414.914 384.939 415.913C385.713 416.912 386.706 417.719 387.842 418.273C387.857 418.27 387.872 418.263 387.884 418.254C387.896 418.244 387.906 418.232 387.912 418.217C387.918 418.203 387.921 418.188 387.92 418.172C387.919 418.157 387.914 418.142 387.906 418.129Z" fill="#263238"/>
<path d="M383.333 414.428L381.734 414.497L383.267 450.176L384.866 450.107L383.333 414.428Z" fill="white"/>
<path d="M443.249 455.649C443.249 444.849 440.705 428.449 431.313 415.809C424.913 407.249 387.105 403.009 384.449 409.025C381.793 415.041 386.705 418.241 394.561 422.017C397.425 423.393 414.737 427.281 415.249 431.761C415.675 437.704 415.723 443.668 415.393 449.617L436.625 448.737L443.249 455.649Z" fill="#FFCFA4"/>
<path d="M444 453.2C443.859 439.713 439.439 426.62 431.376 415.808C424.976 407.248 390.704 410.736 388.048 416.8C385.392 422.864 392.192 427.808 401.76 430.048C404.864 430.784 417.152 430.192 417.68 434.672C418.432 441.072 419.424 450.336 419.424 450.336L437.936 451.936L444 453.2Z" fill="#FFCFA4"/>
<path d="M419.375 447.393C419.375 445.681 419.375 445.089 419.375 443.361C419.375 441.633 419.263 439.953 419.087 438.241C419.056 436.747 418.769 435.269 418.239 433.873C417.569 432.605 416.501 431.594 415.199 430.993C412.319 429.505 408.799 429.681 405.599 429.537C402.079 429.377 395.215 428.385 391.407 425.345C390.317 424.567 389.401 423.569 388.719 422.417C388.182 421.586 387.857 420.635 387.775 419.649C387.919 415.521 392.303 413.489 396.127 412.497C403.215 410.641 410.991 410.897 418.223 411.761C419.999 411.953 421.759 412.209 423.535 412.449C425.588 412.599 427.585 413.189 429.391 414.177C432.239 415.953 435.071 421.809 435.967 423.601C435.967 423.729 436.223 423.601 436.159 423.473C435.103 421.265 432.959 414.977 428.287 412.273C426.457 411.454 424.496 410.966 422.495 410.833C420.463 410.513 418.415 410.257 416.367 410.049C412.373 409.601 408.35 409.472 404.335 409.665C400.419 409.694 396.541 410.443 392.895 411.873C391.323 412.548 389.964 413.637 388.961 415.023C387.958 416.409 387.349 418.04 387.199 419.745C387.199 422.625 389.487 424.817 390.607 425.761C391.72 426.668 392.946 427.426 394.255 428.017C397.289 429.143 400.402 430.046 403.567 430.721C406.687 431.313 409.967 431.057 413.039 431.905C413.777 432.082 414.472 432.404 415.084 432.852C415.696 433.299 416.214 433.864 416.607 434.513C417.201 435.877 417.589 437.322 417.759 438.801C418.407 441.569 418.793 444.392 418.911 447.233C418.895 448.049 419.391 448.113 419.375 447.393Z" fill="#263238"/>
<path d="M444.531 466.849C445.059 462.049 450.931 448.321 450.931 441.841C450.931 435.361 447.827 410.913 441.171 407.649C432.819 403.569 432.019 422.801 432.419 431.201C432.819 439.601 425.891 448.993 425.891 448.993L441.571 451.233L444.531 466.849Z" fill="#FFCFA4"/>
<path d="M432.801 417.969C433.089 420.721 433.089 423.569 433.105 426.353C433.246 429.02 433.192 431.694 432.945 434.353C432.499 436.94 431.634 439.436 430.385 441.745C429.793 442.897 429.137 444.001 428.449 445.105C427.761 446.209 426.849 447.425 426.113 448.641C426.033 448.769 425.825 448.641 425.905 448.529C427.116 446.261 428.184 443.921 429.105 441.521C430.122 439.049 430.841 436.466 431.249 433.825C432.017 428.577 431.665 423.233 432.385 417.985C432.497 417.729 432.801 417.777 432.801 417.969Z" fill="#263238"/>
<path d="M424.8 450.576C420.304 458.176 411.856 462.864 403.76 465.792C395.498 468.478 388.219 473.556 382.848 480.384C387.488 472.754 394.717 467.047 403.216 464.304C411.216 461.344 419.312 457.296 424.8 450.576Z" fill="#263238"/>
<path d="M361.795 496.049L430.115 521.377L424.579 538.977C422.595 542.721 424.307 551.457 421.699 555.729C412.355 571.041 395.219 583.521 380.099 590.561C365.379 597.457 348.387 594.129 344.451 575.585C339.667 552.801 361.795 496.049 361.795 496.049Z" fill="#2466FF"/>
<path d="M345.328 553.329C348.144 533.649 352.96 513.937 361.776 496.049C355.104 514.449 350.224 534.321 345.328 553.329Z" fill="#263238"/>
<path d="M360.432 516.864C364.416 517.856 368.352 519.2 372.272 520.416C376.192 521.632 380.112 522.912 384.016 524.224C391.824 526.864 399.6 529.536 407.36 532.304C409.472 533.072 411.584 533.824 413.76 534.624C415.936 535.424 418.16 536.608 420.416 537.44C420.454 537.453 420.486 537.48 420.504 537.516C420.522 537.552 420.525 537.594 420.512 537.632C420.499 537.67 420.472 537.702 420.436 537.72C420.4 537.738 420.358 537.741 420.32 537.728C418.4 537.104 416.384 536.768 414.448 536.128C412.512 535.488 410.432 534.896 408.432 534.256C404.528 532.976 400.608 531.68 396.704 530.368C388.912 527.76 381.12 525.088 373.408 522.224C369.056 520.624 364.608 519.024 360.352 517.2C360.329 517.175 360.312 517.145 360.304 517.112C360.295 517.079 360.295 517.044 360.303 517.011C360.31 516.978 360.326 516.947 360.349 516.921C360.372 516.896 360.4 516.876 360.432 516.864Z" fill="#263238"/>
<path d="M169.65 623.808C183.058 634.624 208.05 634.24 276.162 628.192C285.586 627.36 297.57 559.392 287.458 559.696C274.658 560.176 225.474 564.768 221.858 565.552C191.874 572.224 160.546 616.464 169.65 623.808Z" fill="#FFCFA4"/>
<path d="M260.529 566.24C260.529 566.24 285.361 555.456 300.161 553.824C319.985 551.648 337.985 557.936 345.377 561.024C360.801 567.424 393.633 593.712 387.713 604.496C382.369 614.24 350.161 585.712 350.161 585.712C350.161 585.712 387.793 609.376 379.201 620C370.609 630.624 335.105 595.328 335.105 595.328C335.105 595.328 373.217 620.512 362.625 630C354.625 637.168 320.673 607.056 320.673 607.056C320.673 607.056 353.297 628.928 345.377 636.656C336.625 645.2 303.553 619.376 303.553 619.376C280.129 635.632 261.953 633.264 249.489 630.448C246.465 629.696 260.529 566.24 260.529 566.24Z" fill="#FFCFA4"/>
<path d="M337.683 576.704C342.195 579.312 346.787 581.936 351.059 584.96C355.331 587.984 359.507 591.136 363.475 594.56C368.752 598.902 373.519 603.829 377.683 609.248C369.603 600.16 354.467 589.136 350.195 586.128C345.923 583.12 341.827 579.904 337.555 576.896C337.443 576.8 337.571 576.64 337.683 576.704Z" fill="#263238"/>
<path d="M326.513 591.937C332.145 595.521 337.857 598.881 343.329 602.737C348.801 606.593 353.617 610.737 358.769 614.849C359.169 615.185 358.865 615.281 358.449 614.977C353.121 610.993 347.889 607.729 342.449 603.777C337.009 599.825 331.857 595.777 326.353 592.033C326.337 592.001 326.433 591.873 326.513 591.937Z" fill="#263238"/>
<path d="M314.592 603.28C323.472 608.336 331.408 615.024 339.04 621.76C339.424 622.096 339.041 622.192 338.609 621.872C330.609 615.584 324.352 610.576 314.416 603.584C314.256 603.472 314.4 603.168 314.592 603.28Z" fill="#263238"/>
<path d="M265.039 558.721L242.799 637.809C242.799 637.809 236.847 637.809 226.511 637.153C226.511 637.153 213.359 641.953 207.743 641.329C189.839 639.377 170.943 629.121 167.743 621.809C161.343 607.409 193.231 573.441 214.719 566.017C223.679 562.929 265.039 558.721 265.039 558.721Z" fill="#2466FF"/>
<path d="M264.305 561.361L264.913 558.689L265.057 558.865C258.017 559.873 250.977 560.849 243.969 561.937C236.961 563.025 229.937 564.065 223.009 565.489C219.559 566.122 216.154 566.983 212.817 568.065C209.499 569.258 206.287 570.73 203.217 572.465C197.123 576.051 191.631 580.576 186.945 585.873C191.116 580.021 196.381 575.033 202.449 571.185C205.469 569.248 208.688 567.639 212.049 566.385C215.458 565.225 218.937 564.284 222.465 563.569C229.489 562.177 236.545 561.185 243.601 560.369C250.657 559.553 257.777 558.977 264.881 558.641H265.089V558.833L264.305 561.361Z" fill="#263238"/>
<path d="M244 568.977C243.136 572.993 241.92 576.977 240.8 580.929C239.68 584.881 238.56 588.849 237.36 592.785C234.981 600.657 232.533 608.513 230.016 616.353C229.328 618.497 228.624 620.641 227.904 622.753C227.184 624.865 226.048 627.217 225.296 629.505C225.283 629.543 225.256 629.574 225.22 629.592C225.184 629.61 225.142 629.613 225.104 629.601C225.066 629.588 225.034 629.561 225.016 629.525C224.998 629.489 224.995 629.447 225.008 629.409C225.568 627.473 225.84 625.441 226.352 623.489C226.864 621.537 227.456 619.441 228.048 617.425C229.2 613.478 230.368 609.531 231.552 605.585C233.936 597.713 236.352 589.825 238.976 582.033C240.464 577.633 241.84 573.137 243.584 568.833C243.593 568.805 243.608 568.78 243.627 568.759C243.646 568.737 243.67 568.719 243.696 568.707C243.722 568.694 243.75 568.687 243.779 568.685C243.808 568.683 243.836 568.687 243.864 568.697C243.891 568.706 243.916 568.721 243.938 568.74C243.96 568.759 243.977 568.782 243.99 568.808C244.002 568.834 244.01 568.863 244.012 568.892C244.013 568.92 244.009 568.949 244 568.977Z" fill="#263238"/>
<path d="M156.383 832.912C376.527 831.936 623.471 831.92 843.615 832.912C623.471 833.904 376.527 833.888 156.383 832.912Z" fill="#263238"/>
<path d="M753.681 634.784H246.305V647.472H753.681V634.784Z" fill="#2466FF"/>
<path opacity="0.4" d="M753.681 634.784H246.305V647.472H753.681V634.784Z" fill="black"/>
<path d="M718.353 647.473H281.633V682.977H718.353V647.473Z" fill="#2466FF"/>
<path opacity="0.4" d="M718.353 647.473H281.633V682.977H718.353V647.473Z" fill="black"/>
<path opacity="0.2" d="M718.369 653.073L281.633 659.617V647.473H718.369V653.073Z" fill="black"/>
<path d="M531.935 833.057H468.047L452.047 682.977H547.935L531.935 833.057Z" fill="#2466FF"/>
<path opacity="0.4" d="M531.935 833.057H468.047L452.047 682.977H547.935L531.935 833.057Z" fill="black"/>
<path opacity="0.2" d="M547.247 689.537L453.599 697.377L452.047 682.977H547.935L547.247 689.537Z" fill="black"/>
</svg>
