<svg width="1000" height="1000" viewBox="0 0 1000 1000" fill="none" xmlns="http://www.w3.org/2000/svg">
<path d="M743.31 720.111H799.566V702.207H743.31V720.111Z" fill="#EBEBEB"/>
<path d="M606.385 543.488H662.641V525.584H606.385V543.488Z" fill="#EBEBEB"/>
<path d="M774.688 742.673L803.008 742.209L817.008 742.017H830.944L830.208 742.737V724.833L831.008 725.633L802.88 725.537L788.816 725.393L774.752 725.217L775.136 724.833L774.688 742.673ZM774.688 742.673L774.32 724.769V724.401H774.704L788.768 724.225L802.832 724.081L830.96 723.969H831.76V724.769V742.673V743.409H831.04H816.848L802.72 743.217L774.688 742.673Z" fill="#EBEBEB"/>
<path d="M417.583 306.192L445.903 305.728L459.903 305.536L473.839 305.456L473.119 306.192V288.288L473.919 289.088L445.791 288.976L431.727 288.848L417.663 288.672L418.047 288.288L417.583 306.192ZM417.583 306.192L417.215 288.288V287.92H417.599L431.663 287.744L445.727 287.616L473.855 287.504H474.655V288.304V306.208V306.944H473.919L459.727 306.864L445.599 306.672L417.583 306.192Z" fill="#EBEBEB"/>
<path d="M448.978 328.8L477.298 328.336L491.282 328.144H505.218L504.498 328.88L504.418 310.976L505.218 311.776L477.106 311.664L463.042 311.536L448.978 311.36L449.346 310.976L448.978 328.8ZM448.978 328.8L448.594 310.896V310.528H448.994L463.058 310.352L477.122 310.224L505.234 310.112H506.05V310.912V328.816V329.552H505.314L491.138 329.472L476.994 329.28L448.978 328.8Z" fill="#EBEBEB"/>
<path d="M480.224 306.192H536.48V288.288H480.224V306.192Z" fill="#EBEBEB"/>
<path d="M169.056 742.688H225.312V724.783H169.056V742.688Z" fill="#EBEBEB"/>
<path d="M200.431 189.808H256.688V171.904H200.431V189.808Z" fill="#EBEBEB"/>
<path d="M169.056 212.368L197.376 211.904L211.376 211.712H225.312L224.576 212.432V194.528L225.376 195.328L197.248 195.216L183.2 195.024L169.136 194.848L169.44 194.4L169.056 212.368ZM169.056 212.368L168.672 194.4V194.032H169.056L183.2 193.92L197.264 193.776L225.392 193.664H226.192V194.4V212.304V213.04H225.472H211.28L197.152 212.848L169.056 212.368Z" fill="#EBEBEB"/>
<path d="M743.314 189.792L771.634 189.328L785.634 189.136H799.57L798.834 189.856V171.952L799.634 172.752L771.506 172.64L757.442 172.512L743.378 172.336L743.762 171.952L743.314 189.792ZM743.314 189.792L742.93 171.888V171.52H743.314L757.378 171.344L771.442 171.2L799.57 171.088H800.37V171.888L800.29 189.792V190.528H799.57H785.378L771.25 190.336L743.314 189.792Z" fill="#EBEBEB"/>
<path d="M602.031 169.04V481.04H804.799V169.04H602.031ZM797.311 473.536H609.503V176.528H797.311V473.536Z" fill="#EBEBEB"/>
<path d="M797.312 176.528H609.504V473.536H797.312V176.528Z" fill="white"/>
<path d="M609.504 328.768H797.312V321.28H609.504V328.768Z" fill="#EBEBEB"/>
<path d="M588.254 502.48H818.574V481.008H588.254V502.48Z" fill="#DBDBDB"/>
<path d="M609.504 176.528H797.312V368.672H609.504V176.528ZM790.384 183.456H616.432V361.744H790.384V183.456Z" fill="#DBDBDB"/>
<path d="M737.377 176.528H733.633V361.76H737.377V176.528Z" fill="#DBDBDB"/>
<path d="M673.185 176.528H669.441V361.76H673.185V176.528Z" fill="#DBDBDB"/>
<path d="M195.215 169.04V481.04H397.983V169.04H195.215ZM390.511 473.536H202.703V176.528H390.511V473.536Z" fill="#EBEBEB"/>
<path d="M390.511 176.528H202.703V473.536H390.511V176.528Z" fill="white"/>
<path d="M202.704 328.768H390.512V321.28H202.704V328.768Z" fill="#EBEBEB"/>
<path d="M181.422 502.48H411.742V481.008H181.422V502.48Z" fill="#DBDBDB"/>
<path d="M202.688 176.528H390.495V368.672H202.688V176.528ZM383.487 183.456H209.616V361.744H383.567L383.487 183.456Z" fill="#DBDBDB"/>
<path d="M330.56 176.528H326.816V361.76H330.56V176.528Z" fill="#DBDBDB"/>
<path d="M266.385 176.528H262.641V361.76H266.385V176.528Z" fill="#DBDBDB"/>
<path d="M166.32 811.937L249.744 811.553L333.168 811.409L500 811.137L666.832 811.409L750.256 811.537L833.68 811.937L750.256 812.321L666.832 812.465L500 812.737L333.168 812.465L249.744 812.321L166.32 811.937Z" fill="#263238"/>
<path d="M832.688 576.943H629.664V605.759H832.688V576.943Z" fill="#455A64"/>
<path d="M827.856 605.76H634.512V615.12H827.856V605.76Z" fill="#455A64"/>
<path d="M827.856 605.76H634.512V608.864H827.856V605.76Z" fill="#263238"/>
<path d="M636.416 812.736H628.688L651.183 615.104H670.912L636.416 812.736Z" fill="#455A64"/>
<path d="M670.912 615.119L668.608 628.335H649.68L651.184 615.119H670.912Z" fill="#263238"/>
<path d="M825.953 812.736H833.681L811.185 615.104H791.441L825.953 812.736Z" fill="#455A64"/>
<path d="M791.441 615.119L793.761 628.335H812.673L811.169 615.119H791.441Z" fill="#263238"/>
<path d="M780.944 693.713C779.383 699.419 778.349 705.257 777.856 711.153C778.016 711.441 777.984 712.513 777.856 712.225C777.856 713.185 776.368 713.009 776.368 712.065C776.368 711.441 776.368 710.833 776.368 710.225C772.96 706.001 768.016 703.329 764.016 699.649C760.797 696.763 758.452 693.033 757.248 688.881C753.936 677.441 757.04 665.329 753.056 653.937C749.616 644.113 743.456 635.569 738.224 626.737C732.72 617.313 728.624 607.425 728.24 596.337C727.92 587.889 728.928 576.625 735.36 570.305C742.176 563.585 750.64 568.625 755.856 574.609C770.992 591.985 778 613.937 780.832 636.385C782.432 648.801 784.032 661.313 783.632 673.857C783.401 680.549 782.501 687.201 780.944 693.713Z" fill="#2466FF"/>
<path d="M777.936 715.712C778.758 703.987 778.619 692.214 777.52 680.512C777.52 680.512 777.52 680.432 777.52 680.384C777.712 670.864 778.464 661.392 778.096 651.856C777.637 641.557 776.234 631.322 773.904 621.28C773.911 621.265 773.913 621.249 773.912 621.233C773.911 621.217 773.905 621.202 773.896 621.189C773.888 621.175 773.876 621.165 773.862 621.157C773.848 621.149 773.832 621.145 773.816 621.145C773.8 621.145 773.785 621.149 773.771 621.157C773.757 621.165 773.745 621.175 773.736 621.189C773.727 621.202 773.722 621.217 773.721 621.233C773.719 621.249 773.722 621.265 773.728 621.28C775.575 631.151 776.683 641.147 777.04 651.184C777.232 656.517 777.19 661.893 776.912 667.312C776.816 669.056 776.656 670.816 776.528 672.576C772.574 645.865 762.921 620.316 748.224 597.664C748.032 597.36 747.472 597.664 747.664 598.016C758.186 615.241 765.98 633.991 770.768 653.6C763.488 640.112 752.48 629.024 744.32 616.064C744.32 616.064 744.16 616.064 744.208 616.144C751.536 630.544 763.632 641.952 771.408 656.144C772.736 661.936 773.84 667.792 774.608 673.664C775.698 681.737 776.286 689.87 776.368 698.016C771.936 689.728 767.328 681.808 763.696 673.04C763.6 672.8 763.264 672.96 763.344 673.2C766.432 682.304 770.576 692.112 776.384 699.872C776.384 705.632 776.24 711.408 775.904 717.152C775.008 732.528 772.384 747.68 771.104 763.008C771.094 763.101 771.12 763.195 771.179 763.268C771.238 763.342 771.323 763.389 771.416 763.4C771.51 763.41 771.603 763.384 771.677 763.325C771.75 763.266 771.798 763.181 771.808 763.088C774.913 747.451 776.961 731.624 777.936 715.712Z" fill="#263238"/>
<path d="M761.616 597.202C761.616 597.09 761.392 597.202 761.44 597.282C764.24 605.042 765.84 612.898 767.84 620.85C767.853 620.926 767.896 620.994 767.959 621.039C768.022 621.084 768.1 621.102 768.176 621.09C768.253 621.077 768.321 621.034 768.366 620.971C768.411 620.908 768.429 620.83 768.416 620.754C767.616 612.69 764.736 604.642 761.616 597.202Z" fill="#263238"/>
<path d="M832.88 629.73C831.035 634.284 828.897 638.715 826.48 642.994C821.424 652.162 816.16 660.594 815.28 671.266C815.119 676.045 814.437 680.793 813.248 685.426C811.921 689.379 810.018 693.115 807.6 696.514C802.128 704.514 795.28 711.378 790.192 719.65C784.917 728.289 781.019 737.698 778.64 747.538C778.512 748.066 777.664 747.922 777.792 747.394C777.792 747.394 777.792 747.314 777.792 747.266C777.785 747.248 777.781 747.229 777.781 747.21C777.781 747.19 777.785 747.171 777.792 747.154C776.992 724.242 778.816 701.138 785.792 679.186C788.877 669.531 792.586 660.087 796.896 650.914C800.64 642.914 805.296 635.298 811.872 629.362C816.144 625.522 825.392 618.162 831.472 622.082C834.256 623.938 834.032 626.866 832.88 629.73Z" fill="#2466FF"/>
<path d="M809.856 681.681C805.821 688.35 801.375 694.763 796.544 700.881C794.32 703.777 792.064 706.657 789.856 709.553C788.8 710.929 787.632 712.289 786.656 713.761L788.48 706.401C791.44 694.833 794.288 683.153 798.688 672.017C803.201 661.234 808.517 650.804 814.592 640.817C814.752 640.561 814.32 640.369 814.176 640.625C809.376 648.625 804.416 656.529 800.336 664.929C798.095 669.608 796.135 674.417 794.464 679.329C796.33 668.877 798.944 658.573 802.288 648.497C802.288 648.417 802.192 648.353 802.144 648.497C797.779 658.672 795.042 669.471 794.032 680.497C793.04 683.473 792.123 686.475 791.28 689.505C787.664 702.305 784.496 715.281 781.568 728.289C781.512 719.743 782.251 711.21 783.776 702.801C783.765 702.769 783.745 702.741 783.718 702.721C783.691 702.701 783.658 702.691 783.624 702.691C783.59 702.691 783.557 702.701 783.53 702.721C783.503 702.741 783.483 702.769 783.472 702.801C781.238 711.569 780.491 720.65 781.264 729.665C780.144 734.609 779.072 739.553 778.064 744.513C775.808 755.073 773.04 765.825 771.664 776.513C771.659 776.54 771.659 776.568 771.664 776.595C771.67 776.623 771.681 776.649 771.697 776.672C771.712 776.695 771.732 776.714 771.755 776.73C771.779 776.745 771.805 776.756 771.832 776.761C771.859 776.766 771.887 776.766 771.915 776.76C771.942 776.755 771.968 776.744 771.991 776.728C772.014 776.713 772.034 776.693 772.049 776.669C772.064 776.646 772.075 776.62 772.08 776.593C773.68 770.801 774.608 764.817 775.888 758.993C777.168 753.169 778.512 747.265 779.872 741.393C781.856 732.865 783.952 724.353 786.064 715.793C787.488 712.689 790.24 709.921 792.288 707.313C794.544 704.449 796.8 701.569 798.992 698.657C803.113 693.27 806.805 687.567 810.032 681.601C810.128 681.649 809.92 681.553 809.856 681.681Z" fill="#263238"/>
<path d="M810.829 671.872C805.782 678.313 801.412 685.256 797.789 692.592C797.789 692.672 797.901 692.784 797.949 692.688C802.333 685.808 806.653 678.88 811.037 672C811.101 671.888 810.909 671.776 810.829 671.872Z" fill="#263238"/>
<path d="M713.278 651.456C716.254 656.576 719.678 662.656 718.366 668.848C717.55 672.736 714.702 675.888 714.19 679.856C713.038 688.608 721.774 694.4 728.078 698.528C743.822 708.864 765.39 718.064 768.254 739.152C768.366 739.888 769.662 739.712 769.566 738.976C769.574 738.929 769.574 738.88 769.566 738.832C769.566 738.832 769.646 738.832 769.646 738.72C771.706 728.073 771.603 717.119 769.342 706.512C767.006 695.648 762.254 685.872 756.654 676.336C747.182 660.176 737.166 643.632 722.846 631.248C718.878 627.84 710.766 621.648 707.598 629.408C704.43 637.168 709.598 645.216 713.278 651.456Z" fill="#2466FF"/>
<path d="M727.677 685.714C738.109 697.01 754.701 703.314 763.677 715.986C758.664 696.731 749.186 678.928 736.013 664.018C735.975 663.98 735.945 663.935 735.924 663.885C735.904 663.836 735.893 663.783 735.893 663.73C735.893 663.676 735.904 663.623 735.924 663.574C735.945 663.524 735.975 663.479 736.013 663.442C736.051 663.404 736.095 663.374 736.145 663.353C736.194 663.333 736.247 663.322 736.301 663.322C736.354 663.322 736.407 663.333 736.457 663.353C736.506 663.374 736.551 663.404 736.589 663.442C746.19 672.773 753.87 683.894 759.197 696.178C756.715 687.599 753.454 679.265 749.453 671.282C749.429 671.221 749.427 671.154 749.448 671.092C749.469 671.031 749.512 670.979 749.568 670.946C749.624 670.913 749.69 670.901 749.754 670.913C749.818 670.925 749.876 670.959 749.917 671.01C754.871 679.731 758.413 689.181 760.413 699.01C772.253 727.65 773.341 761.25 770.861 791.442C770.861 791.874 770.173 791.89 770.189 791.442C770.861 767.65 770.477 743.442 764.781 720.194L764.397 718.754C754.637 705.138 738.125 698.818 727.501 685.89C727.389 685.762 727.565 685.602 727.677 685.714Z" fill="#263238"/>
<path d="M725.262 676C730.734 681.024 736.126 686.176 741.614 691.184C741.614 691.184 741.614 691.344 741.534 691.296C735.329 687.112 729.744 682.076 724.942 676.336C724.914 676.291 724.902 676.238 724.908 676.186C724.913 676.133 724.936 676.084 724.972 676.045C725.009 676.007 725.057 675.982 725.109 675.974C725.162 675.965 725.215 675.975 725.262 676Z" fill="#263238"/>
<path d="M724.4 654.24C729.245 662.178 734.725 669.712 740.784 676.768C740.864 676.864 740.784 677.008 740.64 676.912C733.841 670.442 728.24 662.821 724.096 654.4C724.086 654.361 724.088 654.32 724.104 654.283C724.12 654.247 724.148 654.217 724.184 654.198C724.219 654.179 724.26 654.173 724.299 654.181C724.339 654.189 724.374 654.209 724.4 654.24Z" fill="#263238"/>
<path d="M749.055 812.737H797.023L790.559 748.193H756.447L749.055 812.737Z" fill="#455A64"/>
<path d="M755.23 758.689H791.615L790.558 748.193H756.43L755.23 758.689Z" fill="#263238"/>
<path d="M750.56 751.344H795.52V741.04H750.56V751.344Z" fill="#455A64"/>
<path d="M228.64 372.656H220V804.096H228.64V372.656Z" fill="#263238"/>
<path d="M371.653 220.09L166.32 425.423L172.43 431.532L377.762 226.2L371.653 220.09Z" fill="#263238"/>
<path d="M177.473 804.096V812.736H271.153V804.096H177.473Z" fill="#263238"/>
<path d="M378.641 251.936L407.601 224.736L380.337 202.592L358.641 222.976L378.641 251.936Z" fill="#2466FF"/>
<path opacity="0.1" d="M407.6 224.736L378.64 251.936L370.688 240.416L395.504 214.928L407.6 224.736Z" fill="black"/>
<path d="M375.646 297.36L453.79 223.92L416.462 203.824L357.902 258.864L375.646 297.36Z" fill="#2466FF"/>
<path opacity="0.6" d="M680.494 529.696C680.494 529.696 652.734 516.896 652.734 499.76C652.734 482.624 688.734 471.584 688.734 458.16C688.734 444.736 673.038 436.88 673.038 436.88C673.038 436.88 697.838 445.36 697.838 462.304C697.838 479.248 674.094 490.752 671.838 501.6C668.67 516.512 680.494 529.696 680.494 529.696Z" fill="#DBDBDB"/>
<path opacity="0.6" d="M679.197 529.696C679.197 529.696 706.973 519.648 706.973 506.16C706.973 492.672 670.877 484 670.877 473.472C670.877 462.944 686.589 456.8 686.589 456.8C686.589 456.8 661.773 463.456 661.773 476.784C661.773 490.112 688.973 499.28 690.989 510.096C693.005 520.912 679.197 529.696 679.197 529.696Z" fill="#DBDBDB"/>
<path d="M693.408 572.816H666.992V576.944H693.408V572.816Z" fill="#2466FF"/>
<path opacity="0.1" d="M693.408 572.816H666.992V575.536H693.408V572.816Z" fill="black"/>
<path d="M724.765 561.728C723.161 564.111 720.905 565.982 718.266 567.116C715.627 568.251 712.718 568.603 709.885 568.128C708.971 567.959 708.077 567.702 707.213 567.36C705.896 566.844 704.64 566.184 703.469 565.392L706.829 560.416C707.453 560.856 708.117 561.237 708.813 561.552C710.732 562.439 712.907 562.603 714.938 562.015C716.969 561.428 718.72 560.127 719.869 558.352C723.485 553.264 724.781 541.648 721.117 537.168C720.877 536.848 719.805 536.32 715.549 537.168C714.765 537.344 713.949 537.536 712.877 537.808C712.093 538.073 711.283 538.25 710.461 538.336L710.349 535.344L710.061 532.368C710.333 532.368 710.765 532.192 711.325 532.032C713.289 531.46 715.295 531.043 717.325 530.784C720.525 530.464 723.725 530.784 725.757 533.312C731.709 540.592 729.293 555.36 724.765 561.728Z" fill="#2466FF"/>
<path opacity="0.1" d="M706.829 560.385C707.453 560.825 708.117 561.205 708.813 561.521L707.213 567.329C705.896 566.813 704.64 566.153 703.469 565.361L706.829 560.385Z" fill="black"/>
<path opacity="0.1" d="M717.326 530.768L715.55 537.168C714.766 537.344 713.95 537.536 712.878 537.808C712.095 538.072 711.285 538.249 710.462 538.336L710.35 535.344L710.062 532.368C710.334 532.368 710.766 532.192 711.326 532.032C713.29 531.454 715.297 531.032 717.326 530.768Z" fill="black"/>
<path d="M645.07 522.992C645.07 522.992 645.294 524.96 645.742 528.064C645.822 528.528 645.886 529.056 645.966 529.568C646.286 531.696 646.702 534.224 647.166 536.928C647.177 537.088 647.177 537.248 647.166 537.408C647.87 541.296 648.766 545.52 649.71 549.52C649.71 549.696 649.822 549.872 649.854 550.032C650.126 551.104 650.414 552.16 650.702 553.232C650.99 554.304 651.31 555.248 651.614 556.192C652.181 557.933 652.854 559.638 653.63 561.296C659.102 572.624 666.75 573.888 671.486 573.888H688.798C693.598 573.888 701.182 572.624 706.638 561.296L707.134 560.192C707.262 559.92 707.374 559.632 707.486 559.344C707.598 559.056 707.726 558.752 707.838 558.448L708.078 557.808C709.216 554.592 710.161 551.312 710.91 547.984C710.955 547.848 710.992 547.709 711.022 547.568C711.022 547.568 711.022 547.472 711.022 547.408C711.358 546 711.662 544.576 711.95 543.168C712.446 540.864 712.894 538.576 713.262 536.416C713.422 535.424 713.598 534.448 713.758 533.52C713.758 533.248 713.838 533.008 713.886 532.752C713.982 532.128 714.094 531.52 714.174 530.928C714.254 530.336 714.334 529.792 714.414 529.328C714.494 528.864 714.558 528.272 714.638 527.728C715.054 524.864 715.262 523.056 715.262 523.056L645.07 522.992Z" fill="#2466FF"/>
<path opacity="0.1" d="M647.199 537.407C647.903 541.295 648.799 545.519 649.743 549.519C650.191 549.519 650.623 549.663 651.055 549.759C653.17 550.253 655.181 551.12 656.991 552.319C658.768 553.546 660.428 554.933 661.951 556.463C663.425 557.97 665.032 559.341 666.751 560.559C668.467 561.703 670.466 562.351 672.527 562.431C673.532 562.402 674.52 562.166 675.428 561.736C676.337 561.306 677.147 560.693 677.807 559.935C679.266 558.412 680.589 556.763 681.759 555.007C682.962 553.217 684.26 551.492 685.647 549.839C686.372 549.009 687.188 548.263 688.079 547.615C688.59 547.31 689.125 547.048 689.679 546.831C690.23 546.643 690.809 546.545 691.391 546.543C692.543 546.521 693.679 546.802 694.687 547.359C695.653 547.9 696.545 548.561 697.343 549.327C698.943 550.799 700.319 552.527 701.743 554.047C703.001 555.695 704.698 556.954 706.639 557.679C707.13 557.783 707.637 557.783 708.127 557.679C709.265 554.463 710.21 551.183 710.959 547.855C710.399 547.711 709.823 547.567 709.263 547.391C707.194 546.683 705.274 545.598 703.599 544.191C701.955 542.8 700.435 541.269 699.055 539.615C697.727 537.973 696.26 536.448 694.671 535.055C693.067 533.75 691.136 532.909 689.087 532.623C688.085 532.561 687.082 532.706 686.138 533.047C685.194 533.388 684.33 533.919 683.599 534.607C681.999 535.97 680.532 537.481 679.215 539.119C677.807 540.719 676.415 542.319 674.831 543.919C674.032 544.682 673.146 545.348 672.191 545.903C671.679 546.166 671.143 546.38 670.591 546.543C670.014 546.673 669.421 546.716 668.831 546.671C667.685 546.563 666.584 546.166 665.631 545.519C664.72 544.89 663.897 544.142 663.183 543.295C661.711 541.695 660.527 539.887 659.247 538.191C658.157 536.426 656.594 535.001 654.735 534.079C652.799 533.391 650.735 534.479 649.119 535.759C648.495 536.351 647.871 536.799 647.199 537.407Z" fill="black"/>
<path d="M647.199 536.928C647.209 537.088 647.209 537.248 647.199 537.408C647.823 536.864 648.447 536.352 649.087 535.808C650.687 534.528 652.767 533.44 654.703 534.128C656.562 535.05 658.125 536.475 659.215 538.24C660.495 539.936 661.679 541.744 663.151 543.344C663.865 544.191 664.688 544.938 665.599 545.568C666.552 546.215 667.653 546.611 668.799 546.72C669.389 546.765 669.982 546.722 670.559 546.592C671.111 546.429 671.647 546.215 672.159 545.952C673.114 545.397 674 544.731 674.799 543.968C676.399 542.464 677.775 540.768 679.183 539.168C680.5 537.53 681.967 536.019 683.567 534.656C684.298 533.968 685.162 533.437 686.106 533.096C687.05 532.754 688.053 532.61 689.055 532.672C691.104 532.958 693.035 533.799 694.639 535.104C696.228 536.496 697.695 538.022 699.023 539.664C700.403 541.318 701.923 542.849 703.567 544.24C705.242 545.647 707.162 546.732 709.231 547.44C709.791 547.616 710.367 547.76 710.927 547.904C710.972 547.768 711.009 547.629 711.039 547.488C710.495 547.328 709.935 547.168 709.439 546.96C705.501 545.377 702.109 542.68 699.679 539.2C698.353 537.486 696.864 535.905 695.231 534.48C693.512 533.06 691.437 532.136 689.231 531.808C688.1 531.72 686.962 531.865 685.889 532.234C684.816 532.603 683.83 533.187 682.991 533.952C681.334 535.346 679.807 536.888 678.431 538.56C677.023 540.16 675.679 541.76 674.175 543.28C672.671 544.8 670.879 546.032 668.911 545.792C667.911 545.65 666.95 545.311 666.082 544.795C665.214 544.279 664.457 543.595 663.855 542.784C662.447 541.184 661.231 539.472 659.903 537.776C658.683 535.923 656.963 534.453 654.943 533.536C653.847 533.201 652.666 533.269 651.615 533.728C650.606 534.154 649.667 534.731 648.831 535.44C648.239 535.936 647.711 536.416 647.199 536.928Z" fill="white"/>
<path d="M649.789 549.6C649.789 549.776 649.901 549.952 649.933 550.112L650.973 550.336C655.042 551.544 658.679 553.893 661.453 557.104C662.906 558.686 664.514 560.117 666.253 561.376C668.105 562.623 670.263 563.337 672.493 563.44C673.625 563.427 674.741 563.178 675.771 562.709C676.801 562.241 677.723 561.564 678.477 560.72C679.998 559.17 681.379 557.489 682.605 555.696C683.76 553.92 685.021 552.216 686.381 550.592C687.725 548.992 689.373 547.536 691.341 547.552C693.377 547.662 695.289 548.563 696.669 550.064C698.269 551.472 699.613 553.104 701.101 554.656C702.486 556.385 704.334 557.683 706.429 558.4C706.889 558.488 707.361 558.488 707.821 558.4L708.061 557.76C707.57 557.864 707.064 557.864 706.573 557.76C704.632 557.035 702.935 555.776 701.677 554.128C700.253 552.528 698.893 550.928 697.277 549.408C696.479 548.642 695.587 547.981 694.621 547.44C693.613 546.883 692.476 546.602 691.325 546.624C690.742 546.626 690.164 546.724 689.613 546.912C689.059 547.129 688.524 547.391 688.013 547.696C687.121 548.344 686.306 549.09 685.581 549.92C684.194 551.573 682.896 553.298 681.693 555.088C680.523 556.843 679.2 558.493 677.741 560.016C677.081 560.774 676.271 561.387 675.362 561.817C674.454 562.247 673.466 562.483 672.461 562.512C670.4 562.432 668.401 561.784 666.685 560.64C664.965 559.422 663.359 558.051 661.885 556.544C660.362 555.014 658.702 553.627 656.925 552.4C655.114 551.201 653.104 550.334 650.989 549.84C650.669 549.6 650.237 549.6 649.789 549.6Z" fill="white"/>
<path d="M370.223 713.424L248.047 811.936H254.927L396.031 713.424H370.223Z" fill="#C7C7C7"/>
<path d="M381.696 713.424L321.328 811.936H328.208L402.208 713.424H381.696Z" fill="#C7C7C7"/>
<path d="M411.297 713.424L471.665 811.936H464.785L390.785 713.424H411.297Z" fill="#C7C7C7"/>
<path d="M421.839 713.424L543.999 811.936H537.119L396.031 713.424H421.839Z" fill="#C7C7C7"/>
<path d="M625.744 677.296V648.48L457.968 641.584L369.36 404.992H166.32L238.16 677.296L409.792 725.472H420.544L625.744 677.296Z" fill="#455A64"/>
<path d="M166.32 404.992H189.552L264.4 653.2L416.256 696.224L625.744 648.48V677.296L420.544 725.472H409.792L238.16 677.296L166.32 404.992Z" fill="#37474F"/>
<path d="M749.12 810.944C743.696 811.072 603.312 767.744 599.008 762.64C598.544 762.08 600.736 741.296 604.368 724.8C604.528 724 554.496 658.464 554.496 658.464L644.944 623.264L688.224 712.864L699.424 736.176C699.424 736.176 746.256 783.264 750.416 789.296C754.576 795.328 754.528 810.816 749.12 810.944Z" fill="#EBEBEB"/>
<path d="M753.073 811.745C747.425 811.889 600.865 767.153 596.353 761.905C594.625 759.937 597.249 750.865 604.353 724.801L700.353 736.369C700.353 736.369 749.953 782.929 754.273 789.169C758.593 795.409 758.705 811.585 753.073 811.745Z" fill="#2466FF"/>
<path d="M752.801 805.232C728.417 797.136 629.297 766.832 604.577 760.592C604.385 760.592 604.337 760.672 604.577 760.752C628.577 769.312 727.937 798.88 752.737 805.552C753.153 805.776 753.265 805.408 752.801 805.232Z" fill="#263238"/>
<path d="M746.559 781.057C743.849 780.153 740.981 779.821 738.136 780.083C735.291 780.344 732.531 781.194 730.031 782.577C725.509 785.026 722.105 789.123 720.527 794.017C720.527 794.161 720.767 794.257 720.831 794.113C725.167 784.913 736.495 779.137 746.431 781.313C746.461 781.313 746.49 781.305 746.515 781.289C746.541 781.274 746.561 781.251 746.574 781.225C746.588 781.198 746.593 781.169 746.591 781.139C746.588 781.109 746.577 781.081 746.559 781.057Z" fill="#263238"/>
<path d="M710.369 746.064C700.577 742.864 688.129 742.864 679.553 749.088C679.217 749.328 679.553 749.792 679.905 749.728C689.881 747.851 700.029 747.041 710.177 747.312C710.328 747.31 710.474 747.254 710.589 747.155C710.703 747.056 710.779 746.919 710.802 746.769C710.825 746.619 710.794 746.466 710.715 746.337C710.635 746.208 710.513 746.111 710.369 746.064Z" fill="#263238"/>
<path d="M717.056 751.328C707.264 748.128 694.816 748.128 686.24 754.368C685.904 754.608 686.24 755.072 686.592 755.008C696.568 753.125 706.716 752.315 716.864 752.592C717.028 752.609 717.192 752.562 717.322 752.462C717.452 752.361 717.538 752.214 717.562 752.052C717.587 751.889 717.548 751.723 717.454 751.589C717.36 751.454 717.217 751.361 717.056 751.328Z" fill="#263238"/>
<path d="M723.744 756.608C713.952 753.408 701.504 753.408 692.928 759.648C692.592 759.888 692.928 760.352 693.28 760.288C703.255 758.403 713.404 757.593 723.552 757.872C723.715 757.888 723.879 757.842 724.009 757.741C724.139 757.64 724.225 757.494 724.25 757.331C724.275 757.169 724.236 757.003 724.142 756.868C724.047 756.733 723.905 756.64 723.744 756.608Z" fill="#263238"/>
<path d="M730.4 761.888C720.608 758.688 708.16 758.688 699.584 764.912C699.248 765.152 699.584 765.632 699.936 765.568C709.911 763.684 720.06 762.874 730.208 763.152C730.372 763.169 730.535 763.122 730.665 763.021C730.795 762.921 730.882 762.774 730.906 762.612C730.931 762.449 730.892 762.283 730.798 762.149C730.704 762.014 730.561 761.921 730.4 761.888Z" fill="#263238"/>
<path d="M729.008 723.057C725.296 717.409 717.808 719.537 713.408 722.881C706.005 728.764 700.278 736.489 696.8 745.281C696.72 745.489 696.8 745.617 697.024 745.665C697.024 746.433 697.664 747.265 698.544 746.993C707.024 744.289 716.432 742.449 723.824 737.217C728.144 734.177 732.528 728.401 729.008 723.057ZM710.56 740.273C706.432 741.713 702.24 742.929 698.16 744.513C701.269 740.055 704.602 735.756 708.144 731.633C709.891 729.665 711.767 727.816 713.76 726.097C716.96 723.505 729.056 718.225 726.768 729.297C725.504 735.297 715.504 738.577 710.56 740.273Z" fill="#263238"/>
<path d="M671.199 741.488C679.359 745.424 688.927 745.68 697.743 746.944C698.655 747.072 699.151 746.128 699.023 745.344C699.066 745.333 699.105 745.313 699.138 745.284C699.17 745.255 699.196 745.218 699.211 745.178C699.227 745.137 699.233 745.093 699.228 745.049C699.223 745.006 699.208 744.964 699.183 744.928C694.324 736.851 687.434 730.187 679.199 725.6C674.319 723.024 666.575 722.176 663.839 728.352C661.215 734.224 666.495 739.2 671.199 741.488ZM666.959 734.08C662.879 723.616 675.759 726.8 679.263 728.832C681.497 730.2 683.635 731.719 685.663 733.376C689.839 736.854 693.839 740.538 697.647 744.416C693.359 743.536 689.023 743.024 684.703 742.288C679.695 741.424 669.279 739.856 667.023 734.08H666.959Z" fill="#263238"/>
<path d="M692.799 717.104L593.087 731.84C593.087 731.84 538.687 633.04 516.703 608.464C515.472 607.046 514.129 605.73 512.687 604.528C510.415 603.5 507.976 602.893 505.487 602.736C475.999 599.152 376.783 608.8 308.207 604.336L340.207 561.536L354.399 542.544C431.647 533.744 526.447 502.16 569.215 523.616C615.567 546.896 692.799 717.104 692.799 717.104Z" fill="#263238"/>
<path d="M680.305 700.176C663.361 702.368 668.193 701.504 651.265 703.872C642.977 705.024 601.345 710.736 593.793 713.104C593.75 713.104 593.71 713.121 593.68 713.151C593.65 713.181 593.633 713.221 593.633 713.264C593.633 713.306 593.65 713.347 593.68 713.377C593.71 713.407 593.75 713.424 593.793 713.424C601.697 713.424 643.217 706.88 651.473 705.568C668.353 702.896 663.473 703.488 680.273 700.64C680.308 700.651 680.344 700.655 680.381 700.65C680.417 700.645 680.452 700.631 680.482 700.611C680.512 700.591 680.538 700.564 680.556 700.532C680.574 700.5 680.585 700.465 680.587 700.428C680.59 700.392 680.584 700.355 680.57 700.321C680.557 700.288 680.535 700.257 680.508 700.233C680.481 700.209 680.448 700.191 680.413 700.181C680.378 700.171 680.341 700.169 680.305 700.176Z" fill="#37474F"/>
<path d="M593.599 711.713C582.319 692.849 530.943 599.713 520.719 596.065C511.407 592.721 325.183 596.593 322.431 596.609C322.239 596.609 322.223 596.913 322.431 596.913C344.479 596.641 514.687 596.033 519.551 597.953C529.647 601.937 591.071 709.953 592.591 712.209C592.975 712.801 593.983 712.353 593.599 711.713Z" fill="#37474F"/>
<path d="M256 565.361C256 565.361 250.112 621.601 278.608 649.441C312.704 682.865 537.808 674.433 572.608 663.153C607.408 651.873 608.56 595.617 570.448 582.577C534.192 570.177 373.392 563.041 369.584 561.521C365.776 560.001 354.624 542.209 354.624 542.209L256 565.361Z" fill="#263238"/>
<path d="M303.616 563.777C303.616 563.505 303.152 563.601 303.152 563.857C303.156 571.143 300.59 578.197 295.904 583.777C290.56 589.953 282.688 593.377 275.552 597.009C274.864 597.361 275.392 598.433 276.096 598.225C280.482 596.871 284.709 595.047 288.704 592.785C292.365 590.834 295.589 588.155 298.176 584.913C300.5 581.96 302.183 578.556 303.12 574.917C304.057 571.278 304.225 567.484 303.616 563.777Z" fill="#37474F"/>
<path d="M368.048 558.017C366.448 555.985 364.72 554.049 363.056 552.081C359.136 547.393 355.184 542.705 351.072 538.193C350.672 537.761 349.92 538.369 350.272 538.833C353.04 542.465 355.984 545.969 358.864 549.505L363.328 554.929C364.887 556.546 366.28 558.315 367.488 560.209C368.576 562.225 367.152 563.937 365.072 564.161C363.225 564.204 361.43 563.547 360.048 562.321C356.848 559.825 354.24 556.257 351.552 553.217C349.952 551.361 348.24 549.489 346.56 547.665C344.88 545.841 342.864 543.841 341.088 541.905C340.976 541.777 340.752 541.905 340.848 542.081C342.448 544.225 343.84 546.449 345.408 548.593C346.976 550.737 348.608 552.849 350.208 554.993C351.808 557.137 353.296 558.929 355.008 560.833C356.362 562.515 357.983 563.964 359.808 565.121C362.8 566.881 367.968 567.249 369.568 563.393C369.824 562.443 369.818 561.441 369.55 560.495C369.283 559.548 368.763 558.692 368.048 558.017Z" fill="#37474F"/>
<path d="M567.84 663.361C555.824 663.585 543.841 664.289 531.825 664.545C519.809 664.801 508 664.865 496.08 664.753C472.155 664.529 448.251 663.601 424.368 661.969C400.24 660.369 374.224 657.889 350.272 654.577C338.8 652.977 327.184 651.665 315.84 649.233C305.635 647.301 296.197 642.487 288.64 635.361C273.12 620.305 267.088 598.177 264.64 577.041C264.304 574.193 264.032 571.361 263.808 568.513C263.808 568.321 263.488 568.321 263.504 568.513C264.912 590.193 268.304 612.801 281.92 630.225C287.673 637.832 295.335 643.782 304.128 647.473C314.864 651.777 326.768 652.785 338.096 654.321C362.096 657.521 388.272 660.097 412.464 661.985C436.656 663.873 461.232 665.041 485.648 665.409C510.064 665.777 534.496 665.409 558.88 664.225C561.872 664.081 564.833 663.905 567.809 663.633C568.001 663.633 568 663.361 567.84 663.361Z" fill="#37474F"/>
<path d="M599.89 610.896C597.602 601.483 591.864 593.272 583.81 587.888C575.17 581.984 564.834 579.296 554.594 577.808C543.026 576.128 531.298 575.264 519.65 574.144C495.767 571.819 471.863 569.685 447.938 567.744C424.034 565.776 372.546 561.776 369.65 561.664C369.41 561.664 369.346 562.08 369.65 562.112C392.722 564.672 413.73 566.912 436.85 568.976C459.97 571.04 483.25 573.296 506.53 575.6C518.093 576.731 529.661 577.893 541.234 579.088C551.938 580.192 562.962 581.28 573.01 585.488C581.634 589.04 589.394 594.752 593.81 603.088C597.895 611.359 599.105 620.756 597.25 629.792C595.637 638.195 591.765 646 586.05 652.368C580.564 658.648 573.252 663.056 565.138 664.976C563.026 665.44 560.482 665.76 558.53 666.16C558.386 666.16 558.226 666.496 558.386 666.496C575.666 666.944 591.65 654.32 597.89 638.528C601.366 629.738 602.064 620.095 599.89 610.896Z" fill="#37474F"/>
<path d="M323.183 427.168C334.623 471.968 357.359 525.536 366.703 534.08C378.543 544.896 450.943 559.088 454.703 559.456C460.975 560.08 473.903 495.456 468.063 495.68C452.575 496.016 404.863 491.168 401.439 487.824C398.015 484.48 373.647 455.216 348.639 422.224C331.471 399.52 316.095 399.36 323.183 427.168Z" fill="#FFCFA4"/>
<path d="M448.896 556.784C449.936 557.28 464.896 564.32 474 566.736C480.832 568.544 500.656 573.216 503.392 565.888C505.248 560.896 493.92 556.768 485.984 553.68C481.792 552.08 476.576 547.84 477.744 545.152C479.76 540.352 490.544 544.864 497.664 548.768C511.424 556.336 529.84 570.08 537.968 563.008C541.024 560.32 537.28 555.68 531.84 551.152C540.608 556.368 549.936 560.592 553.456 557.744C555.472 556.144 555.52 553.968 554.32 551.536C557.008 552.352 559.36 552.112 560.96 550.336C563.696 547.344 562.224 543.04 559.04 538.656C559.566 538.589 560.069 538.397 560.506 538.097C560.943 537.796 561.302 537.396 561.552 536.928C567.28 527.712 536.896 502.4 526.544 500.224C496.144 493.824 464.224 495.856 464.224 495.856C452.56 505.648 448.8 556.752 448.896 556.784Z" fill="#FFCFA4"/>
<path d="M492.736 527.841C499.977 528.818 506.926 531.327 513.12 535.201C520.928 540.081 526.16 545.889 532.736 551.713C532.912 551.873 532.736 552.145 532.512 551.985C529.312 549.217 516.4 538.849 513.056 536.513C507.011 532.178 500.056 529.283 492.72 528.049C492.72 528.049 492.672 527.825 492.736 527.841Z" fill="#263238"/>
<path d="M498.079 514.849C506.079 516.833 514.287 518.849 521.775 522.433C529.951 526.353 536.431 532.913 542.815 539.233C546.634 543.03 550.367 546.902 554.015 550.849C554.175 551.025 554.015 551.297 553.791 551.121C547.306 544.614 540.639 538.289 533.791 532.145C527.466 526.448 520.083 522.05 512.063 519.201C507.471 517.601 502.751 516.305 498.047 515.041L498.079 514.849Z" fill="#263238"/>
<path d="M506.303 503.408C514.079 504.816 520.847 506.016 527.807 509.984C536.991 515.264 545.967 524.288 549.119 527.488C552.591 531.024 555.951 534.688 559.247 538.384C559.391 538.528 559.119 538.768 558.991 538.624C551.441 530.514 543.377 522.898 534.847 515.824C530.828 512.4 526.306 509.616 521.439 507.568C516.521 505.771 511.457 504.4 506.303 503.472C506.303 503.472 506.271 503.408 506.303 503.408Z" fill="#263238"/>
<path d="M463.056 491.344L441.296 566.544C441.296 566.544 377.12 549.888 365.168 537.6C353.216 525.312 330.16 460.96 323.072 429.664C315.984 398.368 331.92 398.784 347.072 418.256C362.224 437.728 399.68 484.896 401.744 485.888C403.808 486.88 463.056 491.344 463.056 491.344Z" fill="#2466FF"/>
<path d="M434.402 533.504C437.042 524.656 439.762 515.808 442.066 506.848C443.378 501.76 444.722 496.672 445.986 491.568C445.986 491.376 445.714 491.264 445.65 491.456C442.642 500.24 439.65 509.056 437.058 517.984C434.466 526.912 431.81 535.728 429.33 544.656C427.922 549.712 426.674 554.816 425.586 559.968C425.586 560.064 425.73 560.128 425.762 559.968C429.042 551.328 431.73 542.432 434.402 533.504Z" fill="#263238"/>
<path opacity="0.1" d="M432.048 564.001C413.824 558.865 374.272 546.929 365.152 537.569C353.216 525.281 330.16 460.929 323.072 429.649C319.696 414.625 321.584 406.881 326.16 405.089C326.66 405.328 327.146 405.595 327.616 405.889C351.2 438.257 400.064 515.553 432.048 564.001Z" fill="black"/>
<path d="M249.52 575.088C249.872 575.456 385.52 545.728 386.8 544.16C388.56 541.936 364.304 439.92 338.8 409.472C332.4 401.856 312.032 402.384 302.912 410.064C257.68 448.144 248.24 573.776 249.52 575.088Z" fill="#2466FF"/>
<path d="M292.305 417.36C265.249 438.16 193.953 522.32 208.849 542.272C223.745 562.224 325.921 555.6 355.729 547.072C364.593 544.512 341.841 488.096 332.369 485.312C324.497 482.976 280.273 494.992 279.473 492.416C278.561 489.52 288.369 470.88 304.161 436.784C322.401 397.424 304.257 408.176 292.305 417.36Z" fill="#FFCFA4"/>
<path d="M373.953 478.672C393.665 479.168 398.657 482.336 415.553 473.872C426.609 468.352 434.881 473.056 427.361 483.472C415.073 500.528 389.489 505.232 380.161 504.272L373.953 478.672Z" fill="#FFCFA4"/>
<path d="M319.695 488.801C319.695 488.801 343.343 480.353 364.399 478.817C378.959 477.761 410.911 478.961 435.743 514.801C441.631 523.297 443.983 539.569 429.343 529.201C418.943 521.825 414.559 514.001 407.727 510.817C407.727 510.817 408.271 531.889 399.535 537.457C391.888 542.32 383.905 546.635 375.647 550.369C374.622 549.015 373.682 547.599 372.831 546.129C372.831 546.129 364.175 550.545 349.871 546.769L319.695 488.801Z" fill="#FFCFA4"/>
<path d="M378.4 479.969C384.512 484.577 397.328 494.545 404.96 506.337C413.44 519.425 426.256 546.961 416.512 553.121C409.376 557.633 403.568 547.553 403.568 547.553C403.568 547.553 406.464 560.049 399.12 562.721C392.432 565.153 388.4 557.089 388.4 557.089C388.4 557.089 388.848 564.977 382 566.081C373.712 567.409 374.128 550.673 364.56 544.753C362.4 543.425 378.4 479.969 378.4 479.969Z" fill="#FFCFA4"/>
<path d="M389.678 512.992C394.734 518.256 403.118 533.152 403.774 547.28C403.774 547.584 403.566 547.776 403.486 547.488C400.257 535.495 395.583 523.938 389.566 513.072L389.678 512.992Z" fill="#263238"/>
<path d="M376.706 521.936C380.594 526.928 388.562 542.736 388.738 556.992C388.738 557.328 388.498 557.488 388.434 557.2C385.832 545.054 381.855 533.245 376.578 522C376.578 522 376.658 521.872 376.706 521.936Z" fill="#263238"/>
<path d="M407.727 510.624C413.711 513.52 417.327 517.264 421.967 521.824C424.262 524.091 426.682 526.227 429.215 528.224C431.535 530.032 434.975 532.752 438.047 531.024C439.759 530.08 440.111 527.824 440.063 526.096C439.714 523.417 438.947 520.81 437.791 518.368C437.791 518.368 437.903 518.208 437.951 518.368C439.091 520.601 440.002 522.944 440.671 525.36C441.089 527.011 441.006 528.749 440.431 530.352C438.927 533.664 434.767 533.44 432.031 531.952C430.414 531.038 428.892 529.966 427.487 528.752C426.111 527.632 424.783 526.448 423.503 525.216C420.847 522.704 418.335 520.048 415.727 517.504C413.161 515.096 410.446 512.851 407.599 510.784C407.503 510.736 407.615 510.576 407.727 510.624Z" fill="#263238"/>
<path d="M417.232 534.897C414.555 526.65 411.348 518.586 407.632 510.753C407.625 510.743 407.621 510.733 407.619 510.722C407.617 510.71 407.617 510.699 407.619 510.688C407.621 510.677 407.625 510.666 407.632 510.657C407.638 510.647 407.646 510.639 407.656 510.633C407.665 510.626 407.676 510.622 407.687 510.62C407.698 510.618 407.71 510.618 407.721 510.62C407.732 510.622 407.742 510.626 407.752 510.633C407.761 510.639 407.769 510.647 407.776 510.657C411.904 516.097 417.728 529.729 418.976 533.985C420.224 538.241 421.408 543.505 420.688 547.857C419.6 554.417 415.04 554.945 413.376 554.993C411.412 555.026 409.496 554.382 407.952 553.169C406.157 551.616 404.703 549.71 403.68 547.569C403.68 547.473 403.76 547.361 403.824 547.473C405.664 550.433 409.024 553.601 412.672 553.729C413.472 553.778 414.273 553.669 415.031 553.408C415.789 553.148 416.488 552.74 417.088 552.209C418.321 550.788 419.003 548.97 419.008 547.089C419.115 542.953 418.514 538.83 417.232 534.897Z" fill="#263238"/>
<path d="M319.696 485.905L340.224 557.345C340.224 557.345 212.496 564.641 205.424 541.441C198.352 518.241 260.048 442.241 285.648 421.441C315.312 397.265 316.896 407.409 307.248 431.601C297.136 456.929 279.728 493.089 279.728 493.089L319.696 485.905Z" fill="#2466FF"/>
<path d="M239.377 504.48C245.754 501.476 252.342 498.941 259.089 496.896C265.759 494.902 272.567 493.399 279.457 492.4C283.377 491.776 287.329 491.36 291.265 490.912C291.29 490.912 291.315 490.922 291.333 490.94C291.351 490.958 291.361 490.983 291.361 491.008C291.361 491.034 291.351 491.058 291.333 491.076C291.315 491.094 291.29 491.104 291.265 491.104C284.344 492.138 277.49 493.575 270.737 495.408C264.001 497.168 257.329 499.04 250.657 501.04C246.897 502.176 243.185 503.488 239.457 504.736C239.438 504.751 239.417 504.761 239.394 504.765C239.371 504.77 239.347 504.768 239.325 504.761C239.302 504.755 239.282 504.742 239.265 504.726C239.249 504.709 239.236 504.689 239.229 504.667C239.222 504.644 239.221 504.621 239.225 504.598C239.229 504.574 239.239 504.553 239.254 504.534C239.268 504.516 239.287 504.501 239.308 504.492C239.33 504.483 239.353 504.478 239.377 504.48Z" fill="#263238"/>
<path d="M319.409 485.6C318.753 485.6 283.233 491.2 282.049 491.536C282.273 491.056 291.281 474.144 292.625 471.68C292.753 471.424 292.865 471.184 293.009 470.928C293.809 469.856 294.609 468.8 295.393 467.728L298.305 463.488L295.201 467.568C294.721 468.208 294.273 468.864 293.825 469.504C294.721 467.765 295.601 466.005 296.465 464.224C297.873 461.392 299.185 458.544 300.481 455.664H300.337C297.681 460.592 294.881 465.44 292.209 470.352C289.537 475.264 279.409 493.344 279.489 493.344C279.569 493.344 318.753 486.384 319.489 486.208C319.569 486.197 319.642 486.155 319.692 486.091C319.741 486.026 319.763 485.945 319.753 485.864C319.742 485.783 319.7 485.71 319.635 485.661C319.571 485.611 319.489 485.589 319.409 485.6Z" fill="#263238"/>
<path d="M314.527 529.248C312.287 521.248 310.095 513.248 307.567 505.408C306.127 500.928 304.703 496.448 303.215 491.984C303.215 491.808 302.863 491.872 302.911 491.984C304.847 500.08 306.799 508.176 309.103 516.176C311.407 524.176 313.615 532.176 316.015 540.032C317.375 544.528 318.879 548.976 320.511 553.408C320.511 553.43 320.519 553.45 320.534 553.465C320.549 553.48 320.57 553.488 320.591 553.488C320.612 553.488 320.632 553.48 320.647 553.465C320.662 553.45 320.671 553.43 320.671 553.408C319.007 545.264 316.783 537.264 314.527 529.248Z" fill="#263238"/>
<path d="M341.601 558.656C340.705 556.416 339.633 553.216 338.641 551.008C338.385 550.432 337.953 550.464 338.145 551.008C338.769 553.008 339.201 555.216 339.745 557.264C337.953 557.264 336.177 557.344 334.385 557.424L328.193 557.696C324.14 557.856 320.092 557.973 316.049 558.048C307.836 558.197 299.638 558.197 291.457 558.048C275.056 557.742 258.682 556.583 242.401 554.576C237.841 554 233.281 553.328 228.769 552.512C224.284 551.771 219.841 550.799 215.457 549.6C215.345 549.6 215.281 549.776 215.457 549.808C219.162 551.255 222.977 552.406 226.865 553.248C230.929 554.128 235.041 554.848 239.153 555.536C247.361 556.8 255.617 557.616 263.889 558.224C280.305 559.408 296.748 559.904 313.217 559.712C317.825 559.712 322.433 559.552 327.041 559.408C329.361 559.328 331.697 559.248 334.017 559.12C336.337 558.992 341.793 559.04 341.601 558.656Z" fill="#263238"/>
<path d="M513.92 568.049H350.496V574.641H513.92V568.049Z" fill="#455A64"/>
<path d="M440.928 568.049H350.496V574.641H440.928V568.049Z" fill="#A6A6A6"/>
<path d="M438.176 574.64H581.408L601.648 477.36H458.416L438.176 574.64Z" fill="#A6A6A6"/>
<path d="M444.672 574.64H587.904L608.144 477.36H464.912L444.672 574.64Z" fill="#C7C7C7"/>
<path d="M516.863 528.176C516.693 529.387 516.789 530.62 517.143 531.79C517.497 532.96 518.102 534.039 518.915 534.953C519.727 535.866 520.729 536.591 521.85 537.079C522.971 537.567 524.185 537.805 525.407 537.776C528.028 537.72 530.539 536.717 532.478 534.952C534.416 533.188 535.65 530.78 535.951 528.176C536.121 526.966 536.025 525.733 535.671 524.563C535.316 523.393 534.712 522.314 533.899 521.4C533.086 520.487 532.085 519.762 530.964 519.274C529.843 518.786 528.629 518.548 527.407 518.576C524.787 518.636 522.277 519.64 520.339 521.404C518.402 523.169 517.167 525.574 516.863 528.176Z" fill="#EBEBEB"/>
<path d="M328.464 442.096C328.464 442.096 304.576 418.4 288.96 418.752L275.632 430.4C275.632 430.4 271.264 431.792 269.952 429.024C266.752 422.176 266.144 405.696 280.416 395.12C293.472 385.424 314.72 386.336 332.416 391.152C349.408 395.776 364.08 407.152 358.768 418.256C353.456 429.36 328.464 442.096 328.464 442.096Z" fill="#2466FF"/>
<path opacity="0.1" d="M330.21 436.896C330.21 436.896 349.858 423.12 351.938 414.848C354.018 406.576 337.538 398.56 326.866 395.376C310.37 390.448 299.09 391.424 289.746 400.176C280.402 408.928 330.21 436.896 330.21 436.896Z" fill="black"/>
<path d="M330.21 436.896C330.21 436.896 311.202 404 287.09 400.624L288.962 418.752C288.962 418.752 303.362 418.912 328.466 442.096L330.21 436.896Z" fill="#2466FF"/>
<path d="M282.398 419.024C286.791 418.706 291.201 419.339 295.326 420.88C299.465 422.294 303.427 424.178 307.134 426.496C310.87 428.775 314.451 431.298 317.854 434.048L322.862 438.32L327.662 442.816L328.206 443.328L328.814 443.008C333.339 440.735 337.701 438.153 341.87 435.28C343.972 433.873 345.987 432.34 347.902 430.688C349.837 429.06 351.611 427.249 353.198 425.28C349.526 428.68 345.485 431.658 341.15 434.16C339.022 435.456 336.83 436.672 334.622 437.824C332.414 438.976 330.19 440.144 327.95 441.184L329.086 441.392L324.286 436.736C322.686 435.248 320.91 433.808 319.214 432.368C317.518 430.928 315.646 429.648 313.806 428.368C311.966 427.088 310.078 425.888 308.078 424.848C304.183 422.606 300.016 420.874 295.678 419.696C294.606 419.376 293.486 419.184 292.478 418.944C291.47 418.704 290.254 418.624 289.134 418.56C286.879 418.336 284.602 418.493 282.398 419.024Z" fill="#263238"/>
<path d="M275.633 430.4C280.541 427.085 285.018 423.172 288.961 418.752C284.062 422.08 279.587 425.991 275.633 430.4Z" fill="#263238"/>
<path d="M320.45 430.992C319.035 438.518 318.27 446.152 318.162 453.808C318.034 459.152 320.098 478.32 326.034 477.616C331.97 476.912 322.306 464.56 320.61 454.464C318.914 444.368 321.618 436.944 321.97 430.896L320.45 430.992Z" fill="#2466FF"/>
<g opacity="0.1">
<path d="M320.45 430.992C319.035 438.518 318.27 446.152 318.162 453.808C318.034 459.152 320.098 478.32 326.034 477.616C331.97 476.912 322.306 464.56 320.61 454.464C318.914 444.368 321.618 436.944 321.97 430.896L320.45 430.992Z" fill="black"/>
</g>
<path d="M341.601 432.049C343.51 439.363 344.985 446.784 346.017 454.273C346.657 459.073 346.785 476.545 341.361 476.529C335.937 476.513 343.377 464.385 343.873 455.105C344.369 445.825 341.169 437.505 340.225 432.129L341.601 432.049Z" fill="#2466FF"/>
<g opacity="0.1">
<path d="M341.601 432.049C343.51 439.363 344.985 446.784 346.017 454.273C346.657 459.073 346.785 476.545 341.361 476.529C335.937 476.513 343.377 464.385 343.873 455.105C344.369 445.825 341.169 437.505 340.225 432.129L341.601 432.049Z" fill="black"/>
</g>
<path d="M332.208 433.216C326.016 432.8 314.464 419.872 310.528 409.6C310.272 408.896 312.128 402.128 314.192 393.792C315.36 388.72 316.56 383.056 317.264 377.792L349.104 390.272C346.332 396.576 344.344 403.196 343.184 409.984C343.113 410.713 343.113 411.447 343.184 412.176C343.184 412.272 343.184 412.4 343.184 412.544C343.2 416.8 341.92 433.84 332.208 433.216Z" fill="#FFCFA4"/>
<path d="M343.103 412.193C343.112 412.315 343.112 412.438 343.103 412.561C341.956 412.553 340.811 412.457 339.679 412.273C321.023 409.297 319.551 385.873 319.551 378.673L349.103 390.241C346.343 396.57 344.361 403.211 343.199 410.017C343.112 410.739 343.079 411.466 343.103 412.193Z" fill="#263238"/>
<path d="M323.744 336.8C317.072 347.168 313.792 381.6 319.776 391.2C328.464 405.104 347.312 411.536 360.288 400.032C372.864 388.832 376.288 343.92 369.232 334.736C358.736 321.136 333.6 321.456 323.744 336.8Z" fill="#FFCFA4"/>
<path d="M345.232 361.857C346.251 361.701 347.261 361.487 348.256 361.217C349.351 361.131 350.39 360.694 351.216 359.969C351.431 359.689 351.548 359.346 351.548 358.993C351.548 358.64 351.431 358.297 351.216 358.017C350.704 357.539 350.075 357.204 349.392 357.047C348.71 356.89 347.998 356.915 347.328 357.121C345.892 357.326 344.588 358.069 343.68 359.201C343.488 359.465 343.378 359.779 343.361 360.105C343.345 360.43 343.424 360.754 343.589 361.036C343.753 361.317 343.996 361.545 344.288 361.691C344.58 361.836 344.908 361.894 345.232 361.857Z" fill="#263238"/>
<path d="M368.578 365.056C367.604 364.722 366.648 364.338 365.714 363.904C364.647 363.643 363.696 363.035 363.01 362.176C362.847 361.864 362.791 361.506 362.852 361.159C362.913 360.812 363.087 360.495 363.346 360.256C363.93 359.868 364.606 359.641 365.306 359.599C366.006 359.557 366.704 359.701 367.33 360.016C368.687 360.479 369.826 361.424 370.53 362.672C370.672 362.964 370.728 363.29 370.69 363.612C370.652 363.934 370.523 364.239 370.318 364.49C370.112 364.74 369.839 364.927 369.531 365.028C369.223 365.128 368.892 365.138 368.578 365.056Z" fill="#263238"/>
<path d="M343.457 388.945C343.937 389.553 344.401 390.369 345.233 390.545C346.095 390.642 346.968 390.555 347.793 390.289C347.793 390.289 347.921 390.289 347.793 390.417C347.402 390.822 346.91 391.117 346.368 391.272C345.826 391.426 345.252 391.435 344.705 391.297C344.244 391.119 343.845 390.808 343.56 390.404C343.275 389.999 343.117 389.519 343.105 389.025C343.201 388.881 343.377 388.849 343.457 388.945Z" fill="#263238"/>
<path d="M346.768 382.336C347.241 383.321 347.912 384.198 348.737 384.913C349.563 385.629 350.526 386.168 351.568 386.496C352.477 386.798 353.426 386.965 354.384 386.992H355.456C355.581 386.979 355.699 386.928 355.794 386.844C355.888 386.761 355.955 386.651 355.984 386.528C355.992 386.449 355.992 386.368 355.984 386.288V386.08C356.256 384.304 356.432 381.584 356.432 381.584C357.04 381.984 360.16 383.904 360.224 382.96C360.752 375.216 361.328 366.592 360.224 358.752C360.224 358.496 359.808 358.512 359.792 358.752C359.008 366.176 359.52 373.696 358.848 381.152C357.738 380.447 356.53 379.908 355.264 379.552C355.008 379.552 355.024 384.832 354.848 385.616C351.808 385.616 349.664 384.432 347.024 382.048C346.848 382 346.656 382.128 346.768 382.336Z" fill="#263238"/>
<path d="M353.458 385.952C352.318 387.102 350.902 387.939 349.346 388.384C348.489 388.589 347.591 388.527 346.77 388.208C344.994 387.488 345.17 385.792 345.682 384.384C345.97 383.642 346.341 382.933 346.786 382.272C348.562 384.178 350.899 385.467 353.458 385.952Z" fill="#263238"/>
<path d="M349.346 388.385C348.489 388.589 347.591 388.528 346.77 388.209C344.994 387.489 345.17 385.793 345.682 384.385C346.654 384.541 347.545 385.021 348.21 385.747C348.875 386.473 349.275 387.403 349.346 388.385Z" fill="#FFCFA4"/>
<path d="M349.775 368.16C349.775 368.16 349.583 368.24 349.567 368.336C349.279 370.64 348.559 373.136 346.367 373.648V373.776C348.943 373.824 349.871 370.4 349.775 368.16Z" fill="#263238"/>
<path d="M348.11 365.456C344.478 364.592 343.022 371.856 346.382 372.72C349.742 373.584 351.198 366.176 348.11 365.456Z" fill="#263238"/>
<path d="M363.152 369.92C363.152 369.92 363.312 370.064 363.296 370.16C362.752 372.4 362.512 375.072 364.4 376.256V376.384C361.92 375.504 362.288 372 363.152 369.92Z" fill="#263238"/>
<path d="M365.682 367.969C369.378 368.449 368.146 375.825 364.722 375.377C361.298 374.929 362.578 367.569 365.682 367.969Z" fill="#263238"/>
<path d="M327.023 358.928C331.823 353.008 331.983 340.32 336.447 338.512C346.047 334.608 356.479 352.576 366.703 356.352C376.607 360.016 382.239 354.848 383.359 346.144C384.479 337.44 379.615 329.536 369.071 323.84C358.175 317.936 345.983 318.768 338.943 320.352C338.943 320.352 342.911 317.248 342.431 315.648C341.951 314.048 335.679 316.176 333.599 317.248C331.987 318.287 330.578 319.61 329.439 321.152C328.093 320.241 326.622 319.53 325.071 319.04C322.806 318.399 320.388 318.575 318.239 319.536C317.839 320.064 321.279 321.84 323.775 322.88C323.775 322.88 316.767 327.44 314.927 332.848C313.087 338.256 312.191 366.768 314.095 367.776C316.543 369.088 325.103 361.328 327.023 358.928Z" fill="#455A64"/>
<path d="M324.992 322.624C325.088 322.624 325.168 322.768 324.992 322.816C321.816 323.902 319.007 325.852 316.88 328.448C314.546 331.689 313.12 335.495 312.752 339.472C311.776 347.088 312.896 354.736 313.536 362.32C313.536 362.544 313.168 362.592 313.136 362.32C311.952 354.32 310.912 345.728 312.288 337.696C313.52 330.896 317.696 324 324.992 322.624Z" fill="#455A64"/>
<path d="M337.007 335.776C340.153 336.492 343.134 337.801 345.791 339.632C348.195 341.556 350.345 343.776 352.191 346.24C356.719 351.36 362.047 355.968 368.703 357.936C368.703 357.936 368.703 358.096 368.703 358.064C362.463 356.656 357.295 352.768 352.959 348.224C350.969 345.721 348.832 343.338 346.559 341.088C343.638 338.983 340.396 337.362 336.959 336.288C336.914 336.26 336.878 336.22 336.854 336.172C336.83 336.124 336.821 336.071 336.825 336.018C336.83 335.965 336.85 335.914 336.882 335.871C336.914 335.829 336.957 335.796 337.007 335.776Z" fill="#455A64"/>
<path d="M346.098 319.76C350.845 319.221 355.644 319.356 360.354 320.16C364.902 320.804 369.303 322.234 373.362 324.384C380.274 328.24 385.346 335.376 384.322 343.584C383.863 347.806 381.843 351.703 378.658 354.512C378.615 354.55 378.559 354.57 378.502 354.567C378.445 354.564 378.392 354.539 378.354 354.496C378.315 354.454 378.296 354.398 378.299 354.341C378.302 354.284 378.327 354.23 378.37 354.192C381.088 351.544 382.878 348.088 383.472 344.34C384.066 340.591 383.432 336.751 381.666 333.392C377.538 325.968 369.218 322.496 361.25 320.976C356.25 320.097 351.171 319.743 346.098 319.92V319.76Z" fill="#455A64"/>
<path d="M341.599 379.552C339.667 379.013 337.925 377.942 336.572 376.462C335.218 374.982 334.306 373.152 333.941 371.18C333.576 369.207 333.771 367.172 334.505 365.305C335.239 363.438 336.481 361.815 338.092 360.619C339.702 359.424 341.616 358.704 343.615 358.542C345.615 358.38 347.619 358.782 349.401 359.702C351.184 360.623 352.672 362.025 353.697 363.749C354.722 365.473 355.242 367.451 355.199 369.456C355.168 370.864 354.86 372.252 354.292 373.541C353.724 374.829 352.908 375.994 351.891 376.967C350.873 377.94 349.673 378.703 348.36 379.213C347.047 379.722 345.647 379.968 344.239 379.936C343.346 379.923 342.459 379.794 341.599 379.552ZM346.959 360.256C346.215 360.045 345.445 359.932 344.671 359.92C342.307 359.87 340.012 360.723 338.254 362.306C336.497 363.889 335.409 366.082 335.211 368.439C335.014 370.796 335.723 373.139 337.193 374.992C338.663 376.845 340.784 378.068 343.124 378.411C345.465 378.755 347.848 378.194 349.788 376.842C351.729 375.49 353.082 373.449 353.57 371.135C354.059 368.821 353.648 366.408 352.419 364.386C351.191 362.365 349.238 360.888 346.959 360.256Z" fill="#37474F"/>
<path d="M365.954 383.201C362.002 382.097 359.554 377.041 360.402 371.521C360.765 368.866 361.951 366.393 363.794 364.449C364.534 363.57 365.489 362.898 366.565 362.495C367.641 362.093 368.802 361.974 369.937 362.151C371.072 362.328 372.143 362.794 373.045 363.505C373.948 364.216 374.652 365.147 375.09 366.209C376.255 368.618 376.636 371.332 376.178 373.969C375.266 379.825 370.994 384.017 366.578 383.345C366.367 383.311 366.159 383.262 365.954 383.201ZM370.258 363.681L369.714 363.553C368.803 363.456 367.882 363.579 367.028 363.91C366.173 364.241 365.41 364.771 364.802 365.457C363.185 367.191 362.14 369.38 361.81 371.729C361.026 376.801 363.282 381.329 366.866 381.921C370.45 382.513 373.97 378.817 374.77 373.745C375.175 371.409 374.845 369.005 373.826 366.865C373.483 366.118 372.989 365.452 372.374 364.906C371.76 364.361 371.04 363.949 370.258 363.697V363.681Z" fill="#37474F"/>
<path d="M354.658 370.625L353.922 369.393C355.73 368.289 359.73 367.057 361.922 370.225L360.738 371.041C358.77 368.193 354.818 370.529 354.658 370.625Z" fill="#37474F"/>
<path d="M306.992 366L305.84 365.152C306.224 364.608 309.792 359.872 313.024 359.856C316.256 359.84 334.784 364.656 335.584 364.784L335.232 366.176C329.856 364.816 315.376 361.28 313.04 361.296C310.704 361.312 308 364.688 306.992 366Z" fill="#37474F"/>
<path d="M323.185 365.408C323.185 365.408 318.529 352.816 313.009 354.208C307.489 355.6 309.041 372.496 314.161 376.096C314.785 376.601 315.506 376.975 316.278 377.194C317.051 377.413 317.86 377.474 318.657 377.372C319.454 377.271 320.222 377.009 320.915 376.603C321.608 376.196 322.211 375.654 322.689 375.008L323.185 365.408Z" fill="#FFCFA4"/>
<path d="M313.566 359.04V359.184C317.118 361.84 318.238 366.064 318.702 370.272C318.589 369.806 318.372 369.371 318.068 369C317.764 368.629 317.381 368.331 316.946 368.128C316.511 367.926 316.036 367.823 315.556 367.829C315.077 367.834 314.604 367.947 314.174 368.16C314.046 368.16 314.174 368.4 314.174 368.4C314.932 368.359 315.683 368.554 316.325 368.958C316.967 369.362 317.468 369.955 317.758 370.656C318.24 371.829 318.589 373.053 318.798 374.304C318.894 374.72 319.582 374.688 319.55 374.304V374.208C320.958 369.104 318.878 360.976 313.566 359.04Z" fill="#263238"/>
</svg>
