<svg width="1000" height="1000" viewBox="0 0 1000 1000" fill="none" xmlns="http://www.w3.org/2000/svg">
<path d="M311.882 254.613C323.05 226.998 309.717 195.558 282.102 184.389C254.487 173.221 223.047 186.553 211.878 214.168C200.71 241.783 214.043 273.224 241.658 284.392C269.273 295.561 300.713 282.228 311.882 254.613Z" fill="#EBEBEB"/>
<path d="M291.118 279.527C315.387 264.742 323.076 233.082 308.291 208.812C293.506 184.543 261.846 176.854 237.576 191.639C213.307 206.424 205.618 238.084 220.404 262.354C235.189 286.623 266.849 294.312 291.118 279.527Z" fill="#DBDBDB"/>
<path d="M275.361 282.513C301.282 276.433 317.367 250.491 311.287 224.57C305.207 198.649 279.266 182.564 253.344 188.644C227.423 194.724 211.339 220.666 217.418 246.587C223.498 272.508 249.44 288.592 275.361 282.513Z" fill="white"/>
<path opacity="0.5" d="M311.458 225.358C289.506 238.67 253.426 260.558 233.25 272.446C227.553 267.637 223.047 261.575 220.082 254.734L286.786 192.91C293.016 196.192 298.453 200.797 302.715 206.402C306.977 212.008 309.961 218.477 311.458 225.358Z" fill="#EBEBEB"/>
<path opacity="0.5" d="M312.514 237.279C312.338 242.644 311.256 247.94 309.314 252.943L249.202 281.375C246.577 280.54 244.033 279.469 241.602 278.175C259.762 267.615 292.962 248.527 312.514 237.279Z" fill="#EBEBEB"/>
<path d="M264.803 190.879H263.875V198.191H264.803V190.879Z" fill="#C7C7C7"/>
<path d="M242.386 196.63L241.582 197.094L245.238 203.426L246.042 202.962L242.386 196.63Z" fill="#C7C7C7"/>
<path d="M225.843 212.812L225.379 213.615L231.711 217.271L232.175 216.468L225.843 212.812Z" fill="#C7C7C7"/>
<path d="M226.945 235.135H219.633V236.063H226.945V235.135Z" fill="#C7C7C7"/>
<path d="M231.707 253.905L225.375 257.561L225.839 258.364L232.171 254.708L231.707 253.905Z" fill="#C7C7C7"/>
<path d="M245.231 267.752L241.578 274.086L242.382 274.55L246.035 268.215L245.231 267.752Z" fill="#C7C7C7"/>
<path d="M264.803 273.008H263.875V280.32H264.803V273.008Z" fill="#C7C7C7"/>
<path d="M283.436 267.759L282.633 268.223L286.289 274.555L287.092 274.091L283.436 267.759Z" fill="#C7C7C7"/>
<path d="M297.558 253.077L297.094 253.885L303.455 257.541L303.919 256.733L297.558 253.077Z" fill="#C7C7C7"/>
<path d="M309.058 235.135H301.746V236.063H309.058V235.135Z" fill="#C7C7C7"/>
<path d="M302.828 212.823L296.496 216.479L296.96 217.282L303.292 213.626L302.828 212.823Z" fill="#C7C7C7"/>
<path d="M286.288 196.628L282.637 202.963L283.441 203.426L287.092 197.091L286.288 196.628Z" fill="#C7C7C7"/>
<path d="M265.043 194.192L266.627 238.848L262.051 238.8L263.795 194.176L265.043 194.192Z" fill="#C7C7C7"/>
<path d="M292.849 220.016L262.817 239.2L260.625 235.184L292.257 218.928L292.849 220.016Z" fill="#A6A6A6"/>
<path d="M265.907 235.6C265.907 235.916 265.813 236.226 265.637 236.489C265.462 236.752 265.212 236.957 264.919 237.078C264.627 237.199 264.305 237.231 263.995 237.169C263.685 237.108 263.399 236.955 263.176 236.731C262.952 236.508 262.8 236.223 262.738 235.912C262.676 235.602 262.708 235.28 262.829 234.988C262.95 234.695 263.155 234.445 263.418 234.27C263.681 234.094 263.991 234 264.307 234C264.731 234 265.138 234.169 265.438 234.469C265.738 234.769 265.907 235.176 265.907 235.6Z" fill="#C7C7C7"/>
<path d="M671.219 279.232V192H555.811V279.232H671.219Z" fill="#EBEBEB"/>
<path d="M662.066 269.775V201.439H564.962V269.775H662.066Z" fill="white"/>
<path d="M645.41 258.048V213.168H581.634V258.048H645.41Z" fill="#EBEBEB"/>
<path d="M673.843 191.982H671.219V279.214H673.843V191.982Z" fill="#DBDBDB"/>
<path d="M567.585 201.439H564.961V269.775H567.585V201.439Z" fill="#DBDBDB"/>
<path d="M647.73 252.975C647.73 254.557 647.261 256.104 646.382 257.419C645.503 258.735 644.254 259.76 642.792 260.366C641.33 260.971 639.722 261.13 638.17 260.821C636.618 260.512 635.192 259.75 634.074 258.631C632.955 257.513 632.193 256.087 631.884 254.535C631.576 252.983 631.734 251.375 632.339 249.913C632.945 248.451 633.97 247.202 635.286 246.323C636.601 245.444 638.148 244.975 639.73 244.975C641.852 244.975 643.887 245.817 645.387 247.318C646.888 248.818 647.73 250.853 647.73 252.975Z" fill="#C7C7C7"/>
<path d="M811.52 353.263V266.031H696.112V353.263H811.52Z" fill="#EBEBEB"/>
<path d="M802.371 343.807V275.471H705.267V343.807H802.371Z" fill="white"/>
<path d="M814.144 266.031H811.52V353.263H814.144V266.031Z" fill="#DBDBDB"/>
<path d="M707.89 275.471H705.266V343.807H707.89V275.471Z" fill="#DBDBDB"/>
<path d="M785.699 286.864V285.584H721.923V286.864H785.699Z" fill="#EBEBEB"/>
<path d="M785.715 314.927V313.646H721.939V314.927H785.715Z" fill="#EBEBEB"/>
<path d="M773.121 290.911V289.631H734.513V290.911H773.121Z" fill="#EBEBEB"/>
<path d="M773.121 325.952V324.672H734.513V325.952H773.121Z" fill="#EBEBEB"/>
<path d="M769.25 329.471V328.191H738.37V329.471H769.25Z" fill="#EBEBEB"/>
<path d="M789.443 326.67C789.443 328.06 789.031 329.418 788.259 330.573C787.487 331.728 786.39 332.628 785.107 333.16C783.823 333.691 782.411 333.831 781.048 333.56C779.686 333.288 778.434 332.62 777.452 331.637C776.469 330.655 775.801 329.403 775.529 328.041C775.258 326.678 775.398 325.266 775.929 323.983C776.461 322.699 777.361 321.602 778.516 320.83C779.671 320.058 781.029 319.646 782.419 319.646C784.281 319.646 786.068 320.387 787.385 321.704C788.703 323.021 789.443 324.808 789.443 326.67Z" fill="#C7C7C7"/>
<path d="M783.554 299.023H724.098V306.335H783.554V299.023Z" fill="#EBEBEB"/>
<path d="M499.998 839.135C644.653 839.135 761.918 822.939 761.918 802.959C761.918 782.98 644.653 766.783 499.998 766.783C355.344 766.783 238.078 782.98 238.078 802.959C238.078 822.939 355.344 839.135 499.998 839.135Z" fill="#EBEBEB"/>
<path d="M500.59 584.496L496.862 606.816L471.646 743.024H467.566L485.918 606.816L488.622 584.496H500.59Z" fill="#DBDBDB"/>
<path d="M488.622 584.496H500.59L496.862 606.816H485.918L488.622 584.496Z" fill="#C7C7C7"/>
<path d="M579.793 743.024H575.729L550.497 606.816L546.785 584.496H558.737L561.441 606.816L579.793 743.024Z" fill="#DBDBDB"/>
<path d="M558.737 584.496L561.441 606.816H550.497L546.785 584.496H558.737Z" fill="#C7C7C7"/>
<path d="M655.442 743.024H651.378L626.162 606.816L622.434 584.496H634.386L637.106 606.816L655.442 743.024Z" fill="#DBDBDB"/>
<path d="M637.106 606.816H626.162L622.434 584.496H634.386L637.106 606.816Z" fill="#C7C7C7"/>
<path d="M648.992 594.993H464.176V580.001L533.36 575.505L556.608 441.393H641.936L648.992 594.993Z" fill="#DBDBDB"/>
<path d="M648.992 594.993H638.912L632.352 441.393H641.936L648.992 594.993Z" fill="#C7C7C7"/>
<path d="M789.711 516.895H666.719V742.863H789.711V516.895Z" fill="#455A64"/>
<path d="M789.711 516.895H666.719V531.631H789.711V516.895Z" fill="#263238"/>
<path d="M842.528 505.023H392.352V516.911H842.528V505.023Z" fill="#455A64"/>
<path d="M418.593 516.895L418.193 531.631L413.009 742.863H403.617V516.895H418.593Z" fill="#455A64"/>
<path d="M403.617 516.895H418.593L418.193 531.631H403.617V516.895Z" fill="#263238"/>
<path d="M831.391 516.895H789.711V742.863H831.391V516.895Z" fill="#37474F"/>
<path d="M831.391 516.895H789.711V531.631H831.391V516.895Z" fill="#263238"/>
<path d="M692.174 484.977H590.59V505.025H692.174V484.977Z" fill="#2466FF"/>
<path d="M606.83 484.977H596.91V505.025H606.83V484.977Z" fill="#37474F"/>
<path d="M614.656 484.977H610.512V505.025H614.656V484.977Z" fill="#37474F"/>
<path d="M680.209 484.977H670.289V505.025H680.209V484.977Z" fill="#37474F"/>
<path d="M655.152 470.018H584.688V484.978H655.152V470.018Z" fill="#455A64"/>
<path d="M685.552 470.018H655.152V484.978H685.552V470.018Z" fill="#455A64"/>
<path d="M655.152 471.568H584.688V483.424H655.152V471.568Z" fill="white"/>
<path d="M589.246 474.017C594.734 473.857 600.222 473.761 605.71 473.697L622.19 473.617L638.67 473.697C644.158 473.697 649.646 473.857 655.15 474.017C649.646 474.156 644.153 474.257 638.67 474.321L622.19 474.417L605.71 474.321C600.217 474.257 594.729 474.156 589.246 474.017Z" fill="#DBDBDB"/>
<path d="M589.246 476.338C594.734 476.193 600.222 476.081 605.71 476.033L622.19 475.938L638.67 476.033C644.158 476.033 649.646 476.193 655.15 476.338C649.646 476.482 644.158 476.593 638.67 476.641L622.19 476.738L605.71 476.641C600.222 476.593 594.734 476.482 589.246 476.338Z" fill="#DBDBDB"/>
<path d="M589.246 478.656C594.734 478.512 600.222 478.4 605.71 478.352L622.19 478.256L638.67 478.352C644.158 478.352 649.646 478.512 655.15 478.656C649.646 478.8 644.158 478.912 638.67 478.96L622.19 479.056L605.71 478.96C600.222 478.912 594.734 478.8 589.246 478.656Z" fill="#DBDBDB"/>
<path d="M589.246 480.992C594.734 480.832 600.222 480.736 605.71 480.672H622.19H638.67C644.158 480.672 649.646 480.832 655.15 480.992C649.646 481.131 644.153 481.232 638.67 481.296L622.19 481.376L605.71 481.296C600.217 481.232 594.729 481.131 589.246 480.992Z" fill="#DBDBDB"/>
<path d="M670.992 453.633H600.48V470.017H670.992V453.633Z" fill="#37474F"/>
<path d="M663.537 453.633H656.961V470.017H663.537V453.633Z" fill="#2466FF"/>
<path d="M652.638 453.633H650.094V470.017H652.638V453.633Z" fill="#2466FF"/>
<path d="M339.744 718.398H244.832V727.118H339.744V718.398Z" fill="#2466FF"/>
<path opacity="0.1" d="M339.744 718.398H244.832V727.118H339.744V718.398Z" fill="black"/>
<path d="M332.576 464.943H251.984V718.399H332.576V464.943Z" fill="#2466FF"/>
<path d="M332.576 464.943H251.984V718.415H332.576V464.943Z" fill="#2466FF"/>
<path opacity="0.1" d="M260.336 711.359C259.984 711.359 259.646 711.219 259.397 710.97C259.148 710.721 259.008 710.383 259.008 710.031V479.951C259.008 479.599 259.148 479.261 259.397 479.012C259.646 478.763 259.984 478.623 260.336 478.623C260.688 478.623 261.026 478.763 261.275 479.012C261.524 479.261 261.664 479.599 261.664 479.951V710.031C261.664 710.205 261.629 710.378 261.563 710.539C261.496 710.7 261.398 710.847 261.275 710.97C261.152 711.093 261.005 711.191 260.844 711.258C260.683 711.325 260.51 711.359 260.336 711.359Z" fill="black"/>
<path opacity="0.1" d="M267.441 711.359C267.089 711.359 266.751 711.219 266.502 710.97C266.253 710.721 266.113 710.383 266.113 710.031V479.951C266.113 479.599 266.253 479.261 266.502 479.012C266.751 478.763 267.089 478.623 267.441 478.623C267.793 478.623 268.131 478.763 268.38 479.012C268.629 479.261 268.769 479.599 268.769 479.951V710.031C268.769 710.205 268.735 710.378 268.668 710.539C268.601 710.7 268.504 710.847 268.38 710.97C268.257 711.093 268.111 711.191 267.949 711.258C267.788 711.325 267.616 711.359 267.441 711.359Z" fill="black"/>
<path opacity="0.1" d="M274.547 711.359C274.193 711.359 273.854 711.22 273.602 710.971C273.351 710.722 273.207 710.385 273.203 710.031V479.951C273.207 479.597 273.351 479.26 273.602 479.011C273.854 478.762 274.193 478.623 274.547 478.623C274.899 478.623 275.237 478.763 275.486 479.012C275.735 479.261 275.875 479.599 275.875 479.951V710.031C275.875 710.205 275.841 710.378 275.774 710.539C275.707 710.7 275.609 710.847 275.486 710.97C275.363 711.093 275.216 711.191 275.055 711.258C274.894 711.325 274.722 711.359 274.547 711.359Z" fill="black"/>
<path opacity="0.1" d="M281.633 711.359C281.28 711.359 280.943 711.219 280.694 710.97C280.445 710.721 280.305 710.383 280.305 710.031V479.951C280.305 479.599 280.445 479.261 280.694 479.012C280.943 478.763 281.28 478.623 281.633 478.623C281.986 478.623 282.326 478.762 282.577 479.011C282.829 479.26 282.972 479.597 282.977 479.951V710.031C282.972 710.385 282.829 710.722 282.577 710.971C282.326 711.22 281.986 711.359 281.633 711.359Z" fill="black"/>
<path opacity="0.1" d="M288.801 711.359C288.448 711.359 288.111 711.219 287.862 710.97C287.613 710.721 287.473 710.383 287.473 710.031V479.951C287.473 479.599 287.613 479.261 287.862 479.012C288.111 478.763 288.448 478.623 288.801 478.623C289.153 478.623 289.491 478.763 289.74 479.012C289.989 479.261 290.129 479.599 290.129 479.951V710.031C290.129 710.205 290.094 710.378 290.028 710.539C289.961 710.7 289.863 710.847 289.74 710.97C289.616 711.093 289.47 711.191 289.309 711.258C289.148 711.325 288.975 711.359 288.801 711.359Z" fill="black"/>
<path opacity="0.1" d="M295.84 711.359C295.486 711.359 295.147 711.22 294.895 710.971C294.644 710.722 294.5 710.385 294.496 710.031V479.951C294.5 479.597 294.644 479.26 294.895 479.011C295.147 478.762 295.486 478.623 295.84 478.623C296.192 478.623 296.53 478.763 296.779 479.012C297.028 479.261 297.168 479.599 297.168 479.951V710.031C297.168 710.205 297.134 710.378 297.067 710.539C297 710.7 296.902 710.847 296.779 710.97C296.656 711.093 296.509 711.191 296.348 711.258C296.187 711.325 296.014 711.359 295.84 711.359Z" fill="black"/>
<path opacity="0.1" d="M302.93 711.359C302.577 711.359 302.24 711.219 301.991 710.97C301.741 710.721 301.602 710.383 301.602 710.031V479.951C301.602 479.599 301.741 479.261 301.991 479.012C302.24 478.763 302.577 478.623 302.93 478.623C303.283 478.623 303.623 478.762 303.874 479.011C304.126 479.26 304.269 479.597 304.274 479.951V710.031C304.269 710.385 304.126 710.722 303.874 710.971C303.623 711.22 303.283 711.359 302.93 711.359Z" fill="black"/>
<path opacity="0.1" d="M310.035 711.359C309.683 711.359 309.345 711.219 309.096 710.97C308.847 710.721 308.707 710.383 308.707 710.031V479.951C308.707 479.599 308.847 479.261 309.096 479.012C309.345 478.763 309.683 478.623 310.035 478.623C310.387 478.623 310.725 478.763 310.974 479.012C311.223 479.261 311.363 479.599 311.363 479.951V710.031C311.363 710.205 311.329 710.378 311.262 710.539C311.195 710.7 311.097 710.847 310.974 710.97C310.851 711.093 310.704 711.191 310.543 711.258C310.382 711.325 310.209 711.359 310.035 711.359Z" fill="black"/>
<path opacity="0.1" d="M317.137 711.359C316.783 711.359 316.444 711.22 316.192 710.971C315.941 710.722 315.797 710.385 315.793 710.031V479.951C315.797 479.597 315.941 479.26 316.192 479.011C316.444 478.762 316.783 478.623 317.137 478.623C317.489 478.623 317.827 478.763 318.076 479.012C318.325 479.261 318.465 479.599 318.465 479.951V710.031C318.465 710.205 318.431 710.378 318.364 710.539C318.297 710.7 318.199 710.847 318.076 710.97C317.953 711.093 317.806 711.191 317.645 711.258C317.484 711.325 317.311 711.359 317.137 711.359Z" fill="black"/>
<path opacity="0.1" d="M324.226 711.359C323.874 711.359 323.536 711.219 323.287 710.97C323.038 710.721 322.898 710.383 322.898 710.031V479.951C322.898 479.599 323.038 479.261 323.287 479.012C323.536 478.763 323.874 478.623 324.226 478.623C324.58 478.623 324.92 478.762 325.171 479.011C325.423 479.26 325.566 479.597 325.57 479.951V710.031C325.566 710.385 325.423 710.722 325.171 710.971C324.92 711.22 324.58 711.359 324.226 711.359Z" fill="black"/>
<path opacity="0.1" d="M332.576 464.943V475.439L251.984 473.055V464.943H332.576Z" fill="black"/>
<path d="M345.473 727.135H239.105V742.879H345.473V727.135Z" fill="#2466FF"/>
<path d="M354.306 466.047C354.306 474.495 348.258 481.839 337.97 481.839C322.738 481.839 321.97 466.127 321.97 466.127H262.77C262.77 466.127 261.938 481.839 246.77 481.839C236.466 481.839 230.434 474.495 230.434 466.047C230.434 458.591 235.73 448.031 251.234 448.031H333.602C349.026 448.031 354.306 458.591 354.306 466.047Z" fill="#2466FF"/>
<path opacity="0.1" d="M262.657 466.128C262.545 464.668 262.125 463.249 261.423 461.964C260.721 460.679 259.754 459.559 258.586 458.676C257.417 457.794 256.075 457.17 254.647 456.847C253.219 456.523 251.739 456.507 250.305 456.8C243.425 458.16 239.473 466.016 243.073 470.96C245.809 474.736 250.865 473.424 251.729 470.08C252.929 465.472 248.305 463.168 249.985 460.48C251.665 457.792 256.097 458.144 258.769 460.016C260.665 461.603 262.023 463.738 262.657 466.128Z" fill="black"/>
<path opacity="0.1" d="M321.906 466.128C322.02 464.667 322.442 463.248 323.146 461.963C323.849 460.678 324.818 459.558 325.987 458.676C327.157 457.794 328.501 457.17 329.929 456.847C331.358 456.523 332.839 456.507 334.274 456.8C341.154 458.16 345.09 466.016 341.506 470.96C338.77 474.736 333.714 473.424 332.85 470.08C331.65 465.472 336.258 463.168 334.594 460.48C332.93 457.792 328.482 458.144 325.81 460.016C323.912 461.604 322.549 463.738 321.906 466.128Z" fill="black"/>
<path d="M153.441 742.864L240.081 742.48L326.721 742.336L500.001 742.08L673.281 742.336L759.921 742.48L846.561 742.864L759.921 743.264L673.281 743.408L500.001 743.664L326.721 743.408L240.081 743.264L153.441 742.864Z" fill="#263238"/>
<path d="M255.295 369.455C255.295 376.527 246.879 383.055 237.087 383.055C227.295 383.055 218.863 376.655 218.863 369.455H255.295Z" fill="#455A64"/>
<path d="M251.822 367.791C249.134 361.487 246.558 355.135 243.998 348.783C242.702 345.583 241.486 342.383 240.222 339.183L236.478 329.583H237.598L233.838 339.183C232.59 342.383 231.374 345.583 230.062 348.783C227.502 355.183 224.942 361.487 222.238 367.791C224.478 361.311 226.83 354.879 229.198 348.447C230.366 345.247 231.614 342.047 232.83 338.847L236.478 329.247L237.038 327.775L237.598 329.247L241.246 338.847C242.446 342.047 243.694 345.247 244.862 348.447C247.198 354.879 249.598 361.311 251.822 367.791Z" fill="#263238"/>
<path d="M256.32 366.992H217.824V369.456H256.32V366.992Z" fill="#2466FF"/>
<path d="M365.713 391.711C365.713 398.783 357.313 405.295 347.505 405.295C337.697 405.295 329.281 398.975 329.281 391.711H365.713Z" fill="#455A64"/>
<path d="M362.256 390.048C359.552 383.744 356.976 377.392 354.432 371.024C353.12 367.824 351.904 364.624 350.64 361.424L346.896 351.824H348.016L344.272 361.424C343.008 364.624 341.792 367.824 340.496 371.024C337.936 377.424 335.36 383.824 332.656 390.048C334.896 383.568 337.248 377.12 339.632 370.704C340.8 367.504 342.048 364.304 343.248 361.104L346.896 351.504L347.456 350.016L348.016 351.504L351.664 361.104C352.864 364.304 354.112 367.504 355.28 370.704C357.6 377.12 360.016 383.568 362.256 390.048Z" fill="#263238"/>
<path d="M366.754 389.248H328.258V391.712H366.754V389.248Z" fill="#2466FF"/>
<path d="M346.769 352.384C343.713 352.016 341.969 350.032 338.769 348.24C333.969 345.632 315.073 341.232 306.769 340.24C303.457 339.824 296.081 341.376 291.201 340.4C286.321 339.424 280.113 335.152 276.897 334.256C268.801 331.968 249.697 328.768 244.225 329.312C240.465 329.68 238.145 330.912 235.201 330.016C230.401 328.672 231.233 321.696 237.393 322.928C243.553 324.16 245.089 325.728 253.233 327.216C256.753 327.856 278.097 329.616 284.017 330.8C286.984 331.296 289.872 332.179 292.609 333.424C295.607 333.332 298.603 333.633 301.521 334.32C307.457 335.504 327.809 342.112 331.329 342.864C339.329 344.624 341.441 343.776 347.601 345.024C353.761 346.272 351.697 352.992 346.769 352.384Z" fill="#455A64"/>
<path d="M330.642 434.688H252.914V448.048H330.642V434.688Z" fill="#455A64"/>
<path d="M326.625 431.393H256.945V434.673H326.625V431.393Z" fill="#37474F"/>
<path d="M296.576 431.407H286.976C285.534 424.185 284.996 416.811 285.376 409.455C285.84 395.855 289.872 337.199 289.872 337.199H293.6C293.6 337.199 297.632 395.855 298.096 409.455C298.495 416.807 297.984 424.18 296.576 431.407Z" fill="#455A64"/>
<path d="M294.785 328.287C294.785 333.231 293.537 334.575 293.537 334.575H290.017C290.017 334.575 288.785 333.231 288.785 328.287C288.785 323.343 291.105 307.775 291.105 307.775H292.433C292.433 307.775 294.785 323.359 294.785 328.287Z" fill="#455A64"/>
<path d="M296.384 336.559C296.384 337.471 296.114 338.361 295.607 339.119C295.101 339.877 294.381 340.468 293.539 340.816C292.697 341.165 291.771 341.256 290.877 341.079C289.983 340.901 289.162 340.462 288.518 339.818C287.873 339.173 287.434 338.352 287.257 337.458C287.079 336.564 287.17 335.638 287.519 334.796C287.868 333.954 288.458 333.234 289.216 332.728C289.974 332.221 290.865 331.951 291.776 331.951C292.998 331.951 294.17 332.437 295.034 333.301C295.898 334.165 296.384 335.337 296.384 336.559Z" fill="#37474F"/>
<path d="M291.778 311.456C293.81 311.456 295.458 309.808 295.458 307.776C295.458 305.743 293.81 304.096 291.778 304.096C289.745 304.096 288.098 305.743 288.098 307.776C288.098 309.808 289.745 311.456 291.778 311.456Z" fill="#37474F"/>
<path d="M771.247 397.007C753.423 414.463 750.447 441.471 754.175 465.135C754.287 465.663 755.103 465.519 755.103 465.023C755.103 459.631 754.943 454.287 754.959 449.023C755.055 448.783 755.135 448.543 755.247 448.303C760.051 445.143 764.024 440.874 766.831 435.855C769.807 429.999 770.975 423.391 773.231 417.279C773.455 416.687 772.831 416.863 772.415 417.167C761.567 425.167 758.111 433.775 754.991 445.279C755.057 439.26 755.689 433.26 756.879 427.359C759.231 416.447 763.871 405.631 771.711 397.519C771.745 397.489 771.772 397.452 771.791 397.411C771.811 397.37 771.822 397.326 771.824 397.28C771.826 397.235 771.82 397.19 771.804 397.147C771.789 397.104 771.765 397.065 771.735 397.031C771.705 396.998 771.668 396.971 771.627 396.951C771.586 396.932 771.541 396.921 771.496 396.918C771.451 396.916 771.405 396.923 771.363 396.938C771.32 396.953 771.281 396.977 771.247 397.007Z" fill="#263238"/>
<path d="M774.608 399.04C777.664 399.136 779.6 404.048 781.984 405.44C782.235 405.645 782.526 405.796 782.839 405.881C783.151 405.966 783.478 405.984 783.798 405.934C784.118 405.884 784.424 405.768 784.696 405.591C784.968 405.415 785.2 405.184 785.376 404.912C787.744 401.6 784.496 397.52 781.44 395.312C783.616 396.208 785.44 397.792 787.84 398.24C788.142 398.336 788.461 398.367 788.775 398.33C789.09 398.293 789.393 398.189 789.664 398.025C789.935 397.862 790.168 397.642 790.348 397.381C790.527 397.12 790.649 396.824 790.704 396.512C791.744 392 786.096 390 782.208 389.904C784.096 388.592 789.488 385.104 786.624 383.296C783.76 381.488 777.392 386.624 775.328 388.304C772.288 390.752 768.672 394.432 768.544 398.288C768.32 402.752 772.24 399.984 774.608 399.04Z" fill="#2466FF"/>
<path opacity="0.1" d="M774.608 399.04C777.664 399.136 779.6 404.048 781.984 405.44C782.235 405.645 782.526 405.796 782.839 405.881C783.151 405.966 783.478 405.984 783.798 405.934C784.118 405.884 784.424 405.768 784.696 405.591C784.968 405.415 785.2 405.184 785.376 404.912C787.744 401.6 784.496 397.52 781.44 395.312C783.616 396.208 785.44 397.792 787.84 398.24C788.142 398.336 788.461 398.367 788.775 398.33C789.09 398.293 789.393 398.189 789.664 398.025C789.935 397.862 790.168 397.642 790.348 397.381C790.527 397.12 790.649 396.824 790.704 396.512C791.744 392 786.096 390 782.208 389.904C784.096 388.592 789.488 385.104 786.624 383.296C783.76 381.488 777.392 386.624 775.328 388.304C772.288 390.752 768.672 394.432 768.544 398.288C768.32 402.752 772.24 399.984 774.608 399.04Z" fill="black"/>
<path d="M773.714 399.791C777.634 398.015 785.17 400.575 785.81 399.087C787.122 396.063 781.09 393.999 777.81 393.599C780.802 392.783 786.546 391.487 786.37 388.607C786.146 385.087 777.57 388.111 773.218 391.439C767.746 395.647 767.794 399.695 768.69 400.495C769.97 401.615 773.074 400.095 773.714 399.791Z" fill="#2466FF"/>
<path d="M730.64 395.278C749.12 412.046 753.136 438.91 750.288 462.702C750.208 463.246 749.376 463.134 749.36 462.622C749.152 457.246 749.104 451.902 748.896 446.622C748.784 446.382 748.688 446.158 748.592 445.918C743.672 442.942 739.539 438.827 736.544 433.918C733.344 428.174 731.92 421.614 729.408 415.598C729.168 415.006 729.808 415.166 730.224 415.454C741.424 423.022 745.152 431.454 748.704 442.878C748.407 436.869 747.544 430.902 746.128 425.054C743.376 414.222 738.336 403.598 730.128 395.79C729.888 395.47 730.4 394.974 730.64 395.278Z" fill="#263238"/>
<path d="M727.361 397.44C724.305 397.648 722.561 402.624 720.241 404.144C719.999 404.361 719.714 404.524 719.405 404.622C719.095 404.72 718.769 404.751 718.446 404.713C718.124 404.675 717.814 404.569 717.535 404.402C717.257 404.235 717.018 404.011 716.833 403.744C714.337 400.544 717.425 396.336 720.401 393.936C718.257 394.912 716.497 396.56 714.161 397.136C713.864 397.247 713.547 397.292 713.232 397.269C712.916 397.246 712.609 397.156 712.331 397.004C712.054 396.853 711.812 396.643 711.622 396.39C711.433 396.136 711.3 395.845 711.233 395.536C710.017 391.072 715.585 388.864 719.457 388.608C717.537 387.376 712.017 384.032 714.801 382.208C717.585 380.384 724.161 385.184 726.289 386.784C729.409 389.12 733.153 392.656 733.441 396.496C733.793 400.896 729.761 398.288 727.361 397.44Z" fill="#2466FF"/>
<path opacity="0.1" d="M727.361 397.44C724.305 397.648 722.561 402.624 720.241 404.144C719.999 404.361 719.714 404.524 719.405 404.622C719.095 404.72 718.769 404.751 718.446 404.713C718.124 404.675 717.814 404.569 717.535 404.402C717.257 404.235 717.018 404.011 716.833 403.744C714.337 400.544 717.425 396.336 720.401 393.936C718.257 394.912 716.497 396.56 714.161 397.136C713.864 397.247 713.547 397.292 713.232 397.269C712.916 397.246 712.609 397.156 712.331 397.004C712.054 396.853 711.812 396.643 711.622 396.39C711.433 396.136 711.3 395.845 711.233 395.536C710.017 391.072 715.585 388.864 719.457 388.608C717.537 387.376 712.017 384.032 714.801 382.208C717.585 380.384 724.161 385.184 726.289 386.784C729.409 389.12 733.153 392.656 733.441 396.496C733.793 400.896 729.761 398.288 727.361 397.44Z" fill="black"/>
<path d="M728.288 398.16C724.288 396.56 716.864 399.376 716.16 397.92C714.752 394.944 720.688 392.64 723.92 392.128C720.896 391.424 715.12 390.352 715.184 387.456C715.264 383.936 723.952 386.64 728.432 389.792C734.048 393.776 734.176 397.792 733.232 398.672C732.096 399.824 728.944 398.432 728.288 398.16Z" fill="#2466FF"/>
<path d="M749.602 439.551C750.856 448.524 752.776 457.391 755.346 466.079C755.382 466.251 755.485 466.401 755.632 466.497C755.779 466.593 755.958 466.627 756.13 466.591C756.302 466.555 756.453 466.452 756.549 466.305C756.645 466.158 756.678 465.979 756.642 465.807C755.426 457.647 753.218 449.615 752.002 441.455C750.673 433.189 750.196 424.809 750.578 416.447C751.362 402.671 755.09 388.031 764.082 377.263C764.274 377.007 763.858 376.639 763.65 376.879C745.666 397.855 748.53 423.567 748.546 425.871C746.002 417.183 743.378 407.231 733.746 398.383C733.33 398.015 732.994 398.191 733.074 398.831C734.786 414.943 739.266 423.343 748.61 431.951C748.802 434.511 749.138 437.055 749.602 439.551Z" fill="#263238"/>
<path d="M764.175 379.663C767.375 378.223 771.871 382.351 775.071 382.639C775.432 382.715 775.804 382.716 776.165 382.641C776.526 382.565 776.867 382.417 777.168 382.203C777.468 381.99 777.722 381.717 777.911 381.401C778.101 381.085 778.224 380.733 778.271 380.367C779.071 375.743 773.631 373.151 769.311 372.367C772.031 372.207 774.719 372.927 777.311 372.207C777.67 372.156 778.014 372.03 778.32 371.836C778.626 371.642 778.888 371.385 779.088 371.083C779.287 370.78 779.42 370.439 779.478 370.081C779.536 369.723 779.517 369.357 779.423 369.007C778.223 363.807 771.343 364.575 767.279 366.431C768.575 364.127 772.367 357.727 768.527 357.359C764.687 356.991 760.623 365.455 759.327 368.223C757.423 372.303 755.519 377.951 757.311 381.999C759.519 386.671 762.191 381.839 764.175 379.663Z" fill="#2466FF"/>
<path opacity="0.1" d="M764.175 379.663C767.375 378.223 771.871 382.351 775.071 382.639C775.432 382.715 775.804 382.716 776.165 382.641C776.526 382.565 776.867 382.417 777.168 382.203C777.468 381.99 777.722 381.717 777.911 381.401C778.101 381.085 778.224 380.733 778.271 380.367C779.071 375.743 773.631 373.151 769.311 372.367C772.031 372.207 774.719 372.927 777.311 372.207C777.67 372.156 778.014 372.03 778.32 371.836C778.626 371.642 778.888 371.385 779.088 371.083C779.287 370.78 779.42 370.439 779.478 370.081C779.536 369.723 779.517 369.357 779.423 369.007C778.223 363.807 771.343 364.575 767.279 366.431C768.575 364.127 772.367 357.727 768.527 357.359C764.687 356.991 760.623 365.455 759.327 368.223C757.423 372.303 755.519 377.951 757.311 381.999C759.519 386.671 762.191 381.839 764.175 379.663Z" fill="black"/>
<path d="M763.633 380.896C766.833 377.072 775.921 375.952 775.841 374.08C775.665 370.288 768.369 371.168 764.801 372.4C767.489 370.048 772.801 365.824 771.201 362.912C769.201 359.36 761.825 366.832 758.993 372.512C755.441 379.632 757.505 383.808 758.849 384.192C760.657 384.672 763.105 381.6 763.633 380.896Z" fill="#2466FF"/>
<path d="M737.711 444.4L729.711 505.024H777.983C776.991 499.648 767.999 444.336 767.999 444.336L737.711 444.4Z" fill="#2466FF"/>
<path d="M390.913 811.568C394.945 812.864 510.113 811.376 514.449 808.528C516.129 807.472 516.881 790.688 517.217 770.369C517.217 770.161 517.089 695.312 517.089 695.312L442.001 696.08L442.961 771.121C442.961 771.121 399.201 791.408 394.689 795.04C390.177 798.672 386.865 810.272 390.913 811.568Z" fill="#FFCFA4"/>
<path d="M425.504 779.008C425.808 778.912 425.968 778.832 425.984 778.736L425.504 779.008Z" fill="#2466FF"/>
<path d="M516.994 780.961C516.578 796.241 515.826 807.665 514.45 808.529C510.114 811.377 394.946 812.865 390.914 811.553C386.882 810.241 390.274 798.657 394.69 795.041C396.818 793.297 407.954 787.761 418.994 782.449C402.594 791.777 390.258 804.657 516.994 780.961Z" fill="#263238"/>
<path d="M516.993 780.961C516.577 796.241 515.825 807.665 514.449 808.529C512.737 809.649 493.553 810.577 470.801 811.185L498.545 784.321C504.337 783.297 510.486 782.177 516.993 780.961Z" fill="#37474F"/>
<path d="M540.721 363.584C540.721 363.584 521.265 559.632 518.449 574.48C517.793 577.872 519.553 594.8 519.281 618.448C518.689 670.032 517.329 763.072 517.329 763.072H442.657C442.657 763.072 440.273 601.872 443.873 572.208C447.473 542.544 470.433 363.584 470.433 363.584H540.721Z" fill="#FFCFA4"/>
<path d="M519.297 618.401C519.153 630.577 518.961 645.057 518.769 660.001L470.449 363.473H540.721C540.721 363.473 521.265 559.521 518.449 574.369C517.793 577.857 519.553 594.801 519.297 618.401Z" fill="#263238"/>
<path d="M485.167 818.401C489.295 819.409 604.063 809.761 608.191 806.625C609.791 805.457 609.359 788.641 608.191 768.353C608.191 768.145 600.191 693.713 600.191 693.713L526.383 699.697L534.143 774.369C534.143 774.369 491.855 797.713 487.743 801.649C483.631 805.585 481.055 817.425 485.167 818.401Z" fill="#FFCFA4"/>
<path d="M608.193 806.64C604.065 809.84 489.297 819.44 485.169 818.416C481.041 817.392 483.569 805.615 487.777 801.679C490.177 799.423 505.169 790.736 517.489 783.76C501.345 794.368 470.593 817.36 608.689 775.52C609.441 792.48 609.601 805.6 608.193 806.64Z" fill="#263238"/>
<path d="M533.295 766.032L607.407 760.448C607.407 760.448 588.207 587.648 587.743 576.704C587.135 560.448 580.943 491.728 574.383 437.376C574.383 437.376 581.551 398.192 563.567 363.52H470.367C470.367 363.52 476.607 405.808 487.311 432.624C494.519 435.132 501.482 438.298 508.111 442.08C508.111 442.08 515.791 564.848 516.111 579.952C516.735 609.84 533.295 766.032 533.295 766.032Z" fill="#FFCFA4"/>
<path d="M470.371 363.519C470.371 363.519 440.931 563.839 439.779 582.463C438.627 601.087 439.251 606.127 439.251 606.127C439.251 606.127 480.403 618.927 501.923 619.167C549.811 619.615 595.331 601.567 595.331 601.567C595.331 601.567 575.891 437.823 575.747 437.423C580.786 412.279 577.148 386.169 565.427 363.359L470.371 363.519Z" fill="#37474F"/>
<path d="M474.61 363.52L460.498 487.568L453.058 552.32L451.25 568.512C450.69 573.92 450.002 579.312 449.65 584.72C449.298 592.848 449.33 600.992 449.506 609.136C449.298 601.008 449.234 592.864 449.586 584.736C449.922 579.312 450.578 573.92 451.186 568.512L452.946 552.304L460.178 487.536L474.674 363.536L474.61 363.52Z" fill="#455A64"/>
<path d="M590.016 603.552C587.904 590.912 586.32 578.176 584.608 565.456C582.742 551.162 580.939 536.864 579.2 522.56C575.627 493.952 572.251 465.328 569.072 436.688C570.4 430.375 571.049 423.938 571.008 417.488C570.856 411.017 570.263 404.565 569.232 398.176C568.137 391.791 566.711 385.468 564.96 379.232C563.456 373.936 561.76 368.688 559.824 363.52C561.808 368.672 563.504 373.92 565.008 379.216C566.775 385.451 568.217 391.774 569.328 398.16C570.386 404.552 571.006 411.01 571.184 417.488C571.252 423.979 570.619 430.46 569.296 436.816L579.456 522.64C581.163 536.965 582.923 551.269 584.736 565.552C586.4 578.16 588 590.896 590.016 603.552Z" fill="#455A64"/>
<path d="M503.603 363.488L498.547 491.488L495.699 558.688L494.979 575.504C494.755 581.104 494.419 586.704 494.451 592.32C494.451 601.088 494.627 609.92 494.883 618.64C494.611 609.872 494.403 601.04 494.387 592.336C494.387 586.72 494.659 581.136 494.867 575.504L495.523 558.688L498.179 491.488L503.619 363.488H503.603Z" fill="#455A64"/>
<path d="M577.888 607.423L569.664 526.319C566.614 496.453 563.643 466.586 560.752 436.719C561.17 430.324 561.117 423.907 560.592 417.519C560.16 411.119 559.376 404.719 558.48 398.319C557.584 391.919 556.496 385.647 555.28 379.327C554.272 374.015 553.184 368.703 551.984 363.439C553.2 368.703 554.288 374.015 555.312 379.327C556.528 385.631 557.632 391.951 558.512 398.303C559.392 404.655 560.24 411.103 560.704 417.503C561.243 423.89 561.313 430.307 560.912 436.703C563.952 466.57 566.939 496.437 569.872 526.303L577.888 607.423Z" fill="#455A64"/>
<path d="M482.098 363.504L472.258 490.752L467.09 556.752L465.874 573.264C465.666 576.016 465.49 578.768 465.33 581.52L465.138 589.792L464.594 613.088L465.074 589.808L465.25 581.536C465.41 578.784 465.57 576.016 465.762 573.264L466.946 556.752L471.906 490.736L482.13 363.52L482.098 363.504Z" fill="#455A64"/>
<path d="M492.833 363.488L485.089 490.784L480.801 556.8L479.745 573.312C479.457 578.816 478.929 584.304 478.865 589.824C478.657 598.64 478.673 607.424 478.865 616.272C478.689 607.456 478.641 598.672 478.865 589.84C478.865 584.32 479.409 578.816 479.697 573.312L480.705 556.816L484.721 490.784L492.849 363.504L492.833 363.488Z" fill="#455A64"/>
<path d="M512.288 559.375C512.288 570.495 512.016 581.615 512.176 592.735C512.272 601.492 512.416 610.234 512.608 618.959C512.405 610.223 512.24 601.476 512.112 592.719C511.904 581.599 512.112 570.479 512.112 559.359L512.48 492.655L513.568 363.455L512.8 492.671L512.288 559.375Z" fill="#455A64"/>
<path d="M564.369 611.104L557.361 528.8C554.78 498.656 552.284 468.501 549.873 438.336C549.931 435.084 549.814 431.831 549.521 428.592C549.286 425.392 549.014 422.144 548.705 418.848C548.097 412.373 547.441 405.888 546.737 399.392C545.457 387.445 544.086 375.488 542.625 363.52C544.097 375.456 545.5 387.413 546.833 399.392C547.553 405.792 548.241 412.352 548.865 418.832C549.185 422.032 549.457 425.328 549.713 428.576C550.017 431.825 550.145 435.088 550.097 438.352C552.657 468.496 555.169 498.64 557.633 528.784L564.369 611.104Z" fill="#455A64"/>
<path d="M547.587 614.767L541.187 489.855L539.587 457.183L538.787 440.863L537.795 424.527L534.051 363.439L537.971 424.527L539.027 440.847L539.859 457.183L541.603 489.839L547.587 614.767Z" fill="#455A64"/>
<path d="M529.906 617.519H529.89L526.642 490.847L523.762 363.455L527.042 490.847L529.906 617.519Z" fill="#455A64"/>
<path d="M576.927 400.08L466.527 389.328C468.831 373.552 470.303 363.52 470.303 363.52L565.359 363.408C571.288 374.879 575.201 387.284 576.927 400.08Z" fill="#263238"/>
<path d="M486.656 195.087C476.224 206.095 473.664 223.775 473.664 223.775C473.664 223.775 463.872 241.791 467.024 251.295C467.87 254.003 469.357 256.466 471.36 258.474C473.363 260.483 475.822 261.978 478.528 262.831L477.36 257.535C477.36 257.535 481.008 264.271 492.624 266.703C504.24 269.135 519.392 265.103 527.216 260.863C531.853 258.372 535.766 254.723 538.576 250.271L535.824 258.079C539.568 257.553 543.124 256.109 546.175 253.876C549.227 251.642 551.678 248.689 553.312 245.279C559.616 233.167 540.016 216.607 538.288 212.959C536.56 209.311 533.712 182.559 505.584 187.967C505.584 187.999 493.84 187.519 486.656 195.087Z" fill="#C7C7C7"/>
<path d="M474.403 262.256C471.122 260.56 468.436 257.903 466.707 254.64C464.852 251.463 464.114 247.757 464.611 244.112C465.531 239.822 467.211 235.731 469.571 232.032C471.763 228.096 474.259 224.304 476.371 220.336C476.483 220.112 476.163 219.952 476.003 220.128C473.583 223.154 471.34 226.316 469.283 229.6C467.156 232.584 465.384 235.805 464.003 239.2C462.723 242.347 462.373 245.796 462.995 249.136C463.628 251.846 464.914 254.362 466.739 256.464C468.977 258.785 471.511 260.803 474.275 262.464C474.403 262.608 474.611 262.336 474.403 262.256Z" fill="#C7C7C7"/>
<path d="M555.345 232.927C551.665 223.135 542.545 217.119 536.913 208.655C533.857 204.063 531.441 198.959 527.505 195.023C527.393 194.911 527.217 195.023 527.313 195.199C530.513 198.767 532.497 203.103 534.881 207.215C537.404 211.305 540.331 215.133 543.617 218.639C549.425 225.199 556.417 232.943 555.361 242.383C554.881 246.735 552.465 251.615 548.049 253.103C547.889 253.103 548.049 253.439 548.161 253.359C549.894 252.607 551.456 251.51 552.752 250.135C554.047 248.759 555.049 247.135 555.697 245.359C557.083 241.309 556.958 236.893 555.345 232.927Z" fill="#C7C7C7"/>
<path d="M555.825 235.583C556.026 231.828 555.053 228.104 553.041 224.927C550.851 221.931 548.041 219.442 544.801 217.631C541.201 215.375 537.409 213.247 535.057 209.631C534.945 209.487 534.737 209.631 534.833 209.807C538.577 215.855 545.425 218.527 550.161 223.567C555.585 229.327 555.841 237.967 552.433 244.815C550.228 248.994 547.064 252.59 543.201 255.311C543.201 255.311 543.201 255.455 543.281 255.407C549.857 250.815 555.537 243.999 555.825 235.583Z" fill="#C7C7C7"/>
<path d="M504.8 275.744C502.096 287.392 469.6 393.104 462.896 394.688C443.296 399.36 419.696 402.912 419.872 386.784C420.112 361.472 464.672 299.232 488.032 273.296C502.112 257.776 507.504 264.24 504.8 275.744Z" fill="#37474F"/>
<path d="M504.8 275.745C502.096 287.393 469.6 393.105 462.896 394.689C443.296 399.377 419.696 402.913 419.872 386.785C419.872 386.129 419.872 385.441 419.984 384.721L494.272 267.345C503.68 260.001 507.072 266.161 504.8 275.745Z" fill="#263238"/>
<path d="M467.715 376.961C467.715 376.961 539.011 380.049 569.187 376.481C569.187 376.481 548.531 289.361 526.563 265.873C516.563 255.185 506.771 256.817 498.499 263.697C496.419 265.409 470.803 297.937 468.627 309.265C466.707 319.297 474.851 330.417 474.851 330.417L467.715 376.961Z" fill="#EBEBEB"/>
<path d="M505.907 285.695L502.131 277.775L495.715 283.839L496.835 289.679L503.027 290.351L505.907 285.695Z" fill="#2466FF"/>
<path d="M503.026 290.352L501.474 349.584L488.146 375.776L479.426 349.6L496.834 289.68L503.026 290.352Z" fill="#2466FF"/>
<path d="M499.298 262.656C499.298 262.656 488.338 292.176 487.666 299.76C486.994 307.344 490.402 335.808 490.402 335.808C490.402 335.808 507.106 305.744 511.202 296.032C517.49 280.928 518.882 259.92 518.882 259.92C518.882 259.92 525.138 262.768 533.362 274.032C544.37 289.12 564.226 345.776 570.738 377.344L495.65 388.128L488.194 375.776L483.074 388.128L465.266 378.192L474.866 330.416C474.866 330.416 465.554 320.272 469.458 306.56C473.698 291.648 499.298 262.656 499.298 262.656Z" fill="#37474F"/>
<path d="M490.402 335.744L479.426 301.6L486.946 292.56L480.418 291.28C480.418 291.28 497.506 264.768 499.282 262.656C498.866 263.776 488.322 292.288 487.666 299.728C487.01 307.168 490.21 334.208 490.402 335.744Z" fill="#263238"/>
<path d="M514.21 294.848L517.41 306.288L490.402 335.792C490.898 334.88 507.154 305.6 511.202 296.032C517.49 280.944 518.882 259.92 518.882 259.92L521.81 292.72L514.21 294.848Z" fill="#263238"/>
<path d="M474.24 295.584C475.84 293.264 477.36 290.944 479.04 288.704C479.312 287.904 479.632 287.104 479.936 286.352C480.389 285.211 480.924 284.104 481.536 283.04C481.201 284.225 480.784 285.385 480.288 286.512L479.872 287.472C481.472 285.248 483.2 283.056 484.944 280.928C481.744 286.064 478.24 291.008 475.008 296.096C473.346 298.596 471.845 301.198 470.512 303.888C470.088 304.754 469.719 305.647 469.408 306.56C468.052 311.211 468.283 316.182 470.064 320.688C470.774 323.126 471.684 325.502 472.784 327.792C472.88 327.952 472.608 328.096 472.528 327.936C471.322 325.605 470.254 323.206 469.328 320.752C468.404 318.361 467.864 315.839 467.728 313.28C467.312 306.016 470.992 301.184 474.24 295.584Z" fill="#263238"/>
<path d="M490.401 335.809C490.401 339.153 490.401 342.481 490.305 345.825C490.209 349.169 490.017 352.497 489.873 355.825C489.729 359.153 489.457 362.481 489.169 365.809C488.881 369.137 488.577 372.465 488.145 375.777C488.145 372.433 488.145 369.089 488.241 365.761C488.337 362.433 488.529 359.089 488.673 355.761C488.817 352.433 489.089 349.105 489.377 345.777C489.665 342.449 489.969 339.121 490.401 335.809Z" fill="#263238"/>
<path d="M497.071 344.465C497.073 345.019 496.876 345.556 496.514 345.976C496.153 346.396 495.652 346.672 495.103 346.753C494.467 346.821 493.83 346.637 493.327 346.241C493.076 346.019 492.874 345.745 492.736 345.439C492.598 345.133 492.527 344.801 492.527 344.465C492.527 344.131 492.599 343.802 492.737 343.498C492.875 343.195 493.076 342.924 493.327 342.705C493.574 342.505 493.858 342.356 494.163 342.268C494.468 342.18 494.788 342.155 495.103 342.193C495.65 342.27 496.151 342.543 496.513 342.96C496.875 343.378 497.073 343.912 497.071 344.465ZM497.071 344.465C497.071 344.21 497.014 343.958 496.903 343.728C496.792 343.498 496.631 343.296 496.431 343.137C496.249 342.986 496.035 342.878 495.805 342.82C495.575 342.761 495.336 342.755 495.103 342.801C494.709 342.868 494.35 343.073 494.092 343.379C493.833 343.685 493.692 344.072 493.692 344.473C493.692 344.873 493.833 345.261 494.092 345.567C494.35 345.873 494.709 346.078 495.103 346.145C495.336 346.191 495.575 346.184 495.805 346.126C496.035 346.068 496.249 345.96 496.431 345.809C496.633 345.648 496.796 345.444 496.907 345.211C497.018 344.978 497.074 344.723 497.071 344.465Z" fill="#263238"/>
<path d="M496.467 356.831C496.466 357.297 496.323 357.751 496.057 358.133C495.792 358.515 495.416 358.807 494.98 358.97C494.544 359.133 494.069 359.159 493.618 359.045C493.167 358.931 492.761 358.683 492.455 358.332C492.149 357.982 491.957 357.546 491.905 357.084C491.853 356.621 491.943 356.154 492.163 355.744C492.383 355.334 492.723 355.001 493.138 354.789C493.552 354.578 494.021 354.498 494.483 354.559C495.034 354.63 495.54 354.9 495.906 355.319C496.272 355.737 496.471 356.276 496.467 356.831ZM496.467 356.831C496.458 356.575 496.397 356.324 496.287 356.092C496.177 355.861 496.02 355.655 495.827 355.487C495.44 355.203 494.957 355.082 494.483 355.151C494.093 355.228 493.742 355.437 493.49 355.743C493.238 356.05 493.1 356.434 493.1 356.831C493.1 357.228 493.238 357.613 493.49 357.919C493.742 358.226 494.093 358.435 494.483 358.511C494.718 358.55 494.958 358.54 495.189 358.483C495.421 358.425 495.637 358.32 495.827 358.175C496.02 358.008 496.177 357.802 496.287 357.57C496.397 357.339 496.458 357.087 496.467 356.831Z" fill="#263238"/>
<path d="M495.841 369.199C495.868 369.515 495.829 369.832 495.726 370.132C495.623 370.431 495.46 370.706 495.246 370.939C495.031 371.172 494.771 371.358 494.481 371.486C494.191 371.613 493.878 371.679 493.561 371.679C493.245 371.679 492.932 371.613 492.642 371.486C492.352 371.358 492.092 371.172 491.877 370.939C491.663 370.706 491.499 370.431 491.397 370.132C491.294 369.832 491.255 369.515 491.281 369.199C491.282 368.862 491.355 368.529 491.496 368.223C491.637 367.916 491.842 367.644 492.097 367.423C492.433 367.147 492.84 366.971 493.272 366.918C493.703 366.864 494.141 366.935 494.534 367.121C494.927 367.308 495.259 367.602 495.49 367.97C495.722 368.338 495.844 368.765 495.841 369.199ZM495.841 369.199C495.836 368.943 495.777 368.69 495.666 368.459C495.556 368.227 495.397 368.021 495.201 367.855C495.012 367.711 494.795 367.606 494.564 367.548C494.333 367.491 494.093 367.481 493.857 367.519C493.459 367.575 493.096 367.779 492.841 368.09C492.586 368.402 492.457 368.798 492.481 369.199C492.478 369.596 492.614 369.982 492.865 370.289C493.117 370.596 493.468 370.805 493.857 370.879C494.094 370.915 494.335 370.902 494.566 370.842C494.797 370.781 495.013 370.674 495.201 370.527C495.396 370.364 495.554 370.161 495.664 369.932C495.775 369.703 495.835 369.454 495.841 369.199Z" fill="#263238"/>
<path d="M521.09 347.12L547.554 342.32L548.386 345.744L521.714 350.576L521.09 347.12Z" fill="#263238"/>
<path d="M522.24 278.768C529.056 288.112 565.44 325.392 566.432 329.072C567.008 331.12 559.104 338.544 559.232 340.032C559.776 346.064 578.256 392.992 583.472 388.912C590.336 383.552 614.544 340.272 610.432 323.616C606.32 306.96 535.68 265.632 524.912 262.16C514.144 258.688 515.536 269.6 522.24 278.768Z" fill="#37474F"/>
<path d="M550.225 310.081C545.065 306.166 540.589 301.424 536.977 296.049C539.572 297.952 541.982 300.095 544.177 302.449C546.421 304.803 548.445 307.358 550.225 310.081Z" fill="#263238"/>
<path d="M538.289 301.104C539.396 301.311 540.472 301.66 541.489 302.144C542.523 302.6 543.491 303.192 544.369 303.904C543.26 303.704 542.184 303.354 541.169 302.864C540.136 302.407 539.167 301.815 538.289 301.104Z" fill="#263238"/>
<path d="M562.512 401.488C557.584 398.16 564.336 394.272 564.336 394.272C564.336 394.272 553.28 397.472 549.536 392.144C545.792 386.816 554.24 382.544 554.832 382.192C554.256 382.352 544.016 385.088 540.8 379.28C537.584 373.472 546.576 370.24 547.2 370.048C546.608 370.048 538.624 369.696 537.2 364.736C534.736 356.192 557.632 355.136 562.592 349.984C562.592 349.984 560.368 338.784 560.192 338.416C560.192 338.416 562.704 342.8 566.704 343.936C571.664 345.344 576.112 346.144 578.128 348.528C579.067 349.565 579.645 350.878 579.778 352.27C579.91 353.662 579.59 355.06 578.864 356.256C578.864 356.256 585.12 355.536 587.792 360.032C589.152 362.336 586.673 366.576 586.673 366.576C586.673 366.576 591.712 366.208 593.84 370.352C595.536 373.648 592.784 377.392 592.784 377.392C592.784 377.392 597.792 379.28 598.432 383.216C599.712 391.2 573.056 408.608 562.512 401.488Z" fill="#FFCFA4"/>
<path d="M592.402 378.049C592.498 378.049 592.594 378.049 592.53 378.161C584.902 386.382 574.951 392.086 564.002 394.513C563.65 394.593 563.394 394.049 563.762 393.905C574.024 390.03 583.671 384.689 592.402 378.049Z" fill="#263238"/>
<path d="M586.818 366.545C586.914 366.465 587.042 366.545 586.946 366.721C579.314 374.801 567.266 381.681 554.706 382.625C554.274 382.625 553.858 382.257 554.354 382.177C562.658 380.929 578.706 372.897 586.818 366.545Z" fill="#263238"/>
<path d="M546.274 369.808C558.29 368.448 568.674 363.408 578.546 356.624C578.674 356.528 578.786 356.72 578.69 356.816C574.754 361.44 568.002 365.088 562.498 367.472C557.467 369.785 551.917 370.74 546.402 370.24C546.098 370.208 546.018 369.84 546.274 369.808Z" fill="#263238"/>
<path d="M593.072 377.36C594.848 375.136 596.048 372.336 594.848 369.536C594.288 368.268 593.288 367.245 592.032 366.656C590.525 366.145 588.919 365.997 587.344 366.224C588.224 364.989 588.709 363.515 588.735 361.999C588.76 360.482 588.326 358.993 587.488 357.728C586.557 356.649 585.256 355.958 583.84 355.792C582.207 355.642 580.561 355.707 578.944 355.984C579.618 355.197 580.098 354.263 580.345 353.258C580.592 352.252 580.6 351.202 580.368 350.192C580.064 349.1 579.506 348.095 578.738 347.261C577.97 346.426 577.016 345.786 575.952 345.392C573.446 344.486 570.841 343.879 568.192 343.584C566.836 343.382 565.509 343.017 564.24 342.496C562.875 341.862 561.728 340.838 560.944 339.552C560.784 339.328 560.816 339.552 560.944 339.76C561.468 340.628 562.121 341.41 562.88 342.08C563.698 342.769 564.602 343.35 565.568 343.808C567.968 344.721 570.434 345.449 572.944 345.984C575.108 346.563 577.024 347.833 578.4 349.6C579.017 350.546 579.362 351.643 579.399 352.771C579.435 353.899 579.162 355.016 578.608 356C578.591 356.027 578.583 356.059 578.584 356.091C578.585 356.123 578.596 356.154 578.615 356.18C578.634 356.206 578.66 356.225 578.69 356.236C578.72 356.247 578.753 356.248 578.784 356.24C580.25 356.216 581.713 356.383 583.136 356.736C584.326 357.042 585.393 357.707 586.192 358.64C586.944 359.802 587.375 361.142 587.443 362.525C587.51 363.907 587.211 365.283 586.576 366.512C588.164 366.638 589.718 367.039 591.168 367.696C592.097 368.28 592.845 369.111 593.328 370.096C593.884 371.232 594.111 372.501 593.983 373.759C593.856 375.017 593.38 376.214 592.608 377.216C592.601 377.248 592.601 377.281 592.608 377.312C592.608 377.312 592.608 377.312 592.608 377.392C592.608 377.392 594.208 378.048 594.288 378.064C594.368 378.08 594.288 378.064 594.288 377.968C593.897 377.739 593.491 377.536 593.072 377.36Z" fill="#263238"/>
<path d="M508.93 397.216L486.818 310.848L421.586 328.72L443.698 415.104L508.93 397.216Z" fill="#2466FF"/>
<path d="M423.89 358.033L417.074 331.409L421.586 328.721L428.978 357.553L423.89 358.033Z" fill="#2466FF"/>
<g opacity="0.2">
<path d="M508.93 397.216L486.818 310.848L421.586 328.72L443.698 415.104L508.93 397.216Z" fill="black"/>
<path d="M423.89 358.031L417.074 331.407L421.586 328.719L428.978 357.551L423.89 358.031Z" fill="black"/>
</g>
<path d="M508.899 397.072L486.739 310.496L422.883 323.888L445.059 410.464L508.899 397.072Z" fill="#2466FF"/>
<path opacity="0.1" d="M508.899 397.072L486.739 310.496L422.883 323.888L445.059 410.464L508.899 397.072Z" fill="black"/>
<path d="M492.898 333.04C493.858 333.996 494.501 335.224 494.741 336.557C494.982 337.89 494.807 339.265 494.242 340.496C496.505 340.935 498.543 342.152 500.002 343.936C502.418 347.136 498.402 352.416 498.402 352.416C500.656 353.351 502.575 354.946 503.906 356.992C505.906 360.352 502.578 366.192 502.578 366.192C504.146 368.211 504.935 370.727 504.802 373.28C504.226 380.096 494.93 384.88 489.058 387.968C483.186 391.056 463.618 394.368 459.954 395.36L439.746 357.824C439.746 357.824 462.146 336.432 469.554 333.824C475.842 331.52 489.09 329.52 492.898 333.04Z" fill="#FFCFA4"/>
<path d="M442.403 355.344C435.699 360.608 415.651 380.944 420.547 391.008C425.443 401.072 441.747 399.888 464.339 394.4L442.403 355.344Z" fill="#FFCFA4"/>
<path d="M493.602 340C486.37 340.784 479.778 343.68 473.026 346.176C472.882 346.176 473.026 346.464 473.122 346.4C479.794 343.84 486.898 342.64 493.682 340.336C493.719 340.319 493.749 340.29 493.767 340.253C493.785 340.217 493.789 340.175 493.78 340.135C493.771 340.096 493.748 340.06 493.715 340.036C493.683 340.011 493.643 339.999 493.602 340Z" fill="#263238"/>
<path d="M497.985 351.984C496.365 352.31 494.794 352.848 493.313 353.584C491.703 354.278 490.103 354.998 488.513 355.744C485.313 357.227 482.167 358.795 479.073 360.448C478.945 360.448 479.073 360.752 479.169 360.688C482.369 359.206 485.569 357.787 488.769 356.432C490.369 355.76 491.969 355.088 493.569 354.448C495.148 353.931 496.666 353.244 498.097 352.4C498.126 352.369 498.147 352.33 498.157 352.288C498.167 352.247 498.166 352.203 498.155 352.162C498.144 352.12 498.122 352.082 498.093 352.051C498.063 352.02 498.026 351.997 497.985 351.984Z" fill="#263238"/>
<path d="M502.401 366.256C500.939 366.584 499.543 367.157 498.273 367.952L493.953 370.064C491.057 371.44 488.177 372.832 485.249 374.112C485.105 374.112 485.249 374.416 485.329 374.352C488.321 373.056 491.329 371.808 494.305 370.496L498.673 368.528C500.057 368.046 501.346 367.326 502.481 366.4C502.481 366.4 502.465 366.256 502.401 366.256Z" fill="#263238"/>
<path d="M442.403 355.344C435.699 360.608 415.651 380.944 420.547 391.008C425.443 401.072 441.347 402.704 462.979 399.168L442.403 355.344Z" fill="#37474F"/>
<path d="M441.587 355.695C439.221 357.48 436.986 359.431 434.899 361.535L433.299 363.135L432.627 363.583C431.667 364.239 430.723 364.911 429.827 365.647C428.102 367.122 426.477 368.709 424.963 370.399C424.851 370.527 425.043 370.687 425.155 370.575C426.773 368.997 428.511 367.547 430.355 366.239L431.091 365.727C430.211 366.735 429.347 367.743 428.563 368.799C426.435 371.586 424.485 374.504 422.723 377.535C422.716 377.562 422.718 377.59 422.728 377.615C422.738 377.64 422.756 377.661 422.78 377.676C422.803 377.69 422.83 377.696 422.857 377.694C422.884 377.692 422.91 377.681 422.931 377.663C426.131 372.287 440.531 357.871 442.019 356.143C443.507 354.415 442.771 354.703 441.587 355.695Z" fill="#263238"/>
<path d="M518.127 265.745C517.599 267.601 509.887 277.265 501.327 276.449C498.543 276.193 497.503 262.993 497.503 262.993L497.311 261.857L494.527 245.857L513.727 234.833L516.479 233.393C516.479 233.393 516.959 237.809 517.487 243.313C517.487 243.569 517.487 243.825 517.487 244.097C517.487 244.369 517.567 244.705 517.599 244.993C517.679 245.825 517.775 246.593 517.839 247.505C517.903 248.417 517.951 248.753 517.999 249.425C518.047 250.097 518.079 250.753 518.127 251.425C518.468 256.192 518.468 260.977 518.127 265.745Z" fill="#FFCFA4"/>
<path d="M517.439 243.329C515.628 247.692 512.89 251.609 509.415 254.808C505.939 258.007 501.809 260.412 497.311 261.857L494.527 245.857L513.727 234.833L516.479 233.393C516.479 233.393 516.911 237.825 517.439 243.329Z" fill="#263238"/>
<path d="M476.963 214.64C469.955 242.24 485.699 249.536 491.635 251.04C497.043 252.416 515.635 256.368 525.427 229.648C535.219 202.928 524.627 190.96 512.435 187.184C500.243 183.408 484.003 187.056 476.963 214.64Z" fill="#FFCFA4"/>
<path d="M485.601 210.896C486.273 210.896 486.897 210.896 487.569 210.896C488.262 211.003 488.97 210.879 489.585 210.544C489.757 210.402 489.876 210.208 489.926 209.991C489.975 209.774 489.951 209.546 489.857 209.344C489.614 208.971 489.275 208.669 488.875 208.472C488.475 208.275 488.03 208.19 487.585 208.224C486.668 208.146 485.754 208.414 485.025 208.976C484.853 209.109 484.724 209.29 484.657 209.497C484.591 209.704 484.588 209.927 484.651 210.135C484.713 210.343 484.838 210.528 485.007 210.664C485.177 210.8 485.384 210.881 485.601 210.896Z" fill="#C7C7C7"/>
<path d="M504.801 215.407C504.177 215.183 503.633 214.879 503.025 214.591C502.377 214.372 501.817 213.952 501.425 213.391C501.336 213.187 501.316 212.959 501.368 212.743C501.42 212.526 501.541 212.332 501.713 212.191C502.099 211.966 502.538 211.848 502.985 211.848C503.432 211.848 503.871 211.966 504.257 212.191C505.109 212.53 505.808 213.167 506.225 213.983C506.309 214.182 506.331 214.402 506.289 214.614C506.248 214.825 506.144 215.02 505.991 215.173C505.838 215.326 505.644 215.429 505.432 215.471C505.22 215.513 505 215.49 504.801 215.407Z" fill="#C7C7C7"/>
<path d="M498.866 221.215C498.866 221.135 498.978 221.343 498.962 221.407C498.418 223.279 498.114 225.503 499.666 226.559C499.666 226.559 499.666 226.687 499.666 226.655C497.618 225.839 498.05 222.879 498.866 221.215Z" fill="#263238"/>
<path d="M501.04 219.679C504.112 220.223 502.8 226.335 499.952 225.839C497.104 225.343 498.4 219.215 501.04 219.679Z" fill="#263238"/>
<path d="M502.178 220.256C502.626 220.72 503.026 221.44 503.65 221.648C504.274 221.856 505.09 221.36 505.698 220.848C505.698 220.848 505.81 220.848 505.794 220.944C505.554 222.112 504.85 223.216 503.554 223.12C502.258 223.024 501.778 221.824 501.73 220.576C501.73 220.352 501.986 220 502.178 220.256Z" fill="#263238"/>
<path d="M487.888 218.256C487.888 218.256 487.728 218.256 487.712 218.4C487.376 220.304 486.688 222.448 484.832 222.72C484.832 222.72 484.832 222.816 484.832 222.832C486.992 222.96 487.888 220.128 487.888 218.256Z" fill="#263238"/>
<path d="M486.608 215.936C483.6 215.072 482.096 221.136 484.88 221.936C487.664 222.736 489.12 216.656 486.608 215.936Z" fill="#263238"/>
<path d="M485.247 216.017C484.687 216.225 484.063 216.689 483.487 216.577C482.911 216.465 482.479 215.681 482.207 214.977C482.207 214.977 482.111 214.977 482.095 214.977C481.775 216.129 481.871 217.441 482.927 217.937C483.983 218.433 484.879 217.569 485.439 216.481C485.599 216.305 485.471 215.937 485.247 216.017Z" fill="#263238"/>
<path d="M494.287 236.72C493.801 237.207 493.163 237.511 492.479 237.584C491.774 237.442 491.105 237.159 490.511 236.752C490.511 236.752 490.383 236.752 490.415 236.752C490.627 237.175 490.948 237.533 491.344 237.789C491.741 238.045 492.199 238.19 492.671 238.208C493.076 238.168 493.459 238.01 493.775 237.754C494.091 237.498 494.324 237.156 494.447 236.768C494.495 236.736 494.351 236.672 494.287 236.72Z" fill="#263238"/>
<path d="M487.664 231.984C488.167 233.231 488.976 234.332 490.016 235.184C490.578 235.653 491.271 235.938 492 236C493.6 236 494.048 234.672 494.128 233.424C494.152 232.754 494.104 232.083 493.984 231.424C491.99 232.275 489.777 232.471 487.664 231.984Z" fill="#263238"/>
<path d="M490.016 235.232C490.583 235.684 491.276 235.952 492 236C493.6 236 494.048 234.672 494.128 233.424C493.339 233.227 492.507 233.297 491.762 233.624C491.018 233.952 490.403 234.517 490.016 235.232Z" fill="#FFCFA4"/>
<path d="M487.923 228.096C487.923 228.096 486.899 230.832 486.595 232.176C486.595 232.288 486.883 232.432 487.331 232.56C488.428 233.027 489.632 233.183 490.811 233.011C491.991 232.839 493.101 232.345 494.019 231.584C494.131 231.472 494.019 231.296 493.859 231.344C491.898 232.129 489.735 232.253 487.699 231.696C487.699 231.312 489.619 227.072 489.411 227.008C488.348 226.871 487.273 226.871 486.211 227.008C488.195 221.248 491.011 215.808 492.963 210.096C492.963 209.888 492.739 209.76 492.643 209.936C489.387 215.623 486.707 221.621 484.643 227.84C484.371 228.592 487.347 228.208 487.923 228.096Z" fill="#263238"/>
<g opacity="0.2">
<path d="M498.035 206.928C496.893 206.752 495.765 206.495 494.659 206.16C493.539 205.792 492.515 205.2 491.459 204.832C489.31 204.269 487.078 204.091 484.867 204.304C484.675 204.304 484.675 204.432 484.867 204.432C487.201 204.302 489.536 204.673 491.715 205.52C493.444 206.354 495.28 206.946 497.171 207.28C501.523 207.92 505.715 209.104 508.963 212.224C505.928 209.411 502.123 207.567 498.035 206.928Z" fill="black"/>
<path d="M499.012 204C497.93 203.833 496.861 203.593 495.812 203.28C494.756 202.912 493.796 202.352 492.724 202.016C490.686 201.475 488.567 201.301 486.468 201.504C486.292 201.504 486.292 201.632 486.468 201.632C488.682 201.504 490.897 201.854 492.964 202.656C494.605 203.424 496.344 203.963 498.132 204.256C502.268 204.603 506.189 206.249 509.332 208.96C506.46 206.32 502.868 204.594 499.012 204Z" fill="black"/>
</g>
<path d="M522.674 230.064C518.146 229.344 519.314 219.776 519.314 219.776C519.314 219.776 510.274 217.68 510.37 203.968C509.699 207.925 510.205 211.992 511.826 215.664C511.826 215.664 496.29 210.208 492.722 195.28C492.722 195.28 493.794 202.72 495.73 205.728C495.73 205.728 489.49 202.272 487.506 196.128C487.506 196.128 482.898 203.168 480.258 204.784C480.258 204.784 483.906 167.344 516.706 187.52C516.706 187.52 531.378 190.88 534.162 205.12C536.946 219.36 522.674 230.064 522.674 230.064Z" fill="#C7C7C7"/>
<path d="M522.899 239.839C522.451 239.926 521.995 239.969 521.539 239.967C521.089 239.973 520.641 239.909 520.211 239.775C519.624 239.642 519.076 239.373 518.611 238.991C518.256 238.706 517.944 238.372 517.683 237.999C517.31 237.467 517.039 236.87 516.883 236.239L519.651 228.991C519.651 228.991 527.235 221.231 530.851 224.063C534.467 226.895 527.859 238.863 522.899 239.839Z" fill="#FFCFA4"/>
<path d="M528.913 227.44V227.568C525.425 228.368 523.201 231.12 521.473 234.08C521.722 233.787 522.032 233.551 522.382 233.389C522.731 233.228 523.112 233.144 523.497 233.144C523.882 233.144 524.262 233.228 524.612 233.389C524.961 233.551 525.271 233.787 525.521 234.08C525.601 234.08 525.521 234.272 525.409 234.24C524.862 233.961 524.241 233.858 523.634 233.947C523.026 234.036 522.461 234.312 522.017 234.736C521.276 235.446 520.616 236.234 520.049 237.088C519.857 237.344 519.345 237.088 519.521 236.784C520.161 232.448 524.353 227.136 528.913 227.44Z" fill="#263238"/>
<path d="M522.69 238.592C522.629 238.754 522.537 238.903 522.419 239.03C522.301 239.156 522.159 239.258 522.002 239.329C521.844 239.401 521.674 239.44 521.501 239.445C521.328 239.451 521.155 239.422 520.994 239.36C520.669 239.235 520.406 238.987 520.263 238.669C520.119 238.352 520.106 237.991 520.226 237.664C520.286 237.502 520.378 237.354 520.496 237.227C520.614 237.101 520.756 236.999 520.914 236.927C521.072 236.856 521.242 236.816 521.415 236.811C521.588 236.806 521.76 236.835 521.922 236.896C522.085 236.955 522.235 237.046 522.363 237.164C522.491 237.281 522.593 237.423 522.665 237.582C522.737 237.74 522.776 237.911 522.78 238.084C522.784 238.258 522.754 238.431 522.69 238.592Z" fill="white"/>
<path d="M525.696 237.072C525.607 237.301 525.43 237.485 525.205 237.584C524.981 237.683 524.725 237.688 524.496 237.6C524.38 237.559 524.274 237.495 524.183 237.412C524.092 237.329 524.019 237.228 523.968 237.116C523.917 237.004 523.89 236.882 523.887 236.759C523.884 236.636 523.906 236.514 523.952 236.4C523.995 236.285 524.06 236.18 524.143 236.09C524.227 236 524.327 235.928 524.439 235.878C524.551 235.827 524.671 235.799 524.793 235.795C524.916 235.792 525.038 235.812 525.152 235.856C525.383 235.949 525.568 236.127 525.67 236.354C525.771 236.581 525.781 236.838 525.696 237.072Z" fill="white"/>
<path d="M497.281 262.192L502.657 274.992L518.417 258.4L523.041 263.568C523.041 263.568 507.777 289.712 507.649 288.544L502.177 277.6L494.625 285.456L494.945 266.032L497.281 262.192Z" fill="#EBEBEB"/>
<path d="M494.239 275.793C494.399 272.593 494.463 269.393 494.783 266.193C494.783 266.081 494.959 266.017 494.991 266.193C495.679 269.265 494.991 281.521 494.991 284.449C495.295 284.113 501.983 277.537 502.063 277.633C503.231 279.377 507.263 287.409 507.535 288.145C509.951 283.985 519.215 268.945 522.079 264.945C522.094 264.917 522.119 264.897 522.149 264.888C522.179 264.879 522.212 264.882 522.239 264.897C522.267 264.912 522.287 264.937 522.296 264.967C522.305 264.997 522.302 265.029 522.287 265.057C520.159 269.425 507.887 289.777 507.711 289.713C505.601 285.932 503.689 282.044 501.983 278.065C500.847 279.489 494.111 286.897 494.079 286.417C493.946 282.875 493.999 279.329 494.239 275.793Z" fill="#263238"/>
</svg>
