<svg width="1000" height="1000" viewBox="0 0 1000 1000" fill="none" xmlns="http://www.w3.org/2000/svg">
<path d="M746.61 208.8H565.602C565.602 208.8 583.554 159.76 611.186 159.76C638.818 159.76 647.474 193.616 647.474 193.616C647.474 193.616 666.034 175.2 681.346 175.2C696.658 175.2 709.986 199.504 709.986 199.504C709.986 199.504 731.618 186.496 746.61 208.8Z" fill="#EBEBEB"/>
<path d="M365.073 261.952H280.449C280.449 261.952 299.361 234.56 314.257 234.56C329.153 234.56 333.601 252.816 333.601 252.816C333.601 252.816 344.129 244.304 353.857 245.824C363.585 247.344 365.073 261.952 365.073 261.952Z" fill="#EBEBEB"/>
<path d="M846.546 328.944H761.922C761.922 328.944 780.834 301.6 795.73 301.6C810.626 301.6 815.026 319.872 815.026 319.872C815.026 319.872 825.554 311.344 835.282 312.864C845.01 314.384 846.546 328.944 846.546 328.944Z" fill="#EBEBEB"/>
<path d="M318.288 330.607H153.488C153.488 330.607 176.064 280.207 200.208 277.055C224.352 273.903 235.904 314.495 235.904 314.495C235.904 314.495 251.472 300.095 263.728 300.095C275.984 300.095 285.424 318.991 285.424 318.991C285.424 318.991 309.888 306.095 318.288 330.607Z" fill="#EBEBEB"/>
<path d="M213.136 462.815C213.136 462.815 246.736 537.567 191.792 537.567C136.848 537.567 172.464 460.271 172.464 460.271C172.464 460.271 159.744 454.671 174.496 412.975C189.248 371.279 195.84 371.279 201.952 371.279C209.696 371.279 216.896 389.327 211.552 417.039C211.616 417.039 230.944 451.615 213.136 462.815Z" fill="#EBEBEB"/>
<path d="M186.914 587.135L192.21 474.527L197.506 587.135H186.914Z" fill="#A6A6A6"/>
<path d="M190.047 521.744L210.015 498.432L194.351 524.832L190.047 521.744Z" fill="#A6A6A6"/>
<path d="M779.999 470.848C779.999 470.848 764.335 464.64 751.903 486.256C739.103 508.448 755.103 523.056 767.823 514.352C767.823 514.352 777.759 535.152 797.647 530.272C817.535 525.392 820.767 509.376 820.767 509.376C820.767 509.376 838.367 510.624 838.911 497.456C839.455 484.288 826.399 472.592 826.399 472.592C826.399 472.592 825.662 439.776 804.286 440.016C782.91 440.256 779.999 470.848 779.999 470.848Z" fill="#DBDBDB"/>
<path d="M794.496 587.136L798.976 489.504L803.44 587.136H794.496Z" fill="#A6A6A6"/>
<path d="M797.058 525.008L783.922 498.8L800.882 522.704L797.058 525.008Z" fill="#A6A6A6"/>
<path d="M674.112 835.441C770.271 835.441 848.224 822.518 848.224 806.577C848.224 790.636 770.271 777.713 674.112 777.713C577.953 777.713 500 790.636 500 806.577C500 822.518 577.953 835.441 674.112 835.441Z" fill="#EBEBEB"/>
<path d="M880.287 721.471H119.711V736.255H880.287V721.471Z" fill="#C7C7C7"/>
<path d="M173.037 721.471C174.232 726.326 174.232 731.399 173.037 736.255C171.821 731.402 171.821 726.324 173.037 721.471Z" fill="#263238"/>
<path d="M232.479 721.471C233.696 726.324 233.696 731.402 232.479 736.255C231.835 733.845 231.534 731.357 231.583 728.863C231.55 726.37 231.851 723.883 232.479 721.471Z" fill="#263238"/>
<path d="M291.998 721.471C292.627 723.883 292.928 726.37 292.894 728.863C292.936 731.356 292.634 733.843 291.998 736.255C290.782 731.402 290.782 726.324 291.998 721.471Z" fill="#263238"/>
<path d="M351.374 721.471C352.59 726.324 352.59 731.402 351.374 736.255C350.73 733.845 350.428 731.357 350.478 728.863C350.444 726.37 350.745 723.883 351.374 721.471Z" fill="#263238"/>
<path d="M410.83 721.471C411.459 723.883 411.76 726.37 411.726 728.863C411.776 731.357 411.474 733.845 410.83 736.255C409.614 731.402 409.614 726.324 410.83 721.471Z" fill="#263238"/>
<path d="M470.272 721.471C471.489 726.324 471.489 731.402 470.272 736.255C469.628 733.845 469.327 731.357 469.376 728.863C469.342 726.37 469.644 723.883 470.272 721.471Z" fill="#263238"/>
<path d="M529.729 721.471C530.357 723.883 530.659 726.37 530.625 728.863C530.675 731.357 530.373 733.845 529.729 736.255C528.512 731.402 528.512 726.324 529.729 721.471Z" fill="#263238"/>
<path d="M589.167 721.471C590.383 726.324 590.383 731.402 589.167 736.255C588.523 733.845 588.221 731.357 588.271 728.863C588.237 726.37 588.538 723.883 589.167 721.471Z" fill="#263238"/>
<path d="M648.623 721.471C649.252 723.883 649.553 726.37 649.519 728.863C649.569 731.357 649.267 733.845 648.623 736.255C647.407 731.402 647.407 726.324 648.623 721.471Z" fill="#263238"/>
<path d="M707.997 721.471C709.214 726.324 709.214 731.402 707.997 736.255C707.361 733.843 707.06 731.356 707.101 728.863C707.068 726.37 707.369 723.883 707.997 721.471Z" fill="#263238"/>
<path d="M767.518 721.471C768.146 723.883 768.448 726.37 768.414 728.863C768.464 731.357 768.162 733.845 767.518 736.255C766.301 731.402 766.301 726.324 767.518 721.471Z" fill="#263238"/>
<path d="M826.958 721.471C828.175 726.324 828.175 731.402 826.958 736.255C825.764 731.399 825.764 726.326 826.958 721.471Z" fill="#263238"/>
<path d="M119.711 721.471L187.135 695.711H829.071L880.287 721.471H119.711Z" fill="#DBDBDB"/>
<path d="M414.399 586.863H473.039L538.175 695.711H347.359L414.399 586.863Z" fill="#DBDBDB"/>
<path d="M347.359 695.711L371.215 695.423L395.071 695.263L442.767 695.119L490.463 695.263L514.319 695.423L538.175 695.711L514.319 696.015L490.463 696.175L442.767 696.319L395.071 696.175L371.215 696.015L347.359 695.711Z" fill="#C7C7C7"/>
<path d="M521.967 668.639L502.223 668.927L482.479 669.103L443.007 669.231L403.519 669.103L383.775 668.927L364.031 668.639L383.775 668.351L403.519 668.175L443.007 668.031L482.479 668.175L502.223 668.351L521.967 668.639Z" fill="#C7C7C7"/>
<path d="M507.694 644.768L491.582 645.056L475.454 645.232L443.214 645.376L410.974 645.232L394.846 645.056L378.734 644.768L394.846 644.48L410.974 644.304L443.214 644.176L475.454 644.304L491.582 644.48L507.694 644.768Z" fill="#C7C7C7"/>
<path d="M494.353 622.479C485.857 622.719 477.377 622.847 468.881 622.943L443.409 623.071L417.937 622.943C409.441 622.847 400.961 622.735 392.465 622.479C400.961 622.223 409.441 622.111 417.937 622.015L443.409 621.887L468.881 622.015C477.377 622.111 485.857 622.239 494.353 622.479Z" fill="#C7C7C7"/>
<path d="M484.398 605.856C477.582 606.096 470.782 606.224 463.982 606.32L443.55 606.448L423.198 606.32C416.382 606.224 409.582 606.112 402.766 605.856C409.582 605.6 416.382 605.488 423.198 605.392L443.614 605.264L464.046 605.392C470.782 605.488 477.598 605.6 484.398 605.856Z" fill="#C7C7C7"/>
<path d="M476.767 593.088C471.247 593.328 465.727 593.456 460.207 593.552C454.687 593.648 449.183 593.552 443.663 593.68C438.143 593.808 432.623 593.68 427.119 593.552C421.615 593.424 416.079 593.344 410.559 593.088C416.079 592.832 421.599 592.72 427.119 592.624C432.639 592.528 438.143 592.528 443.663 592.496C449.183 592.464 454.703 592.496 460.207 592.624C465.711 592.752 471.199 592.8 476.767 593.088Z" fill="#C7C7C7"/>
<path d="M338.48 695.713H252.176C252.176 695.713 252.368 682.913 260.864 679.473C263.159 678.467 265.72 678.236 268.159 678.813C270.597 679.39 272.782 680.745 274.384 682.673C274.384 682.673 277.84 659.057 293.664 659.057C309.488 659.057 317.04 679.441 317.04 679.441C317.04 679.441 320.576 673.281 329.36 674.417C338.144 675.553 338.48 695.713 338.48 695.713Z" fill="#37474F"/>
<path d="M828.431 695.712C828.431 695.712 825.791 683.376 820.511 681.472C815.231 679.568 811.999 685.104 811.999 685.104C811.999 685.104 810.767 673.312 803.263 669.792C795.759 666.272 790.159 673.488 790.159 673.488C790.159 673.488 784.399 658.512 774.159 658.512C763.919 658.512 758.703 680.416 758.703 680.416C758.703 680.416 752.655 673.888 746.431 677.568C740.207 681.248 740.223 695.712 740.223 695.712H828.431Z" fill="#37474F"/>
<path d="M267.648 695.711H188C188 695.711 190.608 684.511 195.888 683.711C201.168 682.911 203.632 688.111 203.632 688.111C203.632 688.111 203.392 672.463 213.232 669.791C223.072 667.119 231.344 680.991 231.344 680.991C231.344 680.991 237.536 673.103 245.952 673.615C254.368 674.127 256.512 687.135 256.512 687.135C256.512 687.135 264.256 682.591 267.648 695.711Z" fill="#455A64"/>
<path d="M745.888 695.711H696.992C696.992 695.711 697.104 688.447 701.92 686.511C703.224 685.943 704.677 685.816 706.06 686.148C707.443 686.48 708.68 687.253 709.584 688.351C709.584 688.351 711.536 674.959 720.496 674.959C729.456 674.959 733.744 686.511 733.744 686.511C734.505 685.411 735.57 684.556 736.809 684.05C738.047 683.544 739.406 683.41 740.72 683.663C745.696 684.319 745.888 695.711 745.888 695.711Z" fill="#455A64"/>
<path d="M452.031 362.239L459.823 421.855L478.783 420.271V368.943L452.031 362.239Z" fill="#455A64"/>
<path d="M412.64 442.063V566.672H216.352V458.463L412.64 442.063Z" fill="#37474F"/>
<path d="M478.781 436.544V566.672H412.637V442.064L478.781 436.544Z" fill="#455A64"/>
<path d="M412.637 441.439C418.157 441.295 423.661 441.183 429.181 441.135L445.709 441.039L462.253 441.135C467.757 441.135 473.277 441.295 478.781 441.439C473.277 441.599 467.757 441.695 462.253 441.759L445.709 441.839L429.181 441.743C423.661 441.695 418.157 441.583 412.637 441.439Z" fill="#37474F"/>
<path d="M412.637 448.528C418.157 448.384 423.661 448.272 429.181 448.224L445.709 448.128H462.253C467.757 448.128 473.277 448.288 478.781 448.448C473.277 448.592 467.757 448.704 462.253 448.752L445.709 448.848L429.181 448.8C423.661 448.8 418.157 448.672 412.637 448.528Z" fill="#37474F"/>
<path d="M412.637 455.599C418.157 455.455 423.661 455.343 429.181 455.295L445.709 455.199L462.253 455.295C467.757 455.295 473.277 455.455 478.781 455.599C473.277 455.743 467.757 455.855 462.253 455.903L445.709 455.999L429.181 455.903C423.661 455.855 418.157 455.743 412.637 455.599Z" fill="#37474F"/>
<path d="M412.637 462.671C418.157 462.527 423.661 462.431 429.181 462.367H445.709H462.253C467.757 462.367 473.277 462.527 478.781 462.671C473.277 462.831 467.757 462.927 462.253 462.991H445.709H429.181C423.661 462.927 418.157 462.831 412.637 462.671Z" fill="#37474F"/>
<path d="M412.637 469.759C418.157 469.615 423.661 469.503 429.181 469.455L445.709 469.359L462.253 469.455C467.757 469.455 473.277 469.615 478.781 469.759C473.277 469.903 467.757 470.015 462.253 470.063L445.709 470.159L429.181 470.063C423.661 470.015 418.157 469.903 412.637 469.759Z" fill="#37474F"/>
<path d="M412.637 476.832C418.157 476.688 423.661 476.576 429.181 476.528L445.709 476.432L462.253 476.528C467.757 476.528 473.277 476.688 478.781 476.832C473.277 476.992 467.757 477.088 462.253 477.136L445.709 477.232L429.181 477.136C423.661 477.088 418.157 476.976 412.637 476.832Z" fill="#37474F"/>
<path d="M412.637 484C418.157 483.84 423.661 483.744 429.181 483.696L445.709 483.6L462.253 483.68C467.757 483.68 473.277 483.84 478.781 484C473.277 484.144 467.757 484.256 462.253 484.304L445.709 484.4L429.181 484.304C423.661 484.16 418.157 484 412.637 484Z" fill="#37474F"/>
<path d="M412.637 490.992C418.157 490.848 423.661 490.736 429.181 490.688L445.709 490.592L462.253 490.688C467.757 490.688 473.277 490.848 478.781 490.992C473.277 491.136 467.757 491.248 462.253 491.296L445.709 491.392L429.181 491.296C423.661 491.248 418.157 491.136 412.637 490.992Z" fill="#37474F"/>
<path d="M412.637 498.063C418.157 497.919 423.661 497.823 429.181 497.759L445.709 497.663L462.253 497.759C467.757 497.759 473.277 497.919 478.781 498.063C473.277 498.223 467.757 498.319 462.253 498.383H445.709H429.181C423.661 498.399 418.157 498.223 412.637 498.063Z" fill="#37474F"/>
<path d="M412.637 505.152C418.157 505.008 423.661 504.896 429.181 504.848L445.709 504.752L462.253 504.848C467.757 504.848 473.277 505.008 478.781 505.152C473.277 505.296 467.757 505.408 462.253 505.456L445.709 505.552L429.181 505.456C423.661 505.408 418.157 505.296 412.637 505.152Z" fill="#37474F"/>
<path d="M412.637 512.223C418.157 512.079 423.661 511.967 429.181 511.919L445.709 511.823L462.253 511.919C467.757 511.919 473.277 512.079 478.781 512.223C473.277 512.367 467.757 512.479 462.253 512.527L445.709 512.623L429.181 512.527C423.661 512.479 418.157 512.367 412.637 512.223Z" fill="#37474F"/>
<path d="M412.637 519.311C418.157 519.151 423.661 519.055 429.181 518.991L445.709 518.911L462.253 518.991C467.757 518.991 473.277 519.151 478.781 519.311C473.277 519.455 467.757 519.551 462.253 519.615L445.709 519.711L429.181 519.615C423.661 519.551 418.157 519.455 412.637 519.311Z" fill="#37474F"/>
<path d="M412.637 526.384C418.157 526.24 423.661 526.128 429.181 526.08L445.709 525.984L462.253 526.08C467.757 526.08 473.277 526.24 478.781 526.384C473.277 526.528 467.757 526.64 462.253 526.688L445.709 526.784L429.181 526.688C423.661 526.64 418.157 526.528 412.637 526.384Z" fill="#37474F"/>
<path d="M412.637 533.455C418.157 533.311 423.661 533.215 429.181 533.151L445.709 533.055L462.253 533.151C467.757 533.151 473.277 533.311 478.781 533.455C473.277 533.615 467.757 533.711 462.253 533.775L445.709 533.855L429.181 533.775C423.661 533.711 418.157 533.599 412.637 533.455Z" fill="#37474F"/>
<path d="M412.637 540.543C418.157 540.399 423.661 540.287 429.181 540.239L445.709 540.143L462.253 540.239C467.757 540.239 473.277 540.399 478.781 540.543C473.277 540.687 467.757 540.799 462.253 540.847L445.709 540.943L429.181 540.847C423.661 540.799 418.157 540.687 412.637 540.543Z" fill="#37474F"/>
<path d="M412.637 547.615C418.157 547.471 423.661 547.359 429.181 547.311L445.709 547.215L462.253 547.311C467.757 547.311 473.277 547.471 478.781 547.615C473.277 547.759 467.757 547.871 462.253 547.919L445.709 548.015L429.181 547.999C423.661 547.871 418.157 547.759 412.637 547.615Z" fill="#37474F"/>
<path d="M412.637 554.703C418.157 554.543 423.661 554.447 429.181 554.383L445.709 554.303L462.253 554.383C467.757 554.383 473.277 554.543 478.781 554.703C473.277 554.847 467.757 554.943 462.253 555.007L445.709 555.103L429.181 555.007C423.661 554.943 418.157 554.847 412.637 554.703Z" fill="#37474F"/>
<path d="M412.637 561.775C418.157 561.631 423.661 561.519 429.181 561.471L445.709 561.375L462.253 561.471C467.757 561.471 473.277 561.631 478.781 561.775C473.277 561.919 467.757 562.031 462.253 562.079L445.709 562.175L429.181 562.079C423.661 562.031 418.157 561.919 412.637 561.775Z" fill="#37474F"/>
<path d="M184.477 461.135V444.863L478.781 420.271V436.543L184.477 461.135Z" fill="#263238"/>
<path d="M216.349 467.328V458.464L184.477 461.136L216.349 467.328Z" fill="#37474F"/>
<path d="M377.406 471.407H251.582V528.927H377.406V471.407Z" fill="#263238"/>
<path d="M291.965 476.304H256.445V524.048H291.965V476.304Z" fill="#455A64"/>
<path d="M332.254 476.304H296.734V524.048H332.254V476.304Z" fill="#455A64"/>
<path d="M372.559 476.304H337.039V524.048H372.559V476.304Z" fill="#455A64"/>
<g opacity="0.1">
<path d="M285.341 476.304L256.445 505.2V489.392L269.533 476.304H285.341Z" fill="white"/>
<path d="M372.543 505.216V521.008L369.519 524.032H353.711L372.543 505.216Z" fill="white"/>
<path d="M264.492 524.032L291.948 496.576V504.48L272.396 524.032H264.492Z" fill="white"/>
<path d="M320.126 476.304L296.734 499.696V491.792L312.222 476.304H320.126Z" fill="white"/>
<path d="M372.543 488.191V496.095L344.607 524.031H337.039V523.695L372.543 488.191Z" fill="white"/>
<path d="M308.094 524.032L332.254 499.872V501.856L310.078 524.032H308.094Z" fill="white"/>
<path d="M357.807 476.304L337.039 497.072V495.088L355.823 476.304H357.807Z" fill="white"/>
<path d="M256.859 524.031L291.947 488.943V490.911L258.827 524.031H256.859Z" fill="white"/>
<path d="M306.558 476.304L296.734 486.128V484.16L304.59 476.304H306.558Z" fill="white"/>
</g>
<path d="M466.703 471.407H424.719V566.671H466.703V471.407Z" fill="#263238"/>
<path d="M434.448 522.928H426.656V525.088H434.448V522.928Z" fill="#DBDBDB"/>
<path d="M461.231 476.304H430.191V520.784H461.231V476.304Z" fill="#37474F"/>
<path d="M460.685 526.512H429.645V561.04H460.685V526.512Z" fill="#37474F"/>
<g opacity="0.1">
<path d="M461.228 478.208V494.016L434.459 520.784H430.188V509.248L461.228 478.208Z" fill="white"/>
<path d="M460.317 526.512L429.645 557.184V549.28L452.413 526.512H460.317Z" fill="white"/>
<path d="M461.229 517.695V520.783H458.141L461.229 517.695Z" fill="white"/>
<path d="M448.411 476.304L430.188 494.528V486.624L440.508 476.304H448.411Z" fill="white"/>
<path d="M460.684 532.352V534.336L433.98 561.04H431.996L460.684 532.352Z" fill="white"/>
</g>
<path d="M478.781 566.671V368.943L725.037 430.783V566.671H478.781Z" fill="#263238"/>
<path d="M757.887 439.04L452.031 362.24V345.52L757.887 422.32V439.04Z" fill="#263238"/>
<path d="M725.039 430.783V445.967L757.887 439.039L725.039 430.783Z" fill="#455A64"/>
<path d="M537.069 392.224V471.408H486.812V379.6L537.069 392.224Z" fill="#455A64"/>
<path d="M537.053 479.68H486.812V558.416H537.053V479.68Z" fill="#455A64"/>
<path d="M596.381 407.119V471.407H546.109V394.495L596.381 407.119Z" fill="#455A64"/>
<path d="M596.365 479.68H546.109V558.416H596.365V479.68Z" fill="#455A64"/>
<path d="M655.678 422V471.408H605.422V409.392L655.678 422Z" fill="#455A64"/>
<path d="M655.662 479.68H605.422V558.416H655.662V479.68Z" fill="#455A64"/>
<path d="M714.975 436.895V471.407H664.719V424.271L714.975 436.895Z" fill="#455A64"/>
<path d="M714.975 479.68H664.719V558.416H714.975V479.68Z" fill="#455A64"/>
<g opacity="0.1">
<path d="M509.565 385.312L486.812 408.064V392.256L496.925 382.144L509.565 385.312Z" fill="white"/>
<path d="M714.974 523.008V538.816L695.374 558.416H679.566L714.974 523.008Z" fill="white"/>
<path d="M576.555 558.415L596.363 538.607V554.415L592.363 558.415H576.555Z" fill="white"/>
<path d="M655.662 479.68V495.104L605.422 545.36V529.552L655.278 479.68H655.662Z" fill="white"/>
<path d="M664.715 479.68H671.083L664.715 486.048V479.68Z" fill="white"/>
<path d="M714.107 436.655L679.355 471.407H664.715V470.239L701.467 433.487L714.107 436.655Z" fill="white"/>
<path d="M486.812 536.432L537.069 486.176V494.08L486.812 544.336V536.432Z" fill="white"/>
<path d="M546.109 479.68H551.469L546.109 485.04V479.68Z" fill="white"/>
<path d="M551.836 471.408L596.364 426.88V434.784L559.74 471.408H551.836Z" fill="white"/>
<path d="M618.478 412.672L605.422 425.728V417.824L612.158 411.088L618.478 412.672Z" fill="white"/>
<path d="M537.069 392.224V397.6L486.812 447.856V439.968L535.069 391.712L537.069 392.224Z" fill="white"/>
<path d="M556.188 558.416L596.364 518.256V526.144L564.092 558.416H556.188Z" fill="white"/>
<path d="M642.83 479.68L605.422 517.088V509.2L634.942 479.68H642.83Z" fill="white"/>
<path d="M643.211 471.408L655.659 458.96V466.848L651.099 471.408H643.211Z" fill="white"/>
<path d="M691.515 430.991L664.715 457.791V449.903L685.211 429.407L691.515 430.991Z" fill="white"/>
<path d="M629.355 558.415L655.659 532.111V534.095L631.339 558.415H629.355Z" fill="white"/>
<path d="M710.075 479.68L664.715 525.04V523.056L708.091 479.68H710.075Z" fill="white"/>
<path d="M524.013 479.68H525.997L486.812 518.848V516.896L524.013 479.68Z" fill="white"/>
<path d="M532.285 471.408L537.069 466.624V468.608L534.269 471.408H532.285Z" fill="white"/>
<path d="M596.365 407.327V409.311L546.109 459.567V457.583L596.365 407.327Z" fill="white"/>
</g>
<path d="M761.95 576.912H180.398V587.152H761.95V576.912Z" fill="#C7C7C7"/>
<path d="M748.462 566.672H193.902V576.912H748.462V566.672Z" fill="#C7C7C7"/>
<path d="M193.902 576.911V574.351L748.462 571.791V576.911H193.902Z" fill="#A6A6A6"/>
<path d="M623.808 414.88H607.84V805.584H623.808V414.88Z" fill="#DBDBDB"/>
<path d="M623.808 421.264V520.752L607.84 520.16V420.672L623.808 421.264Z" fill="#C7C7C7"/>
<path d="M691.632 425.664H540V514.032H691.632V425.664Z" fill="#EBEBEB"/>
<path d="M684.382 433.136H547.246V506.544H684.382V433.136Z" fill="#2466FF"/>
<path opacity="0.1" d="M684.382 433.136H547.246V506.544H684.382V433.136Z" fill="black"/>
<path d="M589.055 480.111C589.168 482.909 588.328 485.662 586.671 487.919C585.56 489.46 583.966 490.586 582.143 491.119C580.952 491.458 579.717 491.62 578.479 491.599C576.193 491.682 573.943 491.007 572.079 489.679C570.604 488.575 569.445 487.101 568.719 485.407C567.831 483.451 567.315 481.345 567.199 479.199L573.487 478.735C573.552 480.753 574.259 482.698 575.503 484.287C575.837 484.685 576.256 485.001 576.731 485.212C577.205 485.423 577.721 485.522 578.239 485.503C578.951 485.483 579.645 485.275 580.252 484.902C580.858 484.528 581.356 484.002 581.695 483.375C582.183 482.491 582.411 481.487 582.351 480.479C582.251 478.425 581.362 476.488 579.871 475.071L574.015 469.503C572.19 467.846 570.621 465.926 569.359 463.807C568.382 461.908 567.882 459.799 567.903 457.663C567.791 455.944 568.097 454.223 568.797 452.648C569.496 451.074 570.568 449.692 571.919 448.623C573.707 447.345 575.867 446.693 578.063 446.767C580.185 446.719 582.277 447.273 584.095 448.367C585.443 449.209 586.547 450.39 587.295 451.791C588.136 453.354 588.632 455.078 588.751 456.847L582.431 457.999C582.331 456.473 581.773 455.012 580.831 453.807C580.507 453.441 580.104 453.155 579.652 452.969C579.2 452.783 578.711 452.703 578.223 452.735C577.658 452.715 577.099 452.854 576.609 453.137C576.119 453.42 575.72 453.836 575.455 454.335C574.916 455.314 574.651 456.419 574.687 457.535C574.797 459.816 575.716 461.983 577.279 463.647C578.164 464.667 579.144 465.599 580.207 466.431C581.807 467.711 582.751 468.607 583.247 469.119C584.711 470.542 585.976 472.157 587.007 473.919C587.378 474.593 587.709 475.288 587.999 475.999C588.593 477.296 588.951 478.689 589.055 480.111Z" fill="white"/>
<path d="M604.863 446.704C606.237 446.704 607.598 446.975 608.867 447.501C610.137 448.026 611.29 448.797 612.262 449.769C613.234 450.741 614.005 451.894 614.53 453.164C615.056 454.433 615.327 455.794 615.327 457.168V481.056C615.327 483.127 614.713 485.151 613.562 486.873C612.412 488.594 610.776 489.936 608.862 490.727C606.949 491.519 604.843 491.725 602.813 491.319C600.782 490.913 598.917 489.914 597.455 488.448C596.476 487.485 595.701 486.333 595.179 485.063C594.656 483.793 594.397 482.43 594.415 481.056V457.168C594.415 454.396 595.515 451.737 597.474 449.775C599.433 447.813 602.091 446.708 604.863 446.704ZM608.447 457.04C608.459 456.544 608.368 456.051 608.181 455.591C607.994 455.131 607.714 454.715 607.359 454.368C606.646 453.662 605.683 453.265 604.679 453.265C603.675 453.265 602.712 453.662 601.999 454.368C601.637 454.711 601.35 455.126 601.157 455.586C600.964 456.046 600.869 456.541 600.879 457.04V481.04C600.869 481.539 600.964 482.034 601.157 482.494C601.35 482.954 601.637 483.369 601.999 483.712C602.712 484.419 603.675 484.815 604.679 484.815C605.683 484.815 606.646 484.419 607.359 483.712C607.714 483.365 607.994 482.949 608.181 482.489C608.368 482.03 608.459 481.536 608.447 481.04V457.04Z" fill="white"/>
<path d="M639.2 490.992H621.168V447.2H627.76V484.368H639.2V490.992Z" fill="white"/>
<path d="M664.4 480.528C664.421 481.9 664.164 483.263 663.644 484.533C663.125 485.804 662.353 486.956 661.376 487.92C660.43 488.907 659.292 489.689 658.031 490.217C656.77 490.746 655.415 491.009 654.048 490.992H643.68V447.2H654.048C655.418 447.177 656.777 447.438 658.041 447.967C659.305 448.495 660.446 449.28 661.392 450.272C662.365 451.231 663.134 452.378 663.651 453.643C664.168 454.908 664.423 456.265 664.4 457.632V480.528ZM650.272 484.464H654.256C654.751 484.474 655.243 484.378 655.699 484.182C656.154 483.986 656.562 483.694 656.896 483.328C657.244 482.979 657.52 482.565 657.707 482.109C657.894 481.653 657.988 481.164 657.984 480.672V457.76C657.991 457.263 657.898 456.769 657.708 456.31C657.518 455.85 657.236 455.434 656.88 455.088C656.545 454.728 656.138 454.443 655.686 454.25C655.234 454.057 654.747 453.961 654.256 453.968H650.272V484.464Z" fill="white"/>
<path d="M633.666 805.023C637.266 806.159 742.578 803.887 746.418 801.311C747.906 800.367 738.882 700.623 738.882 700.623L672.098 701.903L679.682 768.623C679.682 768.623 640.834 787.023 636.898 790.287C632.962 793.551 630.05 803.999 633.666 805.023Z" fill="#FFCFA4"/>
<path d="M633.668 805.039C637.268 806.159 742.58 803.887 746.42 801.311C746.884 801.023 747.028 790.895 745.348 777.711C726.26 780.911 658.1 791.375 652.788 788.255C649.092 786.079 652.372 782.671 655.396 780.383C646.692 784.719 638.58 788.895 636.9 790.303C632.996 793.551 630.068 803.999 633.668 805.039Z" fill="#263238"/>
<path d="M677.81 752.624L743.41 751.696C743.41 751.696 730.418 594.656 730.962 591.696C731.65 587.824 778.162 405.424 778.162 405.424H715.554C715.554 405.424 666.21 575.424 664.354 591.808C661.602 618.208 677.81 752.624 677.81 752.624Z" fill="#FFCFA4"/>
<path d="M712.307 805.28C715.907 806.4 821.219 804.128 825.075 801.568C826.547 800.608 821.043 700.768 821.043 700.768L755.139 702.048L758.339 768.832C758.339 768.832 719.491 787.232 715.555 790.512C711.619 793.792 708.707 804.16 712.307 805.28Z" fill="#FFCFA4"/>
<path d="M712.304 805.28C715.904 806.4 821.216 804.128 825.056 801.552C825.52 801.264 825.424 791.408 825.056 777.936C805.952 781.136 736.736 791.616 731.424 788.496C727.728 786.32 731.008 782.912 734.032 780.624C725.328 784.96 717.216 789.136 715.536 790.544C711.632 793.792 708.704 804.176 712.304 805.28Z" fill="#263238"/>
<path d="M711.73 794.479C712.803 792.127 714.65 790.213 716.962 789.055C719.826 787.455 722.786 785.967 725.714 784.511C728.642 783.055 731.698 781.471 735.058 779.967C735.234 779.967 735.362 779.967 735.186 780.095C732.348 781.524 729.587 783.099 726.914 784.815C724.274 786.415 721.554 787.871 718.914 789.359C716.414 790.449 714.301 792.266 712.85 794.575C711.678 797.091 710.989 799.804 710.818 802.575C710.818 802.799 710.642 802.783 710.642 802.575C710.493 799.832 710.862 797.085 711.73 794.479Z" fill="#455A64"/>
<path d="M717.602 405.344C717.602 405.344 719.41 435.264 726.562 458.896C727.138 460.848 727.762 462.768 728.434 464.608C734.743 467.072 740.816 470.103 746.578 473.664C746.578 473.664 751.09 588.096 751.01 595.264C750.706 621.856 757.506 751.36 757.506 751.36L823.618 750.72C823.618 750.72 816.802 604.224 816.802 594.48C816.802 578.832 802.93 405.376 802.93 405.376L717.602 405.344Z" fill="#FFCFA4"/>
<path d="M715.556 405.376H802.852C809.848 425.612 811.458 447.321 807.524 468.368L819.7 632.528C819.7 632.528 760.74 641.408 724.548 641.408C688.356 641.408 662.724 629.472 662.724 629.472C662.724 629.472 662.484 601.728 663.508 591.536C664.532 581.344 715.556 405.376 715.556 405.376Z" fill="#263238"/>
<path d="M776.659 506.4V506.624H778.707V506.4H776.659ZM772.355 503.776C773.041 503.763 773.725 503.709 774.403 503.616V502.224C773.726 502.336 773.042 502.4 772.355 502.416V503.776Z" fill="#C7C7C7"/>
<path d="M782.515 498.544V506.544H778.707V506.4H776.659V506.624H772.355V503.776C773.041 503.763 773.725 503.709 774.403 503.616V504.576H780.467V500.592H774.403V502.192C773.726 502.304 773.042 502.368 772.355 502.384V498.512L782.515 498.544Z" fill="#C7C7C7"/>
<path d="M778.704 506.399H776.656V529.231H778.704V506.399Z" fill="#C7C7C7"/>
<path d="M777.681 527.6H772.609V529.264H777.681V527.6Z" fill="#C7C7C7"/>
<path d="M777.681 524.912H772.609V526.576H777.681V524.912Z" fill="#C7C7C7"/>
<path d="M763.552 504.672L763.456 504.88L765.344 505.712L765.424 505.52L763.552 504.672ZM760.992 499.872C761.52 500.304 762.096 500.72 762.672 501.104L763.248 499.84C762.678 499.455 762.143 499.021 761.648 498.544L760.992 499.872Z" fill="#2466FF"/>
<path d="M765.427 505.52L765.331 505.712L756.099 526.368L754.227 525.536V525.52L754.899 524.016L755.315 523.072L756.003 521.568L763.459 504.88L763.555 504.672L765.427 505.52Z" fill="#2466FF"/>
<path d="M755.892 524.406L751.262 522.335L750.582 523.854L755.212 525.925L755.892 524.406Z" fill="#2466FF"/>
<path d="M756.974 521.96L752.344 519.889L751.664 521.408L756.294 523.479L756.974 521.96Z" fill="#2466FF"/>
<path d="M771.856 469.744C768.355 469.744 764.938 470.825 762.073 472.838C759.208 474.851 757.033 477.699 755.845 480.993C754.657 484.287 754.514 487.867 755.435 491.246C756.357 494.624 758.297 497.636 760.992 499.872C761.52 500.304 762.097 500.72 762.673 501.104C764.398 502.204 766.305 502.989 768.304 503.424L768.865 502.144C766.859 501.752 764.951 500.969 763.248 499.84C762.679 499.455 762.143 499.021 761.648 498.544C759.241 496.449 757.53 493.67 756.746 490.577C755.961 487.484 756.139 484.226 757.257 481.237C758.375 478.248 760.379 475.672 763.001 473.854C765.623 472.035 768.738 471.061 771.928 471.061C775.119 471.061 778.234 472.035 780.856 473.854C783.478 475.672 785.482 478.248 786.6 481.237C787.718 484.226 787.896 487.484 787.111 490.577C786.327 493.67 784.616 496.449 782.208 498.544H782.576V500C785.324 497.794 787.319 494.791 788.285 491.403C789.252 488.015 789.143 484.411 787.974 481.088C786.804 477.765 784.631 474.887 781.755 472.852C778.88 470.817 775.443 469.725 771.921 469.728L771.856 469.744ZM774.4 502.224C773.723 502.336 773.039 502.4 772.352 502.416H770.992L770.384 503.728C770.88 503.728 771.36 503.728 771.856 503.728H772.352C773.038 503.715 773.722 503.661 774.4 503.568C776.541 503.231 778.598 502.492 780.464 501.392V500.544H779.184C777.697 501.371 776.079 501.939 774.4 502.224Z" fill="#EBEBEB"/>
<path d="M772.099 499.904L770.995 502.416L770.387 503.728L768.787 507.264L765.331 505.664L765.411 505.472L763.539 504.624L763.443 504.832L759.523 503.072L760.979 499.872C761.507 500.304 762.083 500.72 762.659 501.104L762.227 502.08L767.763 504.56L768.291 503.424L768.851 502.144L769.395 500.928L763.859 498.4L763.251 499.792C762.682 499.407 762.146 498.973 761.651 498.496L762.899 495.712L772.099 499.904Z" fill="#2466FF"/>
<path d="M708.304 346.608C709.232 346.608 713.6 346.512 719.968 346.416C723.153 339.702 724.159 332.161 722.848 324.848C722.592 323.248 726.96 332.704 725.904 346.336C738.224 346.144 754.992 345.888 769.632 345.52C769.632 339.792 770.016 334.496 770.016 334.496C770.62 338.225 771.557 341.894 772.816 345.456L778.672 345.296C778.266 337.177 778.309 329.042 778.8 320.928C780.194 329.359 782.962 337.504 786.992 345.04C796.288 344.704 802.384 344.32 801.984 343.888C787.296 328.32 797.184 318.64 792.672 304.608C787.2 287.776 772.432 285.6 772.368 272.8C772.288 262.4 772.848 243.488 759.568 239.968C755.877 236.631 751.285 234.456 746.365 233.713C741.445 232.971 736.416 233.694 731.904 235.792C711.472 244.544 720.928 276.288 719.776 282.848C718.176 292.24 713.824 295.648 710.928 306.448C708.032 317.248 713.152 324.272 713.984 331.552C714.816 338.832 705.968 346.672 708.304 346.608Z" fill="#263238"/>
<path d="M802.306 341.6C800.296 338.869 798.68 335.869 797.506 332.688C796.549 329.519 796.428 326.157 797.154 322.928C797.767 319.507 798.205 316.057 798.466 312.592C798.696 308.974 798.207 305.347 797.026 301.92C795.754 298.508 793.718 295.432 791.074 292.928C788.506 290.568 785.744 288.427 782.818 286.528C779.994 284.683 777.423 282.478 775.17 279.968C773.001 277.353 771.589 274.193 771.09 270.832C771.083 274.369 772.155 277.824 774.162 280.736C776.255 283.56 778.757 286.057 781.586 288.144C784.288 290.182 786.859 292.389 789.282 294.752C791.575 297.069 793.343 299.852 794.466 302.912C795.497 306.003 795.952 309.257 795.81 312.512C795.81 315.84 795.266 319.216 794.946 322.672C794.775 324.437 794.732 326.213 794.818 327.984C794.968 329.797 795.44 331.568 796.21 333.216C797.728 336.351 799.792 339.19 802.306 341.6Z" fill="#263238"/>
<path d="M720.641 248.239C719.35 252.298 718.566 256.5 718.305 260.751C717.937 264.975 717.777 269.231 717.665 273.455L717.473 279.759C717.424 281.793 717.183 283.818 716.753 285.807C715.682 289.748 713.904 293.462 711.505 296.767C710.315 298.594 709.246 300.497 708.305 302.463C707.379 304.473 706.686 306.583 706.241 308.751C705.856 310.907 705.637 313.09 705.585 315.279C705.516 317.477 705.72 319.676 706.193 321.823C706.657 323.983 707.345 325.999 707.937 327.983C708.53 329.962 708.938 331.992 709.153 334.047C709.296 336.11 708.946 338.178 708.131 340.078C707.315 341.979 706.059 343.658 704.465 344.975C706.296 343.786 707.802 342.16 708.849 340.244C709.897 338.328 710.452 336.183 710.465 333.999C710.413 331.845 710.145 329.7 709.665 327.599C709.217 325.487 708.609 323.487 708.289 321.471C707.717 317.432 707.885 313.322 708.785 309.343C709.24 307.383 709.894 305.475 710.737 303.647C711.644 301.796 712.67 300.005 713.809 298.287C714.913 296.511 716.081 294.671 717.009 292.687C718.012 290.7 718.754 288.592 719.217 286.415C719.628 284.264 719.821 282.077 719.793 279.887C719.793 277.743 719.793 275.631 719.793 273.487C719.713 269.263 719.585 265.055 719.617 260.847C719.522 256.621 719.866 252.395 720.641 248.239Z" fill="#263238"/>
<path d="M724.114 313.856C689.074 339.68 640.914 398.016 645.874 412.192C651.458 427.984 701.874 391.392 700.93 388.992C700.114 386.992 721.73 350.592 737.458 323.904C753.186 297.216 732.786 307.488 724.114 313.856Z" fill="#FFCFA4"/>
<path d="M724.114 313.856C689.074 339.68 640.914 398.016 645.874 412.192C651.458 427.984 701.874 391.392 700.93 388.992C700.114 386.992 721.73 350.592 737.458 323.904C753.186 297.216 732.786 307.488 724.114 313.856Z" fill="#2466FF"/>
<path d="M710.56 382.896L703.984 435.52C703.984 435.52 789.504 435.056 810.704 433.136C810.704 433.136 791.408 335.408 768.096 311.088C756.432 298.928 743.04 300.112 734.672 308.96C732.56 311.184 707.472 345.76 705.008 358.864C702.864 370.4 710.56 382.896 710.56 382.896Z" fill="#2466FF"/>
<path d="M705.28 356.592C706.295 353.166 707.747 349.886 709.6 346.832C710.912 344.496 712.272 342.192 713.648 339.888C714.08 339.104 714.432 338.288 714.816 337.472C715.2 336.656 715.504 336.08 715.856 335.376C716.592 333.872 717.376 332.384 718.16 330.896C718.16 330.816 718.336 330.896 718.304 330.896C717.712 332.4 717.072 333.888 716.352 335.344C718.4 332.016 720.416 328.64 722.608 325.392C722.608 325.392 722.72 325.392 722.688 325.392C718.272 333.632 713.216 341.52 709.168 349.952C707.178 353.898 705.993 358.2 705.68 362.608C705.366 367.064 705.909 371.539 707.28 375.792C707.28 375.968 707.104 376.096 707.04 375.936C705.72 372.881 704.867 369.644 704.512 366.336C704.166 363.068 704.426 359.765 705.28 356.592Z" fill="#263238"/>
<path d="M645.872 412.191C651.136 422.991 669.328 427.775 714.032 444.191C720.224 446.463 747.952 407.103 741.472 404.335C733.296 400.863 700.864 389.151 698.384 388.607C677.472 383.855 642.4 404.863 645.872 412.191Z" fill="#FFCFA4"/>
<path d="M732.579 400.8C732.579 400.8 751.651 406.864 760.691 413.152C772.803 421.568 779.779 433.808 782.403 439.12C787.859 450.208 793.411 480.72 784.883 483.92C777.155 486.752 773.075 455.216 773.075 455.216C773.075 455.216 782.547 486.672 772.627 488.384C762.707 490.096 760.035 453.184 760.035 453.184C760.035 453.184 769.043 485.728 758.531 485.872C750.531 485.968 746.291 452.704 746.291 452.704C746.291 452.704 753.843 480.736 745.683 481.2C736.659 481.712 730.771 451.248 730.771 451.248C709.827 448.928 700.803 439.248 695.187 431.616C693.843 429.712 732.579 400.8 732.579 400.8Z" fill="#FFCFA4"/>
<path d="M770.48 444C771.728 447.664 773.024 451.344 773.936 455.104C774.848 458.864 775.648 462.656 776.208 466.48C777.048 471.457 777.306 476.515 776.976 481.552C776.896 472.576 773.776 459.072 772.896 455.328C772.016 451.584 771.296 447.776 770.336 444.032C770.4 444 770.4 444 770.48 444Z" fill="#263238"/>
<path d="M756.866 447.104C758.258 451.904 759.81 456.496 760.994 461.296C762.178 466.096 762.866 470.704 763.714 475.552C763.714 475.92 763.554 475.84 763.474 475.456C762.434 470.656 761.106 466.288 760.018 461.488C758.93 456.688 758.018 451.888 756.818 447.088C756.738 447.056 756.85 447.024 756.866 447.104Z" fill="#263238"/>
<path d="M744.704 447.631C747.013 454.844 748.573 462.275 749.36 469.807C749.36 470.191 749.136 470.047 749.056 469.663C747.648 462.255 746.608 456.448 744.464 447.712C744.432 447.584 744.656 447.487 744.704 447.631Z" fill="#263238"/>
<path d="M738.9 401.84L696.34 441.056C696.34 441.056 647.828 422.432 645.7 412C643.684 402.048 679.156 383.776 695.844 387.392C712.532 391.008 738.9 401.84 738.9 401.84Z" fill="#EBEBEB"/>
<path d="M731.058 397.776L682.866 437.776C682.866 437.776 645.602 419.488 645.602 410.976C645.602 402.048 675.57 384.448 692.466 386.352C706.578 388 731.058 397.776 731.058 397.776Z" fill="#2466FF"/>
<path d="M677.106 390.143C680.53 388.735 690.018 385.711 698.338 388.543C698.434 388.543 698.338 388.703 698.338 388.687C691.298 387.407 680.61 389.247 677.186 390.287C677.074 390.303 677.026 390.175 677.106 390.143Z" fill="#263238"/>
<path d="M750.795 349.855L690.531 356.306L698.929 434.753L759.192 428.303L750.795 349.855Z" fill="#455A64"/>
<path d="M706.622 359.253L735.176 356.166L734.24 347.512L705.687 350.599L706.622 359.253Z" fill="#A6A6A6"/>
<path d="M712.16 349.952L715.68 349.568L715.248 345.584L723.792 344.656L724.224 348.64L727.744 348.256L726.96 340.992L711.328 342.688L712.16 349.952Z" fill="#A6A6A6"/>
<path d="M774.752 316.431C806.752 352.735 831.44 426.671 815.168 432.927C800.304 438.655 756.672 433.567 737.776 428.319C732.224 426.719 740.048 381.199 745.984 382.847C753.168 384.831 774.08 388.367 774.784 388.335C776.384 388.335 762.848 345.615 758.096 326.783C751.52 300.543 762.736 302.799 774.752 316.431Z" fill="#FFCFA4"/>
<path d="M686.866 381.199C686.338 382.495 686.22 383.922 686.529 385.287C686.838 386.652 687.559 387.889 688.594 388.831C686.617 390.163 685.168 392.144 684.498 394.431C683.506 398.495 689.458 401.839 689.458 401.839C687.698 403.642 686.522 405.934 686.082 408.415C685.522 412.415 691.042 416.655 691.042 416.655C690.343 419.203 690.581 421.917 691.714 424.303C695.01 430.575 705.778 431.375 712.626 431.967C719.474 432.559 739.426 427.791 743.314 427.263L747.426 383.391C747.426 383.391 717.49 372.047 709.346 372.495C702.498 372.879 689.058 376.303 686.866 381.199Z" fill="#FFCFA4"/>
<path d="M688.962 388.16C696.146 386 703.602 386.096 711.026 385.76C711.186 385.76 711.202 386 711.026 386.016C703.618 386.256 696.37 387.968 689.01 388.512C688.964 388.518 688.916 388.506 688.879 388.477C688.841 388.449 688.817 388.406 688.81 388.36C688.804 388.313 688.816 388.266 688.845 388.228C688.873 388.191 688.916 388.166 688.962 388.16Z" fill="#263238"/>
<path d="M689.65 401.28C691.335 400.949 693.056 400.841 694.77 400.96C696.578 400.96 698.386 400.96 700.21 401.072C703.842 401.216 707.458 401.424 711.074 401.76C711.25 401.76 711.266 402.016 711.074 402.016C707.458 401.888 703.842 401.808 700.21 401.824L694.785 401.904C693.074 402.045 691.352 402.002 689.65 401.776C689.594 401.762 689.546 401.73 689.511 401.685C689.476 401.64 689.457 401.585 689.457 401.528C689.457 401.471 689.476 401.416 689.511 401.371C689.546 401.326 689.594 401.294 689.65 401.28Z" fill="#263238"/>
<path d="M691.2 416.655C692.724 416.383 694.284 416.383 695.808 416.655L700.768 416.911C704.08 417.071 707.392 417.231 710.704 417.263C710.738 417.263 710.771 417.277 710.795 417.301C710.819 417.325 710.832 417.357 710.832 417.391C710.832 417.425 710.819 417.458 710.795 417.482C710.771 417.506 710.738 417.519 710.704 417.519C707.344 417.519 703.984 417.519 700.624 417.519L695.664 417.407C694.153 417.501 692.638 417.334 691.184 416.911C691.104 416.799 691.136 416.671 691.2 416.655Z" fill="#263238"/>
<path d="M751.074 382.928L745.234 432.016C745.234 432.016 812.562 441.952 819.746 430.288C829.346 414.848 800.866 345.696 778.482 320.144C755.186 293.568 752.882 310.032 757.794 329.328C762.594 348.24 772.946 386.272 772.978 386.928C773.01 387.584 751.074 382.928 751.074 382.928Z" fill="#EBEBEB"/>
<path d="M759.873 384.047L756.881 435.999C756.881 435.999 813.569 441.023 820.385 431.087C827.201 421.151 810.433 353.247 774.225 315.135C757.393 297.439 753.041 308.911 756.401 323.743C759.601 337.887 771.681 385.167 771.681 385.695C771.681 386.223 759.873 384.047 759.873 384.047Z" fill="#2466FF"/>
<path d="M806.128 394.927C798.82 391.739 791.251 389.185 783.504 387.295C779.712 386.399 776.032 385.695 772.176 385.167C771.984 383.647 771.488 381.631 771.152 379.951C770.752 377.999 770.272 376.063 769.792 374.143C768.896 370.399 767.968 366.687 767.024 362.943C766.08 359.199 765.152 355.487 764.192 351.743C763.696 349.823 763.216 347.903 762.592 345.983C761.968 344.063 761.568 342.127 760.848 340.303C760.848 340.207 760.64 340.207 760.656 340.303C761.191 344.13 761.965 347.919 762.976 351.647C763.104 352.159 763.216 352.687 763.344 353.247L763.104 352.623C762.48 351.119 761.856 349.615 761.184 348.127C761.17 348.1 761.147 348.079 761.119 348.067C761.09 348.056 761.059 348.055 761.03 348.065C761.001 348.074 760.976 348.094 760.961 348.12C760.945 348.146 760.939 348.177 760.944 348.207C761.504 349.727 762.096 351.231 762.704 352.751C763.072 353.663 763.472 354.575 763.888 355.487C764.48 358.031 765.088 360.559 765.696 363.103C766.608 366.895 767.52 370.703 768.464 374.495C768.944 376.415 769.408 378.351 769.952 380.255C770.416 381.855 770.992 384.319 771.248 385.055C769.344 384.783 767.696 384.559 765.776 384.383C763.856 384.207 761.76 384.207 759.776 384.015C759.616 384.015 759.616 384.239 759.776 384.255C761.872 384.463 763.968 384.975 766.048 385.311C768.128 385.647 769.776 385.935 771.632 386.303C775.52 387.055 779.408 387.903 783.264 388.783C790.912 390.607 798.544 392.623 805.984 395.183C806.16 395.167 806.24 394.975 806.128 394.927Z" fill="#263238"/>
<path d="M756.595 306.976C756.003 308.576 746.707 318.432 739.123 317.136C736.659 316.72 738.387 303.136 738.387 303.136L738.275 302.112L736.867 287.712L754.675 279.152L757.235 278.048C757.235 278.048 757.363 282.032 757.475 286.976C757.475 287.216 757.475 287.44 757.475 287.68C757.475 287.92 757.475 288.224 757.475 288.496C757.475 289.232 757.475 289.984 757.475 290.736C757.475 291.488 757.475 291.872 757.475 292.464V294.272C757.471 298.522 757.177 302.766 756.595 306.976Z" fill="#FFCFA4"/>
<path d="M757.475 286.928C755.565 290.698 752.859 294.008 749.544 296.63C746.229 299.252 742.384 301.122 738.275 302.112L736.867 287.712L754.675 279.152L757.235 278.048C757.235 278.048 757.363 281.984 757.475 286.928Z" fill="#263238"/>
<path d="M718.178 265.44C716.322 290.832 731.314 294.816 736.802 295.2C741.762 295.552 758.738 296.144 763.202 271.072C767.666 246 756.45 237.12 745.122 235.696C733.794 234.272 720.034 240.048 718.178 265.44Z" fill="#FFCFA4"/>
<path d="M725.888 260.336C726.47 260.255 727.046 260.142 727.616 260C728.241 259.975 728.839 259.738 729.312 259.328C729.433 259.169 729.498 258.975 729.498 258.776C729.498 258.576 729.433 258.382 729.312 258.224C729.026 257.944 728.671 257.745 728.283 257.647C727.895 257.549 727.489 257.554 727.104 257.664C726.292 257.769 725.547 258.167 725.008 258.784C724.896 258.935 724.83 259.117 724.818 259.305C724.807 259.494 724.85 259.681 724.943 259.846C725.037 260.01 725.175 260.144 725.343 260.231C725.511 260.318 725.7 260.354 725.888 260.336Z" fill="#263238"/>
<path d="M743.459 261.456C742.882 261.353 742.31 261.219 741.747 261.056C741.148 260.99 740.587 260.732 740.147 260.32C740.026 260.161 739.961 259.967 739.961 259.768C739.961 259.568 740.026 259.375 740.147 259.216C740.441 258.945 740.802 258.757 741.194 258.672C741.585 258.588 741.991 258.61 742.371 258.736C743.177 258.872 743.906 259.299 744.419 259.936C744.537 260.092 744.605 260.28 744.613 260.475C744.621 260.67 744.57 260.863 744.466 261.029C744.361 261.194 744.209 261.323 744.029 261.4C743.849 261.476 743.65 261.496 743.459 261.456Z" fill="#263238"/>
<path d="M739.124 267.823C739.124 267.823 739.268 267.823 739.252 267.983C739.124 269.711 739.252 271.711 740.852 272.351V272.447C738.9 272.095 738.724 269.439 739.124 267.823Z" fill="#263238"/>
<path d="M740.754 266.08C743.538 265.968 743.538 271.568 740.946 271.664C738.354 271.76 738.402 266.16 740.754 266.08Z" fill="#263238"/>
<path d="M741.841 266.4C742.337 266.72 742.817 267.28 743.441 267.344C744.065 267.408 744.641 266.816 745.041 266.256H745.137C745.137 267.328 744.737 268.432 743.537 268.592C742.337 268.752 741.745 267.776 741.473 266.704C741.473 266.544 741.601 266.24 741.841 266.4Z" fill="#263238"/>
<path d="M729.202 266.928C729.202 266.928 729.074 266.928 729.074 267.072C729.074 268.8 728.674 270.784 727.074 271.264V271.36C729.01 271.2 729.442 268.576 729.202 266.928Z" fill="#263238"/>
<path d="M727.76 265.023C724.992 264.655 724.448 270.223 727.024 270.575C729.6 270.927 730.096 265.343 727.76 265.023Z" fill="#263238"/>
<path d="M726.577 265.279C726.097 265.535 725.617 266.031 725.089 266.015C724.561 265.999 724.081 265.343 723.745 264.735C723.745 264.735 723.745 264.735 723.649 264.735C723.521 265.791 723.761 266.943 724.769 267.247C725.777 267.551 726.369 266.671 726.817 265.647C726.881 265.487 726.753 265.183 726.577 265.279Z" fill="#263238"/>
<path d="M738.4 281.936C738 282.352 737.616 282.928 736.992 283.008C736.345 283.028 735.701 282.908 735.104 282.656C735.104 282.656 734.992 282.656 735.104 282.752C735.368 283.081 735.714 283.333 736.108 283.482C736.502 283.631 736.929 283.672 737.344 283.6C737.692 283.487 738 283.276 738.23 282.992C738.46 282.708 738.602 282.363 738.64 282C738.592 281.904 738.4 281.872 738.4 281.936Z" fill="#263238"/>
<path d="M730.625 275.264C730.625 275.264 730.225 277.84 730.209 279.072C730.209 279.184 730.497 279.232 730.913 279.264C731.957 279.473 733.039 279.389 734.038 279.022C735.038 278.655 735.917 278.019 736.577 277.184C736.592 277.16 736.599 277.131 736.595 277.102C736.592 277.074 736.579 277.047 736.559 277.027C736.538 277.006 736.512 276.993 736.483 276.99C736.455 276.987 736.426 276.993 736.401 277.008C734.835 278.055 732.97 278.561 731.089 278.448C731.089 278.112 731.905 274.048 731.713 274.032C730.763 274.103 729.826 274.303 728.929 274.624C729.585 269.216 731.121 263.968 731.697 258.624C731.696 258.587 731.684 258.551 731.661 258.522C731.639 258.493 731.607 258.471 731.572 258.461C731.536 258.45 731.499 258.451 731.464 258.463C731.429 258.475 731.398 258.498 731.377 258.528C729.576 264.114 728.333 269.865 727.665 275.696C727.601 276.352 730.129 275.456 730.625 275.264Z" fill="#263238"/>
<path d="M731.266 279.056C731.969 280.03 732.911 280.807 734.002 281.312C734.604 281.563 735.268 281.625 735.906 281.488C737.298 281.168 737.362 279.888 737.154 278.816C737.033 278.229 736.839 277.659 736.578 277.12C735.061 278.319 733.198 278.998 731.266 279.056Z" fill="#263238"/>
<path d="M734 281.312C734.602 281.563 735.266 281.624 735.904 281.488C737.296 281.168 737.36 279.888 737.152 278.816C736.42 278.809 735.709 279.053 735.135 279.507C734.562 279.961 734.161 280.598 734 281.312Z" fill="#FFCFA4"/>
<path d="M762.26 270.88C759.524 270.704 752.404 263.152 752.228 249.92C752.228 249.92 753.22 261.792 754.1 263.536C754.98 265.28 750.132 259.28 749.828 248.608C746.462 250.999 742.771 252.896 738.868 254.24C733.828 255.648 730.74 255.584 730.388 255.216C730.036 254.848 737.444 252.544 739.46 250.24C739.46 250.24 725.236 256.32 719.06 256.784C718.34 256.784 718.324 242.224 727.908 235.984C737.492 229.744 752.596 236.56 756.708 240.512C756.708 240.512 761.508 241.2 766.66 248.288C771.812 255.376 765.204 271.072 762.26 270.88Z" fill="#263238"/>
<path d="M759.203 273.808C759.203 273.808 764.643 265.808 768.275 267.712C771.907 269.616 767.891 281.216 763.683 282.864C763.157 283.112 762.585 283.251 762.004 283.272C761.422 283.293 760.843 283.195 760.3 282.986C759.757 282.777 759.262 282.459 758.845 282.053C758.429 281.647 758.099 281.161 757.875 280.624L759.203 273.808Z" fill="#FFCFA4"/>
<path d="M767.058 271.008C767.058 271.008 767.058 271.088 767.058 271.12C764.114 272.368 762.594 275.136 761.538 278C761.707 277.702 761.938 277.444 762.216 277.243C762.494 277.043 762.812 276.906 763.148 276.84C763.484 276.775 763.83 276.783 764.163 276.865C764.495 276.946 764.806 277.099 765.074 277.312C765.154 277.312 765.074 277.488 765.074 277.472C764.55 277.306 763.986 277.31 763.463 277.482C762.941 277.655 762.486 277.987 762.162 278.432C761.62 279.167 761.164 279.961 760.802 280.8C760.658 281.072 760.178 280.944 760.274 280.624C760.13 276.784 762.994 271.44 767.058 271.008Z" fill="#263238"/>
<path d="M757.891 280.624C758.34 281.606 759.114 282.403 760.083 282.88C760.328 283.014 760.593 283.111 760.867 283.168C761.494 283.303 762.143 283.303 762.771 283.168C763.064 283.1 763.352 283.015 763.635 282.912C767.843 281.312 771.875 269.712 768.227 267.776C764.579 265.84 759.139 273.872 759.139 273.872L757.891 280.624Z" fill="#FFCFA4"/>
<path d="M767.058 271.008C767.058 271.008 767.058 271.088 767.058 271.12C764.114 272.368 762.594 275.136 761.538 278C761.707 277.702 761.938 277.444 762.216 277.243C762.494 277.043 762.812 276.906 763.148 276.84C763.484 276.775 763.83 276.783 764.163 276.865C764.495 276.946 764.806 277.099 765.074 277.312C765.154 277.312 765.074 277.488 765.074 277.472C764.55 277.306 763.986 277.31 763.463 277.482C762.941 277.655 762.486 277.987 762.162 278.432C761.62 279.167 761.164 279.961 760.802 280.8C760.658 281.072 760.178 280.944 760.274 280.624C760.13 276.784 762.994 271.44 767.058 271.008Z" fill="#263238"/>
<path d="M738.401 303.199L740.705 315.007L756.993 303.727L760.001 308.911C760.001 308.911 742.401 328.431 742.577 327.423L739.857 317.103L732.113 322.399L735.793 305.967L738.401 303.199Z" fill="#EBEBEB"/>
<path d="M733.473 314.143C734.177 311.455 734.801 308.719 735.617 306.063C735.617 305.967 735.809 305.951 735.809 306.063C735.809 308.799 733.137 319.071 732.609 321.567C732.929 321.327 739.761 316.927 739.809 317.023C740.497 318.719 742.497 326.239 742.609 326.895C745.393 323.807 757.009 311.695 760.097 308.847C760.193 308.767 760.321 308.847 760.241 308.975C757.681 312.319 742.641 328.351 742.481 328.271C741.349 324.692 740.409 321.055 739.665 317.375C738.449 318.383 731.441 323.487 731.489 323.071C731.997 320.064 732.659 317.084 733.473 314.143Z" fill="#263238"/>
</svg>
